<?xml version="1.0" encoding="UTF-8" standalone="no"?>
<!-- Created with Inkscape (http://www.inkscape.org/) -->

<svg
   width="124.09498mm"
   height="86.801468mm"
   viewBox="0 0 124.09498 86.801468"
   version="1.1"
   id="svg1"
   xml:space="preserve"
   inkscape:version="1.3.2 (091e20e, 2023-11-25, custom)"
   sodipodi:docname="4barras-ang_trans.svg"
   inkscape:export-filename="4barras-ex.png"
   inkscape:export-xdpi="300"
   inkscape:export-ydpi="300"
   xmlns:inkscape="http://www.inkscape.org/namespaces/inkscape"
   xmlns:sodipodi="http://sodipodi.sourceforge.net/DTD/sodipodi-0.dtd"
   xmlns="http://www.w3.org/2000/svg"
   xmlns:svg="http://www.w3.org/2000/svg"><sodipodi:namedview
     id="namedview1"
     pagecolor="#ffffff"
     bordercolor="#000000"
     borderopacity="0.25"
     inkscape:showpageshadow="2"
     inkscape:pageopacity="0.0"
     inkscape:pagecheckerboard="0"
     inkscape:deskcolor="#d1d1d1"
     inkscape:document-units="mm"
     inkscape:zoom="1.4485269"
     inkscape:cx="229.88872"
     inkscape:cy="165.34039"
     inkscape:window-width="1920"
     inkscape:window-height="1009"
     inkscape:window-x="-8"
     inkscape:window-y="-8"
     inkscape:window-maximized="1"
     inkscape:current-layer="layer1"
     inkscape:export-bgcolor="#ffffffff" /><defs
     id="defs1"><marker
       style="overflow:visible"
       id="marker26"
       refX="0"
       refY="0"
       orient="auto-start-reverse"
       inkscape:stockid="Triangle arrow"
       markerWidth="1"
       markerHeight="1"
       viewBox="0 0 1 1"
       inkscape:isstock="true"
       inkscape:collect="always"
       preserveAspectRatio="xMidYMid"><path
         transform="scale(0.5)"
         style="fill:context-stroke;fill-rule:evenodd;stroke:context-stroke;stroke-width:1pt"
         d="M 5.77,0 -2.88,5 V -5 Z"
         id="path26" /></marker><marker
       style="overflow:visible"
       id="marker25"
       refX="0"
       refY="0"
       orient="auto-start-reverse"
       inkscape:stockid="Triangle arrow"
       markerWidth="1"
       markerHeight="1"
       viewBox="0 0 1 1"
       inkscape:isstock="true"
       inkscape:collect="always"
       preserveAspectRatio="xMidYMid"><path
         transform="scale(0.5)"
         style="fill:context-stroke;fill-rule:evenodd;stroke:context-stroke;stroke-width:1pt"
         d="M 5.77,0 -2.88,5 V -5 Z"
         id="path25" /></marker><marker
       style="overflow:visible"
       id="Triangle"
       refX="0"
       refY="0"
       orient="auto-start-reverse"
       inkscape:stockid="Triangle arrow"
       markerWidth="1"
       markerHeight="1"
       viewBox="0 0 1 1"
       inkscape:isstock="true"
       inkscape:collect="always"
       preserveAspectRatio="xMidYMid"><path
         transform="scale(0.5)"
         style="fill:context-stroke;fill-rule:evenodd;stroke:context-stroke;stroke-width:1pt"
         d="M 5.77,0 -2.88,5 V -5 Z"
         id="path135" /></marker></defs><g
     inkscape:label="Camada 1"
     inkscape:groupmode="layer"
     id="layer1"
     transform="translate(-18.720431,-87.949203)"><path
       id="path1"
       style="fill:#ffffff;stroke:#000000;stroke-width:1;stroke-linejoin:bevel;stroke-miterlimit:4;stroke-dasharray:none"
       d="m 115.08384,134.1568 a 6.6338246,6.6139046 0 0 0 -6.62119,6.6139 6.6338246,6.6139046 0 0 0 0,0.0126 v 11.56174 H 121.7303 V 140.7707 a 6.6338246,6.6139046 0 0 0 -6.63382,-6.6139 6.6338246,6.6139046 0 0 0 -0.0126,0 z" /><path
       style="fill:none;stroke:#000000;stroke-width:1;stroke-linecap:butt;stroke-linejoin:miter;stroke-miterlimit:4;stroke-dasharray:none;stroke-opacity:1"
       d="M 92.707319,152.34503 H 140.80255"
       id="path2" /><path
       style="fill:none;stroke:#000000;stroke-width:1;stroke-linecap:butt;stroke-linejoin:miter;stroke-miterlimit:4;stroke-dasharray:none;stroke-opacity:1"
       d="m 92.707319,152.34503 6.223816,10.7476"
       id="path3" /><path
       style="fill:none;stroke:#000000;stroke-width:1;stroke-linecap:butt;stroke-linejoin:miter;stroke-miterlimit:4;stroke-dasharray:none;stroke-opacity:1"
       d="m 103.65314,152.34503 6.22381,10.7476"
       id="path4" /><path
       style="fill:none;stroke:#000000;stroke-width:1;stroke-linecap:butt;stroke-linejoin:miter;stroke-miterlimit:4;stroke-dasharray:none;stroke-opacity:1"
       d="m 114.26726,152.34503 6.22382,10.7476"
       id="path5" /><path
       style="fill:none;stroke:#000000;stroke-width:1;stroke-linecap:butt;stroke-linejoin:miter;stroke-miterlimit:4;stroke-dasharray:none;stroke-opacity:1"
       d="m 125.21308,152.34503 6.22382,10.7476"
       id="path6" /><path
       style="fill:none;stroke:#000000;stroke-width:1;stroke-linecap:butt;stroke-linejoin:miter;stroke-miterlimit:4;stroke-dasharray:none;stroke-opacity:1"
       d="m 136.1589,152.34503 6.22382,10.7476"
       id="path7" /><path
       id="path839"
       style="fill:#ffffff;stroke:#000000;stroke-width:1;stroke-linejoin:bevel;stroke-miterlimit:4;stroke-dasharray:none"
       d="m 41.52964,134.1568 a 6.6338246,6.6139046 0 0 0 -6.621188,6.6139 6.6338246,6.6139046 0 0 0 0,0.0126 v 11.56174 H 48.1761 V 140.7707 a 6.6338246,6.6139046 0 0 0 -6.63382,-6.6139 6.6338246,6.6139046 0 0 0 -0.0126,0 z" /><path
       style="fill:none;stroke:#000000;stroke-width:1;stroke-linecap:butt;stroke-linejoin:miter;stroke-miterlimit:4;stroke-dasharray:none;stroke-opacity:1"
       d="M 19.153118,152.34503 H 67.24835"
       id="path850" /><path
       style="fill:none;stroke:#000000;stroke-width:1;stroke-linecap:butt;stroke-linejoin:miter;stroke-miterlimit:4;stroke-dasharray:none;stroke-opacity:1"
       d="m 19.153118,152.34503 6.223816,10.7476"
       id="path852" /><path
       style="fill:none;stroke:#000000;stroke-width:1;stroke-linecap:butt;stroke-linejoin:miter;stroke-miterlimit:4;stroke-dasharray:none;stroke-opacity:1"
       d="m 30.098936,152.34503 6.223816,10.7476"
       id="path854" /><path
       style="fill:none;stroke:#000000;stroke-width:1;stroke-linecap:butt;stroke-linejoin:miter;stroke-miterlimit:4;stroke-dasharray:none;stroke-opacity:1"
       d="m 40.71306,152.34503 6.22382,10.7476"
       id="path856" /><path
       style="fill:none;stroke:#000000;stroke-width:1;stroke-linecap:butt;stroke-linejoin:miter;stroke-miterlimit:4;stroke-dasharray:none;stroke-opacity:1"
       d="m 51.65888,152.34503 6.22382,10.7476"
       id="path858" /><path
       style="fill:none;stroke:#000000;stroke-width:1;stroke-linecap:butt;stroke-linejoin:miter;stroke-miterlimit:4;stroke-dasharray:none;stroke-opacity:1"
       d="m 62.6047,152.34503 6.22382,10.7476"
       id="path860" /><path
       style="fill:none;stroke:#000000;stroke-width:1;stroke-dasharray:none"
       d="M 41.588838,140.52377 66.387151,111.07578 121.40841,97.385041 115.20883,140.52377"
       id="path8" /><ellipse
       style="fill:#ffffff;stroke:#000000;stroke-width:1;stroke-linejoin:bevel;stroke-dasharray:none"
       id="path1592"
       cx="41.578671"
       cy="140.69173"
       rx="2.3188543"
       ry="2.3118913" /><ellipse
       style="fill:#ffffff;stroke:#000000;stroke-width:1;stroke-linejoin:bevel;stroke-dasharray:none"
       id="ellipse8"
       cx="65.716614"
       cy="112.27699"
       rx="2.3188543"
       ry="2.3118913" /><ellipse
       style="fill:#ffffff;stroke:#000000;stroke-width:1;stroke-linejoin:bevel;stroke-dasharray:none"
       id="ellipse7"
       cx="115.13287"
       cy="140.69173"
       rx="2.3188543"
       ry="2.3118913" /><ellipse
       style="fill:#ffffff;stroke:#000000;stroke-width:1;stroke-linejoin:bevel;stroke-dasharray:none"
       id="ellipse9"
       cx="121.05997"
       cy="97.497673"
       rx="2.3188543"
       ry="2.3118913" /><g
       inkscape:label=""
       transform="translate(24.807085,139.76926)"
       id="g10"><g
   fill="#000000"
   fill-opacity="1"
   id="g3"
   transform="matrix(0.352778,0,0,0.352778,-1.12201,-0.521009)">
    <g
   id="use2"
   transform="translate(1.993,18.93)">
      <path
   d="m 17.984375,-10.859375 c 0,-4.078125 -2.671875,-6.59375 -6.140625,-6.59375 -5.296875,0 -10.65625,5.703125 -10.65625,11.4375 0,3.890625 2.578125,6.53125 6.171875,6.53125 5.203125,0 10.625,-5.421875 10.625,-11.375 z m -10.46875,10.8125 c -2.03125,0 -4.1875,-1.484375 -4.1875,-5.359375 0,-2.25 0.8125,-5.9375 2.84375,-8.421875 1.8125,-2.1875 3.890625,-3.078125 5.546875,-3.078125 2.1875,0 4.296875,1.59375 4.296875,5.15625 0,2.203125 -0.953125,5.65625 -2.609375,8.015625 -1.8125,2.515625 -4.0625,3.6875 -5.890625,3.6875 z m 0,0"
   id="path9" />
    </g>
  </g>
  <g
   fill="#000000"
   fill-opacity="1"
   id="g4"
   transform="matrix(0.352778,0,0,0.352778,-1.12201,-0.521009)">
    <g
   id="use3"
   transform="translate(20.541,22.648001)">
      <path
   d="M 7.1875,-2.671875 H 6.875 c -0.171875,1.21875 -0.3125,1.4375 -0.390625,1.53125 C 6.40625,-1 5.171875,-1 4.921875,-1 H 1.625 c 0.609375,-0.671875 1.8125,-1.890625 3.28125,-3.3125 1.046875,-0.984375 2.28125,-2.15625 2.28125,-3.859375 0,-2.03125 -1.625,-3.203125 -3.4375,-3.203125 -1.890625,0 -3.046875,1.65625 -3.046875,3.21875 0,0.671875 0.5,0.75 0.703125,0.75 0.171875,0 0.6875,-0.09375 0.6875,-0.703125 0,-0.53125 -0.4375,-0.6875 -0.6875,-0.6875 -0.09375,0 -0.203125,0.015625 -0.265625,0.046875 0.328125,-1.453125 1.328125,-2.1875 2.375,-2.1875 1.5,0 2.46875,1.1875 2.46875,2.765625 0,1.484375 -0.875,2.78125 -1.859375,3.90625 l -3.421875,3.875 V 0 h 6.0625 z m 0,0"
   id="path10" />
    </g>
  </g>
</g><g
       inkscape:label=""
       transform="translate(98.616655,140.31535)"
       id="g15"><g
   fill="#000000"
   fill-opacity="1"
   id="g12"
   transform="matrix(0.352778,0,0,0.352778,-1.12201,-0.521009)">
    <g
   id="g11"
   transform="translate(1.993,18.93)">
      <path
   d="m 17.984375,-10.859375 c 0,-4.078125 -2.671875,-6.59375 -6.140625,-6.59375 -5.296875,0 -10.65625,5.703125 -10.65625,11.4375 0,3.890625 2.578125,6.53125 6.171875,6.53125 5.203125,0 10.625,-5.421875 10.625,-11.375 z m -10.46875,10.8125 c -2.03125,0 -4.1875,-1.484375 -4.1875,-5.359375 0,-2.25 0.8125,-5.9375 2.84375,-8.421875 1.8125,-2.1875 3.890625,-3.078125 5.546875,-3.078125 2.1875,0 4.296875,1.59375 4.296875,5.15625 0,2.203125 -0.953125,5.65625 -2.609375,8.015625 -1.8125,2.515625 -4.0625,3.6875 -5.890625,3.6875 z m 0,0"
   id="path11" />
    </g>
  </g>
  <g
   fill="#000000"
   fill-opacity="1"
   id="g14"
   transform="matrix(0.352778,0,0,0.352778,-1.12201,-0.521009)">
    <g
   id="g13"
   transform="translate(20.541,22.648001)">
      <path
   d="m 5.78125,-11.140625 c 0,-0.359375 -0.015625,-0.375 -0.328125,-0.375 L 0.34375,-3.375 v 0.453125 h 4.4375 v 1.6875 c 0,0.609375 -0.03125,0.78125 -1.234375,0.78125 H 3.21875 V 0 c 0.546875,-0.03125 1.484375,-0.03125 2.0625,-0.03125 0.59375,0 1.515625,0 2.078125,0.03125 V -0.453125 H 7.03125 c -1.21875,0 -1.25,-0.171875 -1.25,-0.78125 v -1.6875 H 7.546875 V -3.375 H 5.78125 Z M 4.84375,-10 v 6.625 H 0.6875 Z m 0,0"
   id="path12" />
    </g>
  </g>
</g><g
       inkscape:label=""
       transform="translate(59.673465,102.56175)"
       id="g16"><g
   fill="#000000"
   fill-opacity="1"
   id="g2"
   transform="matrix(0.352778,0,0,0.352778,-1.00074,-0.438326)">
    <g
   id="use1"
   transform="translate(1.993,18.93)">
      <path
   d="M 4.21875,-2.75 C 3.34375,-1.28125 2.5,-0.796875 1.3125,-0.71875 1.046875,-0.6875 0.84375,-0.6875 0.84375,-0.25 c 0,0.15625 0.125,0.25 0.296875,0.25 0.453125,0 1.5625,-0.046875 2,-0.046875 C 3.859375,-0.046875 4.65625,0 5.359375,0 5.5,0 5.796875,0 5.796875,-0.46875 c 0,-0.21875 -0.203125,-0.25 -0.34375,-0.25 C 4.875,-0.765625 4.40625,-0.96875 4.40625,-1.5625 c 0,-0.34375 0.15625,-0.625 0.46875,-1.15625 l 1.890625,-3.125 h 6.3125 c 0.03125,0.21875 0.03125,0.421875 0.0625,0.640625 0.0625,0.640625 0.359375,3.21875 0.359375,3.6875 0,0.75 -1.265625,0.796875 -1.65625,0.796875 -0.265625,0 -0.546875,0 -0.546875,0.453125 C 11.296875,0 11.515625,0 11.671875,0 c 0.421875,0 0.921875,-0.046875 1.34375,-0.046875 h 1.40625 C 15.9375,-0.046875 17.03125,0 17.046875,0 17.21875,0 17.5,0 17.5,-0.46875 c 0,-0.25 -0.234375,-0.25 -0.59375,-0.25 -1.375,0 -1.390625,-0.21875 -1.46875,-0.96875 L 13.921875,-17.15625 C 13.875,-17.640625 13.78125,-17.6875 13.5,-17.6875 c -0.234375,0 -0.390625,0.04687 -0.609375,0.421875 z m 2.96875,-3.8125 4.984375,-8.328125 0.84375,8.328125 z m 0,0"
   id="path15" />
    </g>
  </g>
</g><g
       inkscape:label=""
       transform="translate(122.06793,87.949203)"
       id="g19"><g
   fill="#000000"
   fill-opacity="1"
   id="g18"
   transform="matrix(0.352778,0,0,0.352778,-1.12201,-0.708422)">
    <g
   id="g17"
   transform="translate(1.993,18.93)">
      <path
   d="m 9.0625,-15.234375 c 0.234375,-0.921875 0.328125,-0.96875 1.296875,-0.96875 h 3.21875 c 2.796875,0 2.796875,2.375 2.796875,2.59375 0,2.015625 -2,4.5625 -5.265625,4.5625 H 7.53125 Z m 4.203125,6.390625 c 2.6875,-0.5 5.140625,-2.375 5.140625,-4.65625 0,-1.9375 -1.703125,-3.421875 -4.5,-3.421875 H 5.953125 c -0.46875,0 -0.703125,0 -0.703125,0.46875 0,0.25 0.234375,0.25 0.59375,0.25 1.515625,0 1.515625,0.1875 1.515625,0.46875 0,0.04687 0,0.203125 -0.09375,0.5625 l -3.34375,13.34375 C 3.6875,-0.96875 3.640625,-0.71875 1.90625,-0.71875 c -0.46875,0 -0.71875,0 -0.71875,0.453125 C 1.1875,0 1.34375,0 1.828125,0 h 8.5 c 3.796875,0 6.71875,-2.875 6.71875,-5.375 0,-2.03125 -1.78125,-3.28125 -3.78125,-3.46875 z m -3.53125,8.125 H 6.390625 C 6.046875,-0.71875 6,-0.71875 5.84375,-0.75 5.578125,-0.765625 5.546875,-0.8125 5.546875,-1.015625 5.546875,-1.1875 5.59375,-1.34375 5.65625,-1.5625 l 1.734375,-6.984375 h 4.65625 c 2.921875,0 2.921875,2.71875 2.921875,2.921875 0,2.375 -2.15625,4.90625 -5.234375,4.90625 z m 0,0"
   id="path16" />
    </g>
  </g>
</g><path
       style="fill:none;stroke:#000000;stroke-width:0.2;stroke-dasharray:none"
       d="M 41.588838,140.52377 H 59.929257"
       id="path19" /><path
       style="fill:none;stroke:#000000;stroke-width:0.2;stroke-dasharray:none"
       d="m 115.20883,140.52377 h 26.47736"
       id="path20" /><path
       style="fill:none;stroke:#000000;stroke-width:0.2;stroke-dasharray:none"
       d="M 65.612202,112.36735 H 89.248095"
       id="path21" /><path
       style="fill:none;stroke:#000000;stroke-width:0.4;stroke-dasharray:none;marker-start:url(#Triangle)"
       id="path22"
       sodipodi:type="arc"
       sodipodi:cx="41.588837"
       sodipodi:cy="140.39461"
       sodipodi:rx="14.853156"
       sodipodi:ry="14.853156"
       sodipodi:start="5.5302115"
       sodipodi:end="0.013788938"
       sodipodi:arc-type="arc"
       d="m 52.426569,130.23785 a 14.853156,14.853156 0 0 1 4.014012,10.36156"
       sodipodi:open="true" /><path
       style="fill:none;stroke:#000000;stroke-width:0.4;stroke-dasharray:none;marker-start:url(#marker25)"
       id="path23"
       sodipodi:type="arc"
       sodipodi:cx="115.20882"
       sodipodi:cy="140.39461"
       sodipodi:rx="13.819893"
       sodipodi:ry="13.819893"
       sodipodi:start="5.004662"
       sodipodi:end="0.010017198"
       sodipodi:arc-type="arc"
       d="m 119.19074,127.1608 a 13.819893,13.819893 0 0 1 9.83728,13.37224"
       sodipodi:open="true" /><path
       style="fill:none;stroke:#000000;stroke-width:0.4;stroke-dasharray:none;marker-start:url(#marker26)"
       id="path24"
       sodipodi:type="arc"
       sodipodi:cx="65.612198"
       sodipodi:cy="112.36735"
       sodipodi:rx="15.240623"
       sodipodi:ry="15.647016"
       sodipodi:start="6.0980898"
       sodipodi:end="0.0078149209"
       sodipodi:arc-type="arc"
       d="m 80.592491,109.48766 a 15.240623,15.647016 0 0 1 0.259865,3.00197"
       sodipodi:open="true" /><g
       inkscape:label=""
       transform="translate(57.862708,129.92245)"
       id="g31"><g
   fill="#000000"
   fill-opacity="1"
   id="g28"
   transform="matrix(0.352778,0,0,0.352778,-1.05035,-0.618023)">
    <g
   id="g27"
   transform="translate(1.993,19.205)">
      <path
   d="m 10.984375,-12.46875 c 0,-2.53125 -0.796875,-4.984375 -2.828125,-4.984375 -3.46875,0 -7.171875,7.265625 -7.171875,12.71875 0,1.140625 0.25,4.984375 2.859375,4.984375 3.375,0 7.140625,-7.09375 7.140625,-12.71875 z m -7.515625,3.5 c 0.375,-1.46875 0.890625,-3.546875 1.890625,-5.3125 0.8125,-1.484375 1.671875,-2.671875 2.765625,-2.671875 0.828125,0 1.359375,0.703125 1.359375,3.078125 0,0.890625 -0.0625,2.125 -0.78125,4.90625 z m 5.0625,0.734375 c -0.625,2.4375 -1.140625,4 -2.03125,5.5625 C 5.78125,-1.40625 4.90625,-0.25 3.859375,-0.25 c -0.765625,0 -1.375,-0.59375 -1.375,-3.046875 0,-1.609375 0.390625,-3.296875 0.78125,-4.9375 z m 0,0"
   id="path27" />
    </g>
  </g>
  <g
   fill="#000000"
   fill-opacity="1"
   id="g30"
   transform="matrix(0.352778,0,0,0.352778,-1.05035,-0.618023)">
    <g
   id="g29"
   transform="translate(13.303,22.923)">
      <path
   d="M 7.1875,-2.671875 H 6.875 c -0.171875,1.21875 -0.3125,1.4375 -0.390625,1.53125 C 6.40625,-1 5.171875,-1 4.921875,-1 H 1.625 c 0.609375,-0.671875 1.8125,-1.890625 3.28125,-3.3125 1.046875,-0.984375 2.28125,-2.15625 2.28125,-3.859375 0,-2.03125 -1.625,-3.203125 -3.4375,-3.203125 -1.890625,0 -3.046875,1.65625 -3.046875,3.21875 0,0.671875 0.5,0.75 0.703125,0.75 0.171875,0 0.6875,-0.09375 0.6875,-0.703125 0,-0.53125 -0.4375,-0.6875 -0.6875,-0.6875 -0.09375,0 -0.203125,0.015625 -0.265625,0.046875 0.328125,-1.453125 1.328125,-2.1875 2.375,-2.1875 1.5,0 2.46875,1.1875 2.46875,2.765625 0,1.484375 -0.875,2.78125 -1.859375,3.90625 l -3.421875,3.875 V 0 h 6.0625 z m 0,0"
   id="path28" />
    </g>
  </g>
</g><g
       inkscape:label=""
       transform="translate(90.66881,106.50675)"
       id="g36"><g
   fill="#000000"
   fill-opacity="1"
   id="g33"
   transform="matrix(0.352778,0,0,0.352778,-1.05035,-0.618023)">
    <g
   id="g32"
   transform="translate(1.993,19.205)">
      <path
   d="m 10.984375,-12.46875 c 0,-2.53125 -0.796875,-4.984375 -2.828125,-4.984375 -3.46875,0 -7.171875,7.265625 -7.171875,12.71875 0,1.140625 0.25,4.984375 2.859375,4.984375 3.375,0 7.140625,-7.09375 7.140625,-12.71875 z m -7.515625,3.5 c 0.375,-1.46875 0.890625,-3.546875 1.890625,-5.3125 0.8125,-1.484375 1.671875,-2.671875 2.765625,-2.671875 0.828125,0 1.359375,0.703125 1.359375,3.078125 0,0.890625 -0.0625,2.125 -0.78125,4.90625 z m 5.0625,0.734375 c -0.625,2.4375 -1.140625,4 -2.03125,5.5625 C 5.78125,-1.40625 4.90625,-0.25 3.859375,-0.25 c -0.765625,0 -1.375,-0.59375 -1.375,-3.046875 0,-1.609375 0.390625,-3.296875 0.78125,-4.9375 z m 0,0"
   id="path31" />
    </g>
  </g>
  <g
   fill="#000000"
   fill-opacity="1"
   id="g35"
   transform="matrix(0.352778,0,0,0.352778,-1.05035,-0.618023)">
    <g
   id="g34"
   transform="translate(13.303,22.923)">
      <path
   d="m 3.8125,-5.859375 c 1.53125,0 2.203125,1.328125 2.203125,2.859375 0,2.0625 -1.109375,2.859375 -2.109375,2.859375 C 3,-0.140625 1.515625,-0.578125 1.046875,-1.90625 1.140625,-1.875 1.21875,-1.875 1.3125,-1.875 c 0.40625,0 0.71875,-0.28125 0.71875,-0.71875 0,-0.5 -0.375,-0.734375 -0.71875,-0.734375 -0.296875,0 -0.75,0.140625 -0.75,0.78125 0,1.578125 1.5625,2.828125 3.375,2.828125 1.921875,0 3.375,-1.5 3.375,-3.265625 0,-1.671875 -1.375,-2.875 -3,-3.0625 1.296875,-0.265625 2.5625,-1.4375 2.5625,-3.015625 0,-1.34375 -1.359375,-2.3125 -2.921875,-2.3125 -1.5625,0 -2.9375,0.953125 -2.9375,2.328125 0,0.609375 0.453125,0.71875 0.671875,0.71875 0.359375,0 0.671875,-0.234375 0.671875,-0.671875 0,-0.453125 -0.3125,-0.671875 -0.671875,-0.671875 -0.0625,0 -0.15625,0 -0.21875,0.03125 0.5,-1.140625 1.859375,-1.34375 2.453125,-1.34375 0.609375,0 1.75,0.296875 1.75,1.9375 0,0.484375 -0.078125,1.34375 -0.65625,2.109375 C 4.5,-6.265625 3.90625,-6.234375 3.34375,-6.1875 c -0.09375,0 -0.484375,0.046875 -0.546875,0.046875 -0.125,0.015625 -0.203125,0.03125 -0.203125,0.15625 0,0.109375 0.03125,0.125 0.375,0.125 z m 0,0"
   id="path33" />
    </g>
  </g>
</g><g
       inkscape:label=""
       transform="translate(128.71707,127.15605)"
       id="g41"><g
   fill="#000000"
   fill-opacity="1"
   id="g38"
   transform="matrix(0.352778,0,0,0.352778,-1.05035,-0.618023)">
    <g
   id="g37"
   transform="translate(1.993,19.205)">
      <path
   d="m 10.984375,-12.46875 c 0,-2.53125 -0.796875,-4.984375 -2.828125,-4.984375 -3.46875,0 -7.171875,7.265625 -7.171875,12.71875 0,1.140625 0.25,4.984375 2.859375,4.984375 3.375,0 7.140625,-7.09375 7.140625,-12.71875 z m -7.515625,3.5 c 0.375,-1.46875 0.890625,-3.546875 1.890625,-5.3125 0.8125,-1.484375 1.671875,-2.671875 2.765625,-2.671875 0.828125,0 1.359375,0.703125 1.359375,3.078125 0,0.890625 -0.0625,2.125 -0.78125,4.90625 z m 5.0625,0.734375 c -0.625,2.4375 -1.140625,4 -2.03125,5.5625 C 5.78125,-1.40625 4.90625,-0.25 3.859375,-0.25 c -0.765625,0 -1.375,-0.59375 -1.375,-3.046875 0,-1.609375 0.390625,-3.296875 0.78125,-4.9375 z m 0,0"
   id="path36" />
    </g>
  </g>
  <g
   fill="#000000"
   fill-opacity="1"
   id="g40"
   transform="matrix(0.352778,0,0,0.352778,-1.05035,-0.618023)">
    <g
   id="g39"
   transform="translate(13.303,22.923)">
      <path
   d="m 5.78125,-11.140625 c 0,-0.359375 -0.015625,-0.375 -0.328125,-0.375 L 0.34375,-3.375 v 0.453125 h 4.4375 v 1.6875 c 0,0.609375 -0.03125,0.78125 -1.234375,0.78125 H 3.21875 V 0 c 0.546875,-0.03125 1.484375,-0.03125 2.0625,-0.03125 0.59375,0 1.515625,0 2.078125,0.03125 V -0.453125 H 7.03125 c -1.21875,0 -1.25,-0.171875 -1.25,-0.78125 v -1.6875 H 7.546875 V -3.375 H 5.78125 Z M 4.84375,-10 v 6.625 H 0.6875 Z m 0,0"
   id="path38" />
    </g>
  </g>
</g><g
       inkscape:label=""
       transform="translate(48.676098,121.21479)"
       id="g44"><g
   fill="#000000"
   fill-opacity="1"
   id="g43"
   transform="matrix(0.352778,0,0,0.352778,-1.05035,-0.614583)">
    <g
   id="g42"
   transform="translate(1.993,12.664)">
      <path
   d="m 7.453125,-2.953125 c -0.125,0.421875 -0.125,0.46875 -0.46875,0.953125 -0.546875,0.6875 -1.625,1.75 -2.796875,1.75 -1.015625,0 -1.578125,-0.921875 -1.578125,-2.375 0,-1.359375 0.765625,-4.140625 1.234375,-5.1875 0.84375,-1.734375 2,-2.625 2.96875,-2.625 1.640625,0 1.953125,2.03125 1.953125,2.234375 0,0.03125 -0.0625,0.34375 -0.09375,0.390625 z m 1.59375,-6.34375 c -0.28125,-0.640625 -0.9375,-1.625 -2.234375,-1.625 -2.796875,0 -5.828125,3.609375 -5.828125,7.28125 0,2.453125 1.4375,3.890625 3.125,3.890625 1.375,0 2.53125,-1.0625 3.21875,-1.890625 C 7.578125,-0.171875 8.75,0.25 9.484375,0.25 c 0.75,0 1.34375,-0.453125 1.796875,-1.34375 0.390625,-0.84375 0.734375,-2.34375 0.734375,-2.453125 0,-0.125 -0.09375,-0.21875 -0.25,-0.21875 -0.21875,0 -0.25,0.125 -0.34375,0.5 C 11.046875,-1.8125 10.578125,-0.25 9.5625,-0.25 c -0.71875,0 -0.765625,-0.640625 -0.765625,-1.140625 0,-0.5625 0.078125,-0.84375 0.296875,-1.8125 0.171875,-0.609375 0.296875,-1.15625 0.5,-1.875 0.90625,-3.71875 1.140625,-4.609375 1.140625,-4.765625 0,-0.34375 -0.28125,-0.609375 -0.640625,-0.609375 -0.796875,0 -1,0.859375 -1.046875,1.15625 z m 0,0"
   id="path41" />
    </g>
  </g>
</g><g
       inkscape:label=""
       transform="translate(87.682643,96.545635)"
       id="g47"><g
   fill="#000000"
   fill-opacity="1"
   id="g46"
   transform="matrix(0.352778,0,0,0.352778,-1.09445,-0.706217)">
    <g
   id="g45"
   transform="translate(1.993,19.205)">
      <path
   d="m 5.71875,-16.578125 c 0.03125,-0.09375 0.078125,-0.25 0.078125,-0.375 0,-0.25 -0.25,-0.25 -0.296875,-0.25 -0.015625,0 -0.921875,0.07813 -1.359375,0.125 C 3.71875,-17.046875 3.34375,-17 2.90625,-16.96875 c -0.609375,0.04687 -0.78125,0.0625 -0.78125,0.515625 0,0.25 0.25,0.25 0.5,0.25 1.265625,0 1.265625,0.21875 1.265625,0.46875 0,0.171875 -0.203125,0.890625 -0.296875,1.34375 L 3,-12.015625 c -0.25,0.984375 -1.65625,6.609375 -1.765625,7.0625 -0.125,0.609375 -0.125,1.03125 -0.125,1.359375 0,2.53125 1.421875,3.84375 3.03125,3.84375 2.875,0 5.84375,-3.6875 5.84375,-7.28125 0,-2.28125 -1.28125,-3.890625 -3.140625,-3.890625 -1.296875,0 -2.453125,1.0625 -2.921875,1.546875 z M 4.15625,-0.25 C 3.375,-0.25 2.5,-0.84375 2.5,-2.78125 2.5,-3.59375 2.578125,-4.0625 3.015625,-5.796875 3.09375,-6.125 3.5,-7.703125 3.59375,-8.03125 3.640625,-8.234375 5.109375,-10.4375 6.796875,-10.4375 7.875,-10.4375 8.375,-9.34375 8.375,-8.046875 8.375,-6.859375 7.6875,-4.0625 7.0625,-2.78125 6.4375,-1.4375 5.296875,-0.25 4.15625,-0.25 Z m 0,0"
   id="path44" />
    </g>
  </g>
</g><g
       inkscape:label=""
       transform="translate(120.57665,118.24416)"
       id="g50"><g
   fill="#000000"
   fill-opacity="1"
   id="g49"
   transform="matrix(0.352778,0,0,0.352778,-1.05035,-0.614583)">
    <g
   id="g48"
   transform="translate(1.993,12.664)">
      <path
   d="m 9.6875,-9.3125 c -0.46875,0 -0.6875,0 -1.03125,0.296875 C 8.5,-8.890625 8.234375,-8.53125 8.234375,-8.125 c 0,0.5 0.359375,0.796875 0.828125,0.796875 0.609375,0 1.265625,-0.5 1.265625,-1.5 0,-1.1875 -1.140625,-2.09375 -2.84375,-2.09375 -3.25,0 -6.5,3.53125 -6.5,7.0625 0,2.15625 1.34375,4.109375 3.875,4.109375 3.375,0 5.5,-2.625 5.5,-2.953125 0,-0.140625 -0.15625,-0.265625 -0.25,-0.265625 -0.07813,0 -0.09375,0.015625 -0.328125,0.25 C 8.203125,-0.625 5.84375,-0.25 4.90625,-0.25 c -1.703125,0 -2.25,-1.484375 -2.25,-2.71875 0,-0.875 0.421875,-3.28125 1.3125,-4.96875 0.640625,-1.15625 1.984375,-2.5 3.546875,-2.5 0.3125,0 1.671875,0.04687 2.171875,1.125 z m 0,0"
   id="path47" />
    </g>
  </g>
</g><path
       style="fill:none;stroke:#000000;stroke-width:0.2;stroke-dasharray:none"
       d="m 41.542276,147.23797 v 27.51264"
       id="path50" /><path
       style="fill:none;stroke:#000000;stroke-width:0.2;stroke-dasharray:none"
       d="m 115.09647,146.81117 -0.0168,27.93944"
       id="path51" /><path
       style="fill:none;stroke:#000000;stroke-width:0.2;stroke-dasharray:none;marker-start:url(#marker26);marker-end:url(#marker26)"
       d="m 42.288065,170.74672 72.145815,0.25831"
       id="path52"
       sodipodi:nodetypes="cc" /><g
       inkscape:label=""
       transform="translate(78.269653,162.54531)"
       id="g55"><g
   fill="#000000"
   fill-opacity="1"
   id="g54"
   transform="matrix(0.352778,0,0,0.352778,-1.05035,-0.706217)">
    <g
   id="g53"
   transform="translate(1.993,19.205)">
      <path
   d="m 12.46875,-16.578125 c 0.01563,-0.09375 0.07813,-0.25 0.07813,-0.375 0,-0.25 -0.25,-0.25 -0.3125,-0.25 -0.01563,0 -1.234375,0.109375 -1.359375,0.125 -0.421875,0.03125 -0.78125,0.07813 -1.234375,0.109375 -0.625,0.04687 -0.796875,0.0625 -0.796875,0.515625 0,0.25 0.203125,0.25 0.546875,0.25 1.21875,0 1.234375,0.21875 1.234375,0.46875 0,0.140625 -0.04687,0.34375 -0.0625,0.421875 L 9.04688,-9.296875 c -0.28125,-0.640625 -0.9375,-1.625 -2.234375,-1.625 -2.796875,0 -5.828125,3.609375 -5.828125,7.28125 0,2.453125 1.4375,3.890625 3.125,3.890625 1.375,0 2.53125,-1.0625 3.21875,-1.890625 C 7.578125,-0.171875 8.75,0.25 9.484375,0.25 c 0.75,0 1.34375,-0.453125 1.796875,-1.34375 0.390625,-0.84375 0.734375,-2.34375 0.734375,-2.453125 0,-0.125 -0.09375,-0.21875 -0.25,-0.21875 -0.21875,0 -0.25,0.125 -0.34375,0.5 C 11.046875,-1.8125 10.578125,-0.25 9.5625,-0.25 c -0.71875,0 -0.765625,-0.640625 -0.765625,-1.140625 0,-0.09375 0,-0.609375 0.171875,-1.3125 z m -5.015625,13.625 c -0.125,0.421875 -0.125,0.46875 -0.46875,0.953125 -0.546875,0.6875 -1.625,1.75 -2.796875,1.75 -1.015625,0 -1.578125,-0.921875 -1.578125,-2.375 0,-1.359375 0.765625,-4.140625 1.234375,-5.1875 0.84375,-1.734375 2,-2.625 2.96875,-2.625 1.640625,0 1.953125,2.03125 1.953125,2.234375 0,0.03125 -0.0625,0.34375 -0.09375,0.390625 z m 0,0"
   id="path53" />
    </g>
  </g>
</g></g></svg>
