<?xml version="1.0" encoding="UTF-8" standalone="no"?>
<!-- Created with Inkscape (http://www.inkscape.org/) -->

<svg
   width="107.82746mm"
   height="111.88239mm"
   viewBox="0 0 107.82746 111.88239"
   version="1.1"
   id="svg1"
   xml:space="preserve"
   inkscape:version="1.3.2 (091e20e, 2023-11-25, custom)"
   sodipodi:docname="5barras_eng.svg"
   inkscape:export-filename="5barras_eng.png"
   inkscape:export-xdpi="96"
   inkscape:export-ydpi="96"
   xmlns:inkscape="http://www.inkscape.org/namespaces/inkscape"
   xmlns:sodipodi="http://sodipodi.sourceforge.net/DTD/sodipodi-0.dtd"
   xmlns="http://www.w3.org/2000/svg"
   xmlns:svg="http://www.w3.org/2000/svg"><sodipodi:namedview
     id="namedview1"
     pagecolor="#ffffff"
     bordercolor="#000000"
     borderopacity="0.25"
     inkscape:showpageshadow="2"
     inkscape:pageopacity="0.0"
     inkscape:pagecheckerboard="0"
     inkscape:deskcolor="#d1d1d1"
     inkscape:document-units="mm"
     showguides="true"
     inkscape:zoom="1.4485269"
     inkscape:cx="245.07656"
     inkscape:cy="202.61964"
     inkscape:window-width="1920"
     inkscape:window-height="1009"
     inkscape:window-x="1912"
     inkscape:window-y="-8"
     inkscape:window-maximized="1"
     inkscape:current-layer="layer1"
     inkscape:export-bgcolor="#ffffffff"><sodipodi:guide
       position="70.573348,271.38507"
       orientation="0,-1"
       id="guide8"
       inkscape:locked="false" /></sodipodi:namedview><defs
     id="defs1" /><g
     inkscape:label="Camada 1"
     inkscape:groupmode="layer"
     id="layer1"
     transform="translate(-29.522592,-76.307576)"><g
       id="g19"
       transform="rotate(-103.07245,79.237655,96.744767)"
       inkscape:transform-center-x="5.5360773"
       inkscape:transform-center-y="-23.841705"><g
         id="g20"
         transform="rotate(63.653352,106.68287,77.940061)"
         inkscape:transform-center-x="-18.519578"
         inkscape:transform-center-y="-15.286602"><rect
           style="fill:none;stroke:#000000;stroke-width:0.4"
           id="rect15"
           width="40.732475"
           height="6.0276752"
           x="79.638382"
           y="98.634682" /><circle
           style="fill:#ffffff;stroke:#000000;stroke-width:0.4"
           id="circle16"
           cx="124.12064"
           cy="102.10518"
           r="5.1143913" /><circle
           style="fill:#ffffff;stroke:#000000;stroke-width:0.4"
           id="circle17"
           cx="75.437263"
           cy="102.10518"
           r="5.1143913" /><circle
           style="fill:#ffffff;stroke:#000000;stroke-width:0.4"
           id="circle18"
           cx="75.437263"
           cy="102.10518"
           r="2.7398527" /><circle
           style="fill:#ffffff;stroke:#000000;stroke-width:0.4"
           id="circle19"
           cx="124.12062"
           cy="102.10518"
           r="2.7398527" /></g><g
         id="g23"
         transform="rotate(-35.493579,115.71063,150.40722)"
         inkscape:transform-center-x="18.036211"
         inkscape:transform-center-y="-15.854026"><g
           inkscape:label="Rendered Gears"
           transform="matrix(-0.98339017,0.8680109,-0.86870145,-0.9841725,91.60584,23.154748)"
           id="g25"
           style="stroke-width:0.76208"><path
             style="fill:none;stroke:#000000;stroke-width:0.201633"
             d="m 17.6249,-1.46978 0.5144,-0.0429 1.186,0.19079 1.7211,0.7232 v 1.19738 l -1.7211,0.7232 -1.186,0.19079 -0.5144,-0.0429 -0.257,1.87008 0.5069,0.09749 1.0905,0.50369 1.4621,1.16071 -0.323,1.15298 -1.8523,0.23205 -1.1935,-0.13626 -0.4838,-0.18009 -0.7521,1.73138 0.4619,0.23063 0.9142,0.77924 1.0947,1.51212 -0.6221,1.0231 -1.8463,-0.2763 -1.1125,-0.4532 -0.4172,-0.304 -1.1913,1.4643 0.3825,0.3467 0.6701,0.997 0.6461,1.7514 -0.8751,0.8173 -1.7032,-0.7642 -0.949,-0.7365 -0.3197,-0.4053 -1.54219,1.0886 0.27475,0.437 0.37624,1.1408 0.1497,1.8608 -1.06317,0.5509 -1.43391,-1.1954 -0.71503,-0.9652 -0.19858,-0.4765 -1.77867,0.6321 0.14666,0.495 0.05449,1.2 L 4.86818,20.4843 3.69584,20.728 2.63761,19.1901 2.20951,18.0677 2.14685,17.5553 0.26359,17.6841 0.27128,18.2003 0,19.3705 l -0.83896,1.6677 -1.19459,-0.0818 -0.60406,-1.7663 -0.10942,-1.1963 0.07791,-0.5103 -1.84818,-0.384 -0.13185,0.499 -0.57694,1.0537 -1.25779,1.3794 -1.12824,-0.4009 -0.1051,-1.8639 0.21738,-1.1814 0.2127,-0.4703 -1.67603,-0.8685 -0.26161,0.445 -0.83982,0.8589 -1.5833,0.989 -0.9782,-0.6905 0.4016,-1.8231 0.5281,-1.0789 0.3317,-0.3956 -1.3796,-1.2884 -0.372,0.3579 -1.0404,0.6005 -1.7914,0.5251 -0.7556,-0.9288 0.8786,-1.6471 0.7996,-0.8965 0.4261,-0.29136 -0.9808,-1.61285 -0.4547,0.24429 -1.1639,0.2975 -1.8666,0.02234 -0.4771,-1.09825 1.2904,-1.34899 1.0118,-0.6475 0.489,-0.1656 -0.5093,-1.81766 -0.5038,0.11255 -1.2009,-0.02753 -1.8035,-0.48211 -0.1631,-1.18623 1.6066,-0.95081 1.1489,-0.35051 0.5155,-0.02755 v -1.88766 l -0.5155,-0.02755 -1.1489,-0.35051 -1.6066,-0.95081 0.1631,-1.18623 1.8035,-0.48211 1.2009,-0.02753 0.5038,0.11255 0.5093,-1.81766 -0.489,-0.1656 -1.0118,-0.6475 -1.2904,-1.34899 0.4771,-1.09825 1.8666,0.02234 1.1639,0.2975 0.4547,0.24429 0.9808,-1.61285 -0.4261,-0.29136 -0.7996,-0.8965 -0.8786,-1.6471 0.7556,-0.9288 1.7914,0.5251 1.0404,0.6005 0.372,0.3579 1.3796,-1.2884 -0.3317,-0.3956 -0.5281,-1.0789 -0.4016,-1.8231 0.9782,-0.6905 1.5833,0.989 0.83982,0.8589 0.26161,0.445 1.67603,-0.8685 -0.2127,-0.4703 -0.21738,-1.1814 0.1051,-1.8639 1.12824,-0.4009 1.25779,1.3794 0.57694,1.0537 0.13185,0.499 1.84818,-0.384 -0.07791,-0.5103 0.10942,-1.1963 0.60406,-1.7663 1.19459,-0.0818 0.83896,1.6677 0.27128,1.1702 -0.00769,0.5162 1.88326,0.1288 0.06266,-0.5124 0.4281,-1.1224 1.05823,-1.5379 1.17234,0.2437 0.35791,1.8321 -0.05449,1.2 -0.14666,0.495 1.77867,0.6321 0.19858,-0.4765 0.71503,-0.9652 1.43391,-1.1954 1.06317,0.5509 -0.1497,1.8608 -0.37624,1.1408 -0.27475,0.437 1.54219,1.0886 0.3197,-0.4053 0.949,-0.7365 1.7032,-0.7642 0.8751,0.8173 -0.6461,1.7514 -0.6701,0.997 -0.3825,0.3467 1.1913,1.4643 0.4172,-0.304 1.1125,-0.4532 1.8463,-0.2763 0.6221,1.0231 -1.0947,1.51212 -0.9142,0.77924 -0.4619,0.23063 0.7521,1.73138 0.4838,-0.18009 1.1935,-0.13626 1.8523,0.23205 0.323,1.15298 -1.4621,1.16071 -1.0905,0.50369 -0.5069,0.09749 z"
             id="path24" /><circle
             style="fill:none;stroke:#000000;stroke-width:0.201633"
             id="path25"
             cx="0"
             cy="0"
             r="2.6458333" /></g><g
           id="g24"
           inkscape:transform-center-x="18.878897"
           inkscape:transform-center-y="-15.131098"
           transform="rotate(-2.9219888,75.584826,102.0209)"><rect
             style="fill:none;stroke:#000000;stroke-width:0.4"
             id="rect20"
             width="40.732475"
             height="6.0276752"
             x="79.638382"
             y="98.634682" /><circle
             style="fill:#ffffff;stroke:#000000;stroke-width:0.4"
             id="circle20"
             cx="124.12064"
             cy="102.10518"
             r="5.1143913" /><circle
             style="fill:#ffffff;stroke:#000000;stroke-width:0.4"
             id="circle21"
             cx="75.437263"
             cy="102.10518"
             r="5.1143913" /><circle
             style="fill:#ffffff;stroke:#000000;stroke-width:0.4"
             id="circle22"
             cx="75.437263"
             cy="102.10518"
             r="2.7398527" /><circle
             style="fill:#ffffff;stroke:#000000;stroke-width:0.4"
             id="circle23"
             cx="124.12062"
             cy="102.10518"
             r="2.7398527" /></g><g
           inkscape:label="Rendered Gears"
           transform="matrix(-0.92046049,0.81246464,-0.81296697,-0.9210296,50.86913,60.444238)"
           id="g26"
           style="stroke-width:0.814253"><path
             style="fill:none;stroke:#000000;stroke-width:0.215437"
             d="m 16.608315,-1.6027442 0.549568,-0.045841 1.267084,0.20387 1.838768,0.77278038 v 1.27946866 l -1.838768,0.77278026 -1.267084,0.20387 -0.549568,-0.045841 -0.27457,1.9982869 0.541555,0.1041736 1.165055,0.5382215 1.56206,1.2402846 -0.345082,1.2320248 -1.978938,0.2479586 -1.275097,-0.1456016 -0.516876,-0.1924364 -0.803519,1.8500781 0.493479,0.2464412 0.976702,0.8326623 1.169542,1.6157863 -0.664632,1.09324 -1.972527,-0.295242 -1.188559,-0.48427 -0.445723,-0.324841 -1.272746,1.564688 0.40865,0.370468 0.715914,1.065352 0.690272,1.87147 -0.934929,0.873332 -1.819643,-0.816592 -1.0138813,-0.786992 -0.3415571,-0.433086 -1.6476258,1.163231 0.293534,0.46696 0.4019626,1.219009 0.1599346,1.988371 -1.1358564,0.588668 -1.5319429,-1.277353 -0.7639149,-1.031371 -0.2121565,-0.509167 -1.9002734,0.675434 0.1566868,0.528936 0.058215,1.282268 -0.3823795,1.957703 -1.2524901,0.260408 -1.13057859,-1.643334 -0.45736817,-1.199348 -0.06694392,-0.547529 -2.01201392,0.13763 0.00822,0.55159 -0.2898268,1.250425 -0.8963176,1.782032 -1.2762613,-0.08741 -0.6453581,-1.887392 -0.1169008,-1.278314 0.083236,-0.545285 -1.9745356,-0.410326 -0.1408643,0.53321 -0.616384,1.125938 -1.343782,1.473968 -1.205375,-0.428385 -0.112286,-1.991683 0.232242,-1.262393 0.227242,-0.502542 -1.790616,-0.928042 -0.279496,0.475508 -0.897237,0.917783 -1.691546,1.056803 -1.045077,-0.737838 0.429056,-1.948087 0.564205,-1.152866 0.354378,-0.422721 -1.47392,-1.376728 -0.397433,0.382436 -1.11153,0.641669 -1.913873,0.561099 -0.807259,-0.992476 0.938668,-1.76002 0.854267,-0.957961 0.455231,-0.311335 -1.047855,-1.7234217 -0.485787,0.2610377 -1.243473,0.3178957 -1.994215,0.023872 -0.509718,-1.1735426 1.378622,-1.4414726 1.080974,-0.6918906 0.522432,-0.176953 -0.54412,-1.9422732 -0.538243,0.1202661 -1.283003,-0.029417 -1.926801,-0.515162 -0.174251,-1.2675543 1.71644,-1.0159946 1.227447,-0.3745398 0.550744,-0.0294387 v -2.017071 l -0.550744,-0.029439 -1.227447,-0.3745399 -1.71644,-1.0159946 0.174251,-1.2675543 1.926801,-0.5151619 1.283003,-0.029417 0.538243,0.1202661 0.54412,-1.9422731 -0.522432,-0.1769531 -1.080974,-0.6918906 -1.378622,-1.4414725 0.509718,-1.1735426 1.994215,0.023872 1.243473,0.3178957 0.485787,0.2610378 1.047855,-1.7234214 -0.455231,-0.311335 -0.854267,-0.957961 -0.938668,-1.76002 0.807259,-0.992476 1.913873,0.561099 1.11153,0.641669 0.397433,0.382436 1.47392,-1.376729 -0.354378,-0.422721 -0.564205,-1.152866 -0.429056,-1.948086 1.045077,-0.737838 1.691546,1.056802 0.897237,0.917784 0.279496,0.475508 1.790616,-0.928042 -0.227242,-0.502542 -0.232242,-1.262393 0.112286,-1.991684 1.205375,-0.428384 1.343782,1.473967 0.616384,1.125939 0.1408643,0.53321 1.9745356,-0.410326 -0.083236,-0.545285 0.1169008,-1.278314 0.6453581,-1.887392 1.2762613,-0.08741 0.8963176,1.782032 0.2898268,1.250425 -0.00822,0.551589 2.01201392,0.13763 0.06694392,-0.547528 0.45736817,-1.199348 1.13057859,-1.643334 1.2524901,0.260407 0.3823795,1.957703 -0.058215,1.282269 -0.1566868,0.528935 1.9002734,0.675435 0.2121565,-0.509167 0.7639149,-1.031371 1.5319429,-1.277353 1.1358564,0.588668 -0.1599346,1.98837 -0.4019626,1.21901 -0.293534,0.466959 1.6476258,1.163232 0.3415571,-0.433087 1.0138813,-0.786992 1.819643,-0.816591 0.934929,0.873332 -0.690272,1.87147 -0.715914,1.065351 -0.40865,0.370469 1.272746,1.564688 0.445723,-0.324841 1.188559,-0.48427 1.972527,-0.295243 0.664632,1.093241 -1.169542,1.6157859 -0.976702,0.8326623 -0.493479,0.2464413 0.803519,1.850078 0.516876,-0.1924364 1.275097,-0.1456016 1.978938,0.2479587 0.345082,1.2320247 -1.56206,1.2402847 -1.165055,0.5382214 -0.541555,0.1041736 z"
             id="path26" /><ellipse
             style="fill:none;stroke:#000000;stroke-width:0.215437"
             id="circle26"
             cx="-2.2215571"
             cy="-0.032200594"
             rx="2.8267226"
             ry="2.8272233" /></g></g></g><g
       inkscape:label="Layer 1"
       id="layer1-8"
       transform="matrix(0.48144871,0,0,0.4788333,29.357491,93.996979)"
       style="stroke-width:2.08273"><path
         id="path839"
         style="fill:#ffffff;stroke:#000000;stroke-width:5.51021;stroke-linejoin:bevel;stroke-miterlimit:4;stroke-dasharray:none"
         d="M 219.92383,480 A 39.999999,39.999999 0 0 0 180,520 a 39.999999,39.999999 0 0 0 0,0.0762 V 590 h 80 v -70 a 39.999999,39.999999 0 0 0 -40,-40 39.999999,39.999999 0 0 0 -0.0762,0 z"
         transform="scale(0.26458333)" /><path
         style="fill:none;stroke:#000000;stroke-width:1.45791;stroke-linecap:butt;stroke-linejoin:miter;stroke-miterlimit:4;stroke-dasharray:none;stroke-opacity:1"
         d="M 22.489583,156.10416 H 99.218749"
         id="path850" /><path
         style="fill:none;stroke:#000000;stroke-width:1.45791;stroke-linecap:butt;stroke-linejoin:miter;stroke-miterlimit:4;stroke-dasharray:none;stroke-opacity:1"
         d="m 22.489583,156.10416 9.929222,17.19792"
         id="path852" /><path
         style="fill:none;stroke:#000000;stroke-width:1.45791;stroke-linecap:butt;stroke-linejoin:miter;stroke-miterlimit:4;stroke-dasharray:none;stroke-opacity:1"
         d="m 39.952094,156.10416 9.929222,17.19792"
         id="path854" /><path
         style="fill:none;stroke:#000000;stroke-width:1.45791;stroke-linecap:butt;stroke-linejoin:miter;stroke-miterlimit:4;stroke-dasharray:none;stroke-opacity:1"
         d="m 56.885438,156.10416 9.929222,17.19792"
         id="path856" /><path
         style="fill:none;stroke:#000000;stroke-width:1.45791;stroke-linecap:butt;stroke-linejoin:miter;stroke-miterlimit:4;stroke-dasharray:none;stroke-opacity:1"
         d="m 74.347949,156.10416 9.929222,17.19792"
         id="path858" /><path
         style="fill:none;stroke:#000000;stroke-width:1.45791;stroke-linecap:butt;stroke-linejoin:miter;stroke-miterlimit:4;stroke-dasharray:none;stroke-opacity:1"
         d="m 91.81046,156.10416 9.92923,17.19792"
         id="path860" /><circle
         style="fill:#ffffff;stroke:#000000;stroke-width:1.45791;stroke-linejoin:bevel"
         id="path1592"
         cx="58.266396"
         cy="137.45695"
         r="3.6994057" /></g><g
       inkscape:label="Layer 1"
       id="g7"
       transform="matrix(0.48144871,0,0,0.4788333,81.745024,93.996979)"
       style="stroke-width:2.08273"><path
         id="path1"
         style="fill:#ffffff;stroke:#000000;stroke-width:5.51021;stroke-linejoin:bevel;stroke-miterlimit:4;stroke-dasharray:none"
         d="M 219.92383,480 A 39.999999,39.999999 0 0 0 180,520 a 39.999999,39.999999 0 0 0 0,0.0762 V 590 h 80 v -70 a 39.999999,39.999999 0 0 0 -40,-40 39.999999,39.999999 0 0 0 -0.0762,0 z"
         transform="scale(0.26458333)" /><path
         style="fill:none;stroke:#000000;stroke-width:1.45791;stroke-linecap:butt;stroke-linejoin:miter;stroke-miterlimit:4;stroke-dasharray:none;stroke-opacity:1"
         d="M 22.489583,156.10416 H 99.218749"
         id="path2" /><path
         style="fill:none;stroke:#000000;stroke-width:1.45791;stroke-linecap:butt;stroke-linejoin:miter;stroke-miterlimit:4;stroke-dasharray:none;stroke-opacity:1"
         d="m 22.489583,156.10416 9.929222,17.19792"
         id="path3" /><path
         style="fill:none;stroke:#000000;stroke-width:1.45791;stroke-linecap:butt;stroke-linejoin:miter;stroke-miterlimit:4;stroke-dasharray:none;stroke-opacity:1"
         d="m 39.952094,156.10416 9.929222,17.19792"
         id="path4" /><path
         style="fill:none;stroke:#000000;stroke-width:1.45791;stroke-linecap:butt;stroke-linejoin:miter;stroke-miterlimit:4;stroke-dasharray:none;stroke-opacity:1"
         d="m 56.885438,156.10416 9.929222,17.19792"
         id="path5" /><path
         style="fill:none;stroke:#000000;stroke-width:1.45791;stroke-linecap:butt;stroke-linejoin:miter;stroke-miterlimit:4;stroke-dasharray:none;stroke-opacity:1"
         d="m 74.347949,156.10416 9.929222,17.19792"
         id="path6" /><path
         style="fill:none;stroke:#000000;stroke-width:1.45791;stroke-linecap:butt;stroke-linejoin:miter;stroke-miterlimit:4;stroke-dasharray:none;stroke-opacity:1"
         d="m 91.81046,156.10416 9.92923,17.19792"
         id="path7" /><circle
         style="fill:#ffffff;stroke:#000000;stroke-width:1.45791;stroke-linejoin:bevel"
         id="circle7"
         cx="58.266396"
         cy="137.45695"
         r="3.6994057" /></g><g
       id="g11"
       transform="rotate(-103.07248,89.405395,138.42156)"
       inkscape:transform-center-x="5.5360773"
       inkscape:transform-center-y="-23.841705"
       style="fill:#ffffff"><rect
         style="fill:#ffffff;stroke:#000000;stroke-width:0.4"
         id="rect8"
         width="40.732475"
         height="6.0276752"
         x="79.638382"
         y="98.634682" /><circle
         style="fill:#ffffff;stroke:#000000;stroke-width:0.4"
         id="circle9"
         cx="124.12064"
         cy="102.10518"
         r="5.1143913" /><circle
         style="fill:#ffffff;stroke:#000000;stroke-width:0.4"
         id="path8"
         cx="75.437263"
         cy="102.10518"
         r="5.1143913" /><circle
         style="fill:#ffffff;stroke:#000000;stroke-width:0.4"
         id="circle10"
         cx="75.437263"
         cy="102.10518"
         r="2.7398527" /><circle
         style="fill:#ffffff;stroke:#000000;stroke-width:0.4"
         id="circle11"
         cx="124.12062"
         cy="102.10518"
         r="2.7398527" /></g><g
       id="g15"
       transform="rotate(-76.511047,128.84222,109.00691)"
       inkscape:transform-center-x="-5.7092179"
       inkscape:transform-center-y="-23.80084"
       style="fill:#ffffff"><rect
         style="fill:#ffffff;stroke:#000000;stroke-width:0.4"
         id="rect11"
         width="40.732475"
         height="6.0276752"
         x="79.638382"
         y="98.634682" /><circle
         style="fill:#ffffff;stroke:#000000;stroke-width:0.4"
         id="circle12"
         cx="124.12064"
         cy="102.10518"
         r="5.1143913" /><circle
         style="fill:#ffffff;stroke:#000000;stroke-width:0.4"
         id="circle13"
         cx="75.437263"
         cy="102.10518"
         r="5.1143913" /><circle
         style="fill:#ffffff;stroke:#000000;stroke-width:0.4"
         id="circle14"
         cx="75.437263"
         cy="102.10518"
         r="2.7398527" /><circle
         style="fill:#ffffff;stroke:#000000;stroke-width:0.4"
         id="circle15"
         cx="124.12062"
         cy="102.10518"
         r="2.7398527" /></g><circle
       id="path27"
       style="fill:#ffffff;stroke:#000000;stroke-width:0.264583"
       cx="56.166977"
       cy="144.29889"
       r="0.018390963" /><path
       style="fill:#1a1a1a;stroke:#000000;stroke-width:0.4"
       d="m 56.075645,143.93358 6.027674,2.92251 -3.744462,7.03228 z"
       id="path28" /><path
       style="fill:#1a1a1a;stroke:#000000;stroke-width:0.4"
       d="m 49.865314,144.75553 -3.105166,5.20572 5.571032,5.57104"
       id="path29" /><path
       style="fill:#1a1a1a;stroke:#000000;stroke-width:0.4"
       d="m 109.68542,144.02491 -4.65775,4.01845 2.46587,5.66236"
       id="path30" /><path
       style="fill:#1a1a1a;stroke:#000000;stroke-width:0.4"
       d="m 115.7131,144.84686 3.74446,5.47971 -6.30166,5.02306"
       id="path31" /></g></svg>
