<?xml version="1.0" encoding="UTF-8" standalone="no"?>
<!-- Created with Inkscape (http://www.inkscape.org/) -->

<svg
   width="218.05092mm"
   height="84.705154mm"
   viewBox="0 0 218.05092 84.705154"
   version="1.1"
   id="svg1"
   xml:space="preserve"
   inkscape:version="1.3.2 (091e20e, 2023-11-25, custom)"
   sodipodi:docname="biela-manivela.svg"
   inkscape:export-filename="biela-manivela.png"
   inkscape:export-xdpi="96"
   inkscape:export-ydpi="96"
   xmlns:inkscape="http://www.inkscape.org/namespaces/inkscape"
   xmlns:sodipodi="http://sodipodi.sourceforge.net/DTD/sodipodi-0.dtd"
   xmlns="http://www.w3.org/2000/svg"
   xmlns:svg="http://www.w3.org/2000/svg"><sodipodi:namedview
     id="namedview1"
     pagecolor="#ffffff"
     bordercolor="#000000"
     borderopacity="0.25"
     inkscape:showpageshadow="2"
     inkscape:pageopacity="0.0"
     inkscape:pagecheckerboard="0"
     inkscape:deskcolor="#d1d1d1"
     inkscape:document-units="mm"
     inkscape:zoom="0.72426347"
     inkscape:cx="208.48767"
     inkscape:cy="289.25938"
     inkscape:window-width="1920"
     inkscape:window-height="1009"
     inkscape:window-x="1912"
     inkscape:window-y="-8"
     inkscape:window-maximized="1"
     inkscape:current-layer="layer1"
     inkscape:export-bgcolor="#ffffffff" /><defs
     id="defs1"><marker
       style="overflow:visible"
       id="Triangle"
       refX="0"
       refY="0"
       orient="auto-start-reverse"
       inkscape:stockid="Triangle arrow"
       markerWidth="1"
       markerHeight="1"
       viewBox="0 0 1 1"
       inkscape:isstock="true"
       inkscape:collect="always"
       preserveAspectRatio="xMidYMid"><path
         transform="scale(0.5)"
         style="fill:context-stroke;fill-rule:evenodd;stroke:context-stroke;stroke-width:1pt"
         d="M 5.77,0 -2.88,5 V -5 Z"
         id="path135" /></marker></defs><g
     inkscape:label="Camada 1"
     inkscape:groupmode="layer"
     id="layer1"
     transform="translate(-4.6401031,-93.784037)"><path
       id="path839"
       style="fill:#ffffff;stroke:#000000;stroke-width:1.2;stroke-linejoin:bevel;stroke-miterlimit:4;stroke-dasharray:none"
       d="m 40.641808,132.01211 a 10.583333,10.583333 0 0 0 -10.56318,10.58333 10.583333,10.583333 0 0 0 0,0.0202 v 18.50067 h 21.166667 v -18.52083 a 10.583333,10.583333 0 0 0 -10.583333,-10.58333 10.583333,10.583333 0 0 0 -0.02016,0 z" /><g
       id="g2"><path
         style="fill:none;stroke:#000000;stroke-width:0.7;stroke-linecap:butt;stroke-linejoin:miter;stroke-miterlimit:4;stroke-dasharray:none;stroke-opacity:1"
         d="M 4.943212,161.11627 H 81.672378"
         id="path850" /><path
         style="fill:none;stroke:#000000;stroke-width:0.7;stroke-linecap:butt;stroke-linejoin:miter;stroke-miterlimit:4;stroke-dasharray:none;stroke-opacity:1"
         d="m 4.943212,161.11627 9.929222,17.19792"
         id="path852" /><path
         style="fill:none;stroke:#000000;stroke-width:0.7;stroke-linecap:butt;stroke-linejoin:miter;stroke-miterlimit:4;stroke-dasharray:none;stroke-opacity:1"
         d="m 22.405723,161.11627 9.929222,17.19792"
         id="path854" /><path
         style="fill:none;stroke:#000000;stroke-width:0.7;stroke-linecap:butt;stroke-linejoin:miter;stroke-miterlimit:4;stroke-dasharray:none;stroke-opacity:1"
         d="m 39.339067,161.11627 9.929222,17.19792"
         id="path856" /><path
         style="fill:none;stroke:#000000;stroke-width:0.7;stroke-linecap:butt;stroke-linejoin:miter;stroke-miterlimit:4;stroke-dasharray:none;stroke-opacity:1"
         d="M 56.801578,161.11627 66.7308,178.31419"
         id="path858" /><path
         style="fill:none;stroke:#000000;stroke-width:0.7;stroke-linecap:butt;stroke-linejoin:miter;stroke-miterlimit:4;stroke-dasharray:none;stroke-opacity:1"
         d="m 74.264089,161.11627 9.92923,17.19792"
         id="path860" /></g><circle
       style="fill:#ffffff;stroke:#000000;stroke-width:1.2;stroke-linejoin:bevel;stroke-dasharray:none"
       id="path1592"
       cx="40.720024"
       cy="142.46906"
       r="3.6994057" /><circle
       style="fill:#ffffff;stroke:#000000;stroke-width:1.2;stroke-linejoin:bevel;stroke-dasharray:none"
       id="circle1"
       cx="81.635155"
       cy="107.03363"
       r="3.6994057" /><rect
       style="fill:#ffffff;stroke:#000000;stroke-width:1.2;stroke-dasharray:none"
       id="rect7"
       width="51.143909"
       height="35.435421"
       x="143.38016"
       y="125.1199"
       ry="10.793549" /><circle
       style="fill:#ffffff;stroke:#000000;stroke-width:0.7;stroke-linejoin:bevel"
       id="circle2"
       cx="168.77785"
       cy="142.46906"
       r="3.6994057" /><g
       id="g7"
       transform="translate(121.17936)"><path
         style="fill:none;stroke:#000000;stroke-width:0.7;stroke-linecap:butt;stroke-linejoin:miter;stroke-miterlimit:4;stroke-dasharray:none;stroke-opacity:1"
         d="M 4.943212,161.11627 H 81.672378"
         id="path2" /><path
         style="fill:none;stroke:#000000;stroke-width:0.7;stroke-linecap:butt;stroke-linejoin:miter;stroke-miterlimit:4;stroke-dasharray:none;stroke-opacity:1"
         d="m 4.943212,161.11627 9.929222,17.19792"
         id="path3" /><path
         style="fill:none;stroke:#000000;stroke-width:0.7;stroke-linecap:butt;stroke-linejoin:miter;stroke-miterlimit:4;stroke-dasharray:none;stroke-opacity:1"
         d="m 22.405723,161.11627 9.929222,17.19792"
         id="path4" /><path
         style="fill:none;stroke:#000000;stroke-width:0.7;stroke-linecap:butt;stroke-linejoin:miter;stroke-miterlimit:4;stroke-dasharray:none;stroke-opacity:1"
         d="m 39.339067,161.11627 9.929222,17.19792"
         id="path5" /><path
         style="fill:none;stroke:#000000;stroke-width:0.7;stroke-linecap:butt;stroke-linejoin:miter;stroke-miterlimit:4;stroke-dasharray:none;stroke-opacity:1"
         d="M 56.801578,161.11627 66.7308,178.31419"
         id="path6" /><path
         style="fill:none;stroke:#000000;stroke-width:0.7;stroke-linecap:butt;stroke-linejoin:miter;stroke-miterlimit:4;stroke-dasharray:none;stroke-opacity:1"
         d="m 74.264089,161.11627 9.92923,17.19792"
         id="path7" /></g><path
       style="fill:#ffffff;stroke:#000000;stroke-width:1.2;stroke-dasharray:none"
       d="M 42.559041,139.1845 79.090405,109.41144"
       id="path8"
       sodipodi:nodetypes="cc" /><path
       style="fill:#ffffff;stroke:#000000;stroke-width:1.2;stroke-dasharray:none"
       d="m 84.935427,108.86347 80.551653,31.05166"
       id="path9"
       sodipodi:nodetypes="cc" /><path
       style="fill:none;stroke:#0000ff;stroke-width:1.2;stroke-dasharray:none;marker-start:url(#Triangle)"
       id="path10"
       sodipodi:type="arc"
       sodipodi:cx="40.549812"
       sodipodi:cy="142.28967"
       sodipodi:rx="30.869003"
       sodipodi:ry="30.869003"
       sodipodi:start="5.7848695"
       sodipodi:end="5.3156915"
       sodipodi:arc-type="arc"
       d="m 67.664798,127.53593 a 30.869003,30.869003 0 0 1 -9.289467,39.95585 30.869003,30.869003 0 0 1 -40.768416,-4.54977 30.869003,30.869003 0 0 1 -0.25244,-41.02074 30.869003,30.869003 0 0 1 40.709332,-5.05118"
       sodipodi:open="true" /><path
       style="fill:none;stroke:#0000ff;stroke-width:1.2;stroke-dasharray:none;marker-start:url(#Triangle);marker-end:url(#Triangle)"
       d="m 124.3893,142.83764 h 89.13653"
       id="path11" /><g
       inkscape:label=""
       transform="matrix(1.7531157,0,0,1.7531157,76.333583,132.20967)"
       id="g21"
       style="stroke-width:0.570413"><g
   fill="#000000"
   fill-opacity="1"
   id="g5"
   transform="matrix(0.352778,0,0,0.352778,-1.05035,-0.704673)"
   style="stroke-width:0.570413">
    <g
   id="use4"
   transform="translate(1.993,20.559999)"
   style="stroke-width:0.570413">
      <path
   d="m 10.984375,-12.46875 c 0,-2.53125 -0.796875,-4.984375 -2.828125,-4.984375 -3.46875,0 -7.171875,7.265625 -7.171875,12.71875 0,1.140625 0.25,4.984375 2.859375,4.984375 3.375,0 7.140625,-7.09375 7.140625,-12.71875 z m -7.515625,3.5 c 0.375,-1.46875 0.890625,-3.546875 1.890625,-5.3125 0.8125,-1.484375 1.671875,-2.671875 2.765625,-2.671875 0.828125,0 1.359375,0.703125 1.359375,3.078125 0,0.890625 -0.0625,2.125 -0.78125,4.90625 z m 5.0625,0.734375 c -0.625,2.4375 -1.140625,4 -2.03125,5.5625 C 5.78125,-1.40625 4.90625,-0.25 3.859375,-0.25 c -0.765625,0 -1.375,-0.59375 -1.375,-3.046875 0,-1.609375 0.390625,-3.296875 0.78125,-4.9375 z m 0,0"
   id="path18"
   style="stroke-width:0.570413" />
    </g>
  </g>
  <g
   fill="#000000"
   fill-opacity="1"
   id="g6"
   transform="matrix(0.352778,0,0,0.352778,-1.05035,-0.704673)"
   style="stroke-width:0.570413">
    <g
   id="use5"
   transform="translate(13.977,20.559999)"
   style="stroke-width:0.570413">
      <path
   d="m 7.578125,6.046875 c 0,-0.03125 0,-0.078125 -0.0625,-0.15625 -1.140625,-1.15625 -4.1875,-4.328125 -4.1875,-12.0625 0,-7.734375 2.984375,-10.875 4.203125,-12.109375 0,-0.03125 0.046875,-0.07813 0.046875,-0.15625 0,-0.07813 -0.0625,-0.125 -0.171875,-0.125 -0.265625,0 -2.375,1.828125 -3.59375,4.5625 -1.234375,2.75 -1.578125,5.421875 -1.578125,7.8125 0,1.78125 0.171875,4.796875 1.65625,8 1.1875,2.578125 3.21875,4.375 3.515625,4.375 0.125,0 0.171875,-0.046875 0.171875,-0.140625 z m 0,0"
   id="path19"
   style="stroke-width:0.570413" />
    </g>
  </g>
  <g
   fill="#000000"
   fill-opacity="1"
   id="g20"
   transform="matrix(0.352778,0,0,0.352778,-1.05035,-0.704673)"
   style="stroke-width:0.570413">
    <g
   id="use6"
   transform="translate(22.754999,20.559999)"
   style="stroke-width:0.570413">
      <path
   d="m 4.984375,-9.96875 h 2.28125 c 0.46875,0 0.71875,0 0.71875,-0.4375 0,-0.28125 -0.15625,-0.28125 -0.65625,-0.28125 H 5.15625 l 0.921875,-3.609375 c 0.09375,-0.34375 0.09375,-0.390625 0.09375,-0.578125 0,-0.390625 -0.328125,-0.609375 -0.640625,-0.609375 -0.203125,0 -0.765625,0.07813 -0.96875,0.859375 l -0.96875,3.9375 H 1.265625 c -0.5,0 -0.71875,0 -0.71875,0.484375 0,0.234375 0.171875,0.234375 0.640625,0.234375 h 2.203125 l -1.625,6.546875 c -0.203125,0.875 -0.28125,1.125 -0.28125,1.4375 0,1.171875 0.8125,2.234375 2.203125,2.234375 2.5,0 3.84375,-3.625 3.84375,-3.796875 0,-0.140625 -0.09375,-0.21875 -0.25,-0.21875 -0.046875,0 -0.140625,0 -0.1875,0.09375 C 7.0625,-3.640625 7.03125,-3.625 6.859375,-3.21875 6.34375,-1.984375 5.203125,-0.25 3.765625,-0.25 c -0.75,0 -0.796875,-0.625 -0.796875,-1.15625 0,-0.03125 0,-0.5 0.078125,-0.796875 z m 0,0"
   id="path20"
   style="stroke-width:0.570413" />
    </g>
  </g>
  <g
   fill="#000000"
   fill-opacity="1"
   id="g8"
   transform="matrix(0.352778,0,0,0.352778,-1.05035,-0.704673)"
   style="stroke-width:0.570413">
    <g
   id="use7"
   transform="translate(31.518999,20.559999)"
   style="stroke-width:0.570413">
      <path
   d="m 6.515625,-6.171875 c 0,-1.78125 -0.171875,-4.8125 -1.65625,-8 C 3.671875,-16.75 1.640625,-18.5625 1.34375,-18.5625 c -0.078125,0 -0.171875,0.03125 -0.171875,0.15625 0,0.04687 0.015625,0.0625 0.046875,0.125 1.1875,1.234375 4.203125,4.375 4.203125,12.09375 0,7.71875 -3,10.875 -4.203125,12.109375 C 1.1875,5.96875 1.171875,6 1.171875,6.046875 c 0,0.125 0.09375,0.140625 0.171875,0.140625 0.265625,0 2.375,-1.828125 3.59375,-4.546875 1.234375,-2.75 1.578125,-5.4375 1.578125,-7.8125 z m 0,0"
   id="path21"
   style="stroke-width:0.570413" />
    </g>
  </g>
</g><g
       inkscape:label=""
       transform="matrix(1.724498,0,0,1.724498,200.08289,124.66302)"
       id="g30"
       style="stroke-width:0.579879"><g
   fill="#000000"
   fill-opacity="1"
   id="g23"
   transform="matrix(0.352778,0,0,0.352778,-0.945621,-0.704673)"
   style="stroke-width:0.579879">
    <g
   id="g22"
   transform="translate(1.993,20.559999)"
   style="stroke-width:0.579879">
      <path
   d="m 11.75,-10.109375 c -0.796875,0.140625 -1.09375,0.734375 -1.09375,1.21875 0,0.59375 0.46875,0.78125 0.8125,0.78125 0.75,0 1.265625,-0.640625 1.265625,-1.3125 0,-1.03125 -1.1875,-1.5 -2.234375,-1.5 -1.5,0 -2.34375,1.484375 -2.5625,1.953125 -0.578125,-1.859375 -2.109375,-1.953125 -2.5625,-1.953125 -2.53125,0 -3.859375,3.234375 -3.859375,3.78125 0,0.109375 0.09375,0.234375 0.265625,0.234375 0.203125,0 0.25,-0.15625 0.296875,-0.25 0.84375,-2.75 2.5,-3.28125 3.21875,-3.28125 1.125,0 1.34375,1.046875 1.34375,1.640625 C 6.640625,-8.25 6.5,-7.6875 6.1875,-6.5 l -0.828125,3.40625 c -0.375,1.484375 -1.09375,2.84375 -2.40625,2.84375 -0.125,0 -0.75,0 -1.265625,-0.3125 0.890625,-0.1875 1.09375,-0.921875 1.09375,-1.21875 0,-0.5 -0.375,-0.796875 -0.84375,-0.796875 -0.59375,0 -1.25,0.515625 -1.25,1.3125 0,1.046875 1.171875,1.515625 2.234375,1.515625 1.1875,0 2.03125,-0.9375 2.5625,-1.953125 C 5.875,-0.25 7.109375,0.25 8.03125,0.25 c 2.53125,0 3.859375,-3.25 3.859375,-3.796875 0,-0.125 -0.09375,-0.21875 -0.25,-0.21875 -0.21875,0 -0.234375,0.125 -0.3125,0.328125 -0.671875,2.171875 -2.109375,3.1875 -3.21875,3.1875 -0.875,0 -1.34375,-0.640625 -1.34375,-1.65625 0,-0.546875 0.09375,-0.9375 0.5,-2.578125 L 8.125,-7.859375 C 8.5,-9.34375 9.34375,-10.4375 10.484375,-10.4375 c 0.04687,0 0.734375,0 1.265625,0.328125 z m 0,0"
   id="path22"
   style="stroke-width:0.579879" />
    </g>
  </g>
  <g
   fill="#000000"
   fill-opacity="1"
   id="g25"
   transform="matrix(0.352778,0,0,0.352778,-0.945621,-0.704673)"
   style="stroke-width:0.579879">
    <g
   id="g24"
   transform="translate(15.785,20.559999)"
   style="stroke-width:0.579879">
      <path
   d="m 7.578125,6.046875 c 0,-0.03125 0,-0.078125 -0.0625,-0.15625 -1.140625,-1.15625 -4.1875,-4.328125 -4.1875,-12.0625 0,-7.734375 2.984375,-10.875 4.203125,-12.109375 0,-0.03125 0.046875,-0.07813 0.046875,-0.15625 0,-0.07813 -0.0625,-0.125 -0.171875,-0.125 -0.265625,0 -2.375,1.828125 -3.59375,4.5625 -1.234375,2.75 -1.578125,5.421875 -1.578125,7.8125 0,1.78125 0.171875,4.796875 1.65625,8 1.1875,2.578125 3.21875,4.375 3.515625,4.375 0.125,0 0.171875,-0.046875 0.171875,-0.140625 z m 0,0"
   id="path23"
   style="stroke-width:0.579879" />
    </g>
  </g>
  <g
   fill="#000000"
   fill-opacity="1"
   id="g27"
   transform="matrix(0.352778,0,0,0.352778,-0.945621,-0.704673)"
   style="stroke-width:0.579879">
    <g
   id="g26"
   transform="translate(24.562,20.559999)"
   style="stroke-width:0.579879">
      <path
   d="m 4.984375,-9.96875 h 2.28125 c 0.46875,0 0.71875,0 0.71875,-0.4375 0,-0.28125 -0.15625,-0.28125 -0.65625,-0.28125 H 5.15625 l 0.921875,-3.609375 c 0.09375,-0.34375 0.09375,-0.390625 0.09375,-0.578125 0,-0.390625 -0.328125,-0.609375 -0.640625,-0.609375 -0.203125,0 -0.765625,0.07813 -0.96875,0.859375 l -0.96875,3.9375 H 1.265625 c -0.5,0 -0.71875,0 -0.71875,0.484375 0,0.234375 0.171875,0.234375 0.640625,0.234375 h 2.203125 l -1.625,6.546875 c -0.203125,0.875 -0.28125,1.125 -0.28125,1.4375 0,1.171875 0.8125,2.234375 2.203125,2.234375 2.5,0 3.84375,-3.625 3.84375,-3.796875 0,-0.140625 -0.09375,-0.21875 -0.25,-0.21875 -0.046875,0 -0.140625,0 -0.1875,0.09375 C 7.0625,-3.640625 7.03125,-3.625 6.859375,-3.21875 6.34375,-1.984375 5.203125,-0.25 3.765625,-0.25 c -0.75,0 -0.796875,-0.625 -0.796875,-1.15625 0,-0.03125 0,-0.5 0.078125,-0.796875 z m 0,0"
   id="path25"
   style="stroke-width:0.579879" />
    </g>
  </g>
  <g
   fill="#000000"
   fill-opacity="1"
   id="g29"
   transform="matrix(0.352778,0,0,0.352778,-0.945621,-0.704673)"
   style="stroke-width:0.579879">
    <g
   id="g28"
   transform="translate(33.327,20.559999)"
   style="stroke-width:0.579879">
      <path
   d="m 6.515625,-6.171875 c 0,-1.78125 -0.171875,-4.8125 -1.65625,-8 C 3.671875,-16.75 1.640625,-18.5625 1.34375,-18.5625 c -0.078125,0 -0.171875,0.03125 -0.171875,0.15625 0,0.04687 0.015625,0.0625 0.046875,0.125 1.1875,1.234375 4.203125,4.375 4.203125,12.09375 0,7.71875 -3,10.875 -4.203125,12.109375 C 1.1875,5.96875 1.171875,6 1.171875,6.046875 c 0,0.125 0.09375,0.140625 0.171875,0.140625 0.265625,0 2.375,-1.828125 3.59375,-4.546875 1.234375,-2.75 1.578125,-5.4375 1.578125,-7.8125 z m 0,0"
   id="path27"
   style="stroke-width:0.579879" />
    </g>
  </g>
</g></g></svg>
