<?xml version="1.0" encoding="UTF-8" standalone="no"?>
<!-- Created with Inkscape (http://www.inkscape.org/) -->

<svg
   width="55.589016mm"
   height="50.957626mm"
   viewBox="0 0 55.589016 50.957626"
   version="1.1"
   id="svg1"
   xml:space="preserve"
   inkscape:version="1.3.2 (091e20e, 2023-11-25, custom)"
   sodipodi:docname="elo-rotacao.svg"
   inkscape:export-filename="elo-rotacao.png"
   inkscape:export-xdpi="300"
   inkscape:export-ydpi="300"
   xmlns:inkscape="http://www.inkscape.org/namespaces/inkscape"
   xmlns:sodipodi="http://sodipodi.sourceforge.net/DTD/sodipodi-0.dtd"
   xmlns="http://www.w3.org/2000/svg"
   xmlns:svg="http://www.w3.org/2000/svg"><sodipodi:namedview
     id="namedview1"
     pagecolor="#ffffff"
     bordercolor="#000000"
     borderopacity="0.25"
     inkscape:showpageshadow="2"
     inkscape:pageopacity="0.0"
     inkscape:pagecheckerboard="0"
     inkscape:deskcolor="#d1d1d1"
     inkscape:document-units="mm"
     inkscape:zoom="2.8970539"
     inkscape:cx="90.436702"
     inkscape:cy="80.9443"
     inkscape:window-width="1920"
     inkscape:window-height="1009"
     inkscape:window-x="1912"
     inkscape:window-y="-8"
     inkscape:window-maximized="1"
     inkscape:current-layer="layer1"
     inkscape:export-bgcolor="#ffffffff" /><defs
     id="defs1"><marker
       style="overflow:visible"
       id="Triangle"
       refX="0"
       refY="0"
       orient="auto-start-reverse"
       inkscape:stockid="Triangle arrow"
       markerWidth="1"
       markerHeight="1"
       viewBox="0 0 1 1"
       inkscape:isstock="true"
       inkscape:collect="always"
       preserveAspectRatio="xMidYMid"><path
         transform="scale(0.5)"
         style="fill:context-stroke;fill-rule:evenodd;stroke:context-stroke;stroke-width:1pt"
         d="M 5.77,0 -2.88,5 V -5 Z"
         id="path135" /></marker></defs><g
     inkscape:label="Camada 1"
     inkscape:groupmode="layer"
     id="layer1"
     transform="translate(-60.62948,-121.96873)"><g
       inkscape:label="Layer 1"
       id="layer1-9"
       transform="matrix(0.38591016,0,0,0.38281288,52.167902,106.45959)"
       style="stroke-width:1.30087;stroke-dasharray:none"><path
         id="path839"
         style="fill:#ffffff;stroke:#000000;stroke-width:4.91667;stroke-linejoin:bevel;stroke-miterlimit:4;stroke-dasharray:none"
         d="M 219.92383,480 A 39.999999,39.999999 0 0 0 180,520 a 39.999999,39.999999 0 0 0 0,0.0762 V 590 h 80 v -70 a 39.999999,39.999999 0 0 0 -40,-40 39.999999,39.999999 0 0 0 -0.0762,0 z"
         transform="scale(0.26458333)" /><path
         style="fill:none;stroke:#000000;stroke-width:1.30087;stroke-linecap:butt;stroke-linejoin:miter;stroke-miterlimit:4;stroke-dasharray:none;stroke-opacity:1"
         d="M 22.489583,156.10416 H 99.218749"
         id="path850" /><path
         style="fill:none;stroke:#000000;stroke-width:1.30087;stroke-linecap:butt;stroke-linejoin:miter;stroke-miterlimit:4;stroke-dasharray:none;stroke-opacity:1"
         d="m 22.489583,156.10416 9.929222,17.19792"
         id="path852" /><path
         style="fill:none;stroke:#000000;stroke-width:1.30087;stroke-linecap:butt;stroke-linejoin:miter;stroke-miterlimit:4;stroke-dasharray:none;stroke-opacity:1"
         d="m 39.952094,156.10416 9.929222,17.19792"
         id="path854" /><path
         style="fill:none;stroke:#000000;stroke-width:1.30087;stroke-linecap:butt;stroke-linejoin:miter;stroke-miterlimit:4;stroke-dasharray:none;stroke-opacity:1"
         d="m 56.885438,156.10416 9.929222,17.19792"
         id="path856" /><path
         style="fill:none;stroke:#000000;stroke-width:1.30087;stroke-linecap:butt;stroke-linejoin:miter;stroke-miterlimit:4;stroke-dasharray:none;stroke-opacity:1"
         d="m 74.347949,156.10416 9.929222,17.19792"
         id="path858" /><path
         style="fill:none;stroke:#000000;stroke-width:1.30087;stroke-linecap:butt;stroke-linejoin:miter;stroke-miterlimit:4;stroke-dasharray:none;stroke-opacity:1"
         d="m 91.81046,156.10416 9.92923,17.19792"
         id="path860" /><circle
         style="fill:#ffffff;stroke:#000000;stroke-width:1.30087;stroke-linejoin:bevel;stroke-dasharray:none"
         id="path1592"
         cx="58.266396"
         cy="137.45695"
         r="3.6994057" /></g><path
       style="fill:#ff0000;stroke:#ff0000;stroke-width:0.565;stroke-dasharray:none;marker-end:url(#Triangle)"
       d="M 74.911571,159.38082 H 112.62567"
       id="path1"
       sodipodi:nodetypes="cc" /><path
       style="fill:none;stroke:#ff0000;stroke-width:0.565;stroke-dasharray:none;marker-end:url(#Triangle)"
       d="M 74.653253,159.38082 V 126.96219"
       id="path2"
       sodipodi:nodetypes="cc" /><g
       id="g3"
       transform="rotate(39.149388,66.898998,99.254787)"><rect
         style="fill:#ffffff;stroke:#000000;stroke-width:0.499999;stroke-dasharray:none"
         id="rect2"
         width="5.9412627"
         height="37.972416"
         x="107.71767"
         y="105.7803"
         ry="2.9706314" /><circle
         style="fill:#ffffff;stroke:#000000;stroke-width:0.499999;stroke-dasharray:none"
         id="path3"
         cx="110.6883"
         cy="109.04612"
         r="1.4612546" /><circle
         style="fill:#ffffff;stroke:#000000;stroke-width:0.499999;stroke-dasharray:none"
         id="circle3"
         cx="110.6883"
         cy="140.26678"
         r="1.4612546" /></g><path
       style="fill:#ffffff;stroke:#000000;stroke-width:0.499999;stroke-dasharray:none;marker-start:url(#Triangle)"
       d="m 88.796041,146.85251 c 3.751568,3.20909 5.65348,7.23203 5.101736,12.33458"
       id="path4"
       sodipodi:nodetypes="cc" /><g
       inkscape:label=""
       transform="translate(86.579325,142.70028)"
       id="g5"><g
   fill="#000000"
   fill-opacity="1"
   id="g2"
   transform="matrix(0.352778,0,0,0.352778,-0.945621,-0.614583)">
    <g
   id="use1"
   transform="translate(1.993,12.664)">
      <path
   d="m 83.719621,43.479515 c -0.796875,0.140625 -1.09375,0.734375 -1.09375,1.21875 0,0.59375 0.46875,0.78125 0.8125,0.78125 0.75,0 1.265625,-0.640625 1.265625,-1.3125 0,-1.03125 -1.1875,-1.5 -2.234375,-1.5 -1.5,0 -2.34375,1.484375 -2.5625,1.953125 -0.578125,-1.859375 -2.109375,-1.953125 -2.5625,-1.953125 -2.53125,0 -3.859375,3.234375 -3.859375,3.78125 0,0.109375 0.09375,0.234375 0.265625,0.234375 0.203125,0 0.25,-0.15625 0.296875,-0.25 0.84375,-2.75 2.5,-3.28125 3.21875,-3.28125 1.125,0 1.34375,1.046875 1.34375,1.640625 0,0.546875 -0.140625,1.109375 -0.453125,2.296875 l -0.828125,3.40625 c -0.375,1.484375 -1.09375,2.84375 -2.40625,2.84375 -0.125,0 -0.75,0 -1.265625,-0.3125 0.890625,-0.1875 1.09375,-0.921875 1.09375,-1.21875 0,-0.5 -0.375,-0.796875 -0.84375,-0.796875 -0.59375,0 -1.25,0.515625 -1.25,1.3125 0,1.046875 1.171875,1.515625 2.234375,1.515625 1.1875,0 2.03125,-0.9375 2.5625,-1.953125 0.390625,1.453125 1.625,1.953125 2.546875,1.953125 2.53125,0 3.859375,-3.25 3.859375,-3.796875 0,-0.125 -0.09375,-0.21875 -0.25,-0.21875 -0.21875,0 -0.234375,0.125 -0.3125,0.328125 -0.671875,2.171875 -2.109375,3.1875 -3.21875,3.1875 -0.875,0 -1.34375,-0.640625 -1.34375,-1.65625 0,-0.546875 0.09375,-0.9375 0.5,-2.578125 l 0.859375,-3.375 c 0.375,-1.484375 1.21875,-2.578125 2.359375,-2.578125 0.04687,0 0.734375,0 1.265625,0.328125 z m 0,0"
   id="path5" />
    </g>
  </g>
</g><g
       inkscape:label=""
       transform="translate(68.678956,121.96873)"
       id="g8"><g
   fill="#000000"
   fill-opacity="1"
   id="g7"
   transform="matrix(0.352778,0,0,0.352778,-0.940109,-0.614936)">
    <g
   id="g6"
   transform="translate(1.993,12.665)">
      <path
   d="M 6.515625,2.78125 C 5.84375,3.71875 4.875,4.5625 3.671875,4.5625 3.375,4.5625 2.1875,4.515625 1.8125,3.375 1.890625,3.390625 2,3.390625 2.0625,3.390625 2.796875,3.390625 3.296875,2.75 3.296875,2.1875 3.296875,1.609375 2.828125,1.40625 2.453125,1.40625 2.0625,1.40625 1.1875,1.703125 1.1875,2.921875 1.1875,4.1875 2.25,5.0625 3.671875,5.0625 c 2.46875,0 4.984375,-2.28125 5.671875,-5.03125 l 2.421875,-9.671875 c 0.03125,-0.125 0.07813,-0.265625 0.07813,-0.421875 0,-0.375 -0.296875,-0.625 -0.671875,-0.625 -0.21875,0 -0.734375,0.109375 -0.9375,0.84375 l -1.82813,7.296875 c -0.125,0.4375 -0.125,0.484375 -0.328125,0.765625 -0.5,0.6875 -1.3125,1.53125 -2.5,1.53125 C 4.1875,-0.25 4.0625,-1.609375 4.0625,-2.28125 c 0,-1.40625 0.671875,-3.3125 1.34375,-5.109375 0.265625,-0.71875 0.421875,-1.0625 0.421875,-1.5625 0,-1.03125 -0.75,-1.96875 -1.96875,-1.96875 -2.265625,0 -3.1875,3.59375 -3.1875,3.78125 0,0.109375 0.09375,0.234375 0.265625,0.234375 0.234375,0 0.25,-0.109375 0.34375,-0.453125 0.609375,-2.078125 1.546875,-3.078125 2.515625,-3.078125 0.21875,0 0.640625,0 0.640625,0.828125 0,0.640625 -0.28125,1.359375 -0.640625,2.296875 -1.21875,3.25 -1.21875,4.0625 -1.21875,4.65625 0,2.359375 1.6875,2.90625 2.921875,2.90625 0.71875,0 1.609375,-0.21875 2.484375,-1.140625 L 8,-0.875 C 7.625,0.59375 7.390625,1.5625 6.515625,2.78125 Z m 0,0"
   id="path6" />
    </g>
  </g>
</g><g
       inkscape:label=""
       transform="translate(94.981539,146.90139)"
       id="g17"><g
   fill="#000000"
   fill-opacity="1"
   id="g13"
   transform="matrix(0.352778,0,0,0.352778,-1.05035,-0.704673)">
    <g
   id="use4"
   transform="translate(1.993,20.559999)">
      <path
   d="m 10.984375,-12.46875 c 0,-2.53125 -0.796875,-4.984375 -2.828125,-4.984375 -3.46875,0 -7.171875,7.265625 -7.171875,12.71875 0,1.140625 0.25,4.984375 2.859375,4.984375 3.375,0 7.140625,-7.09375 7.140625,-12.71875 z m -7.515625,3.5 c 0.375,-1.46875 0.890625,-3.546875 1.890625,-5.3125 0.8125,-1.484375 1.671875,-2.671875 2.765625,-2.671875 0.828125,0 1.359375,0.703125 1.359375,3.078125 0,0.890625 -0.0625,2.125 -0.78125,4.90625 z m 5.0625,0.734375 c -0.625,2.4375 -1.140625,4 -2.03125,5.5625 C 5.78125,-1.40625 4.90625,-0.25 3.859375,-0.25 c -0.765625,0 -1.375,-0.59375 -1.375,-3.046875 0,-1.609375 0.390625,-3.296875 0.78125,-4.9375 z m 0,0"
   id="path8" />
    </g>
  </g>
  <g
   fill="#000000"
   fill-opacity="1"
   id="g14"
   transform="matrix(0.352778,0,0,0.352778,-1.05035,-0.704673)">
    <g
   id="use5"
   transform="translate(13.977,20.559999)">
      <path
   d="m 7.578125,6.046875 c 0,-0.03125 0,-0.078125 -0.0625,-0.15625 -1.140625,-1.15625 -4.1875,-4.328125 -4.1875,-12.0625 0,-7.734375 2.984375,-10.875 4.203125,-12.109375 0,-0.03125 0.046875,-0.07813 0.046875,-0.15625 0,-0.07813 -0.0625,-0.125 -0.171875,-0.125 -0.265625,0 -2.375,1.828125 -3.59375,4.5625 -1.234375,2.75 -1.578125,5.421875 -1.578125,7.8125 0,1.78125 0.171875,4.796875 1.65625,8 1.1875,2.578125 3.21875,4.375 3.515625,4.375 0.125,0 0.171875,-0.046875 0.171875,-0.140625 z m 0,0"
   id="path9" />
    </g>
  </g>
  <g
   fill="#000000"
   fill-opacity="1"
   id="g15"
   transform="matrix(0.352778,0,0,0.352778,-1.05035,-0.704673)">
    <g
   id="use6"
   transform="translate(22.754999,20.559999)">
      <path
   d="m 4.984375,-9.96875 h 2.28125 c 0.46875,0 0.71875,0 0.71875,-0.4375 0,-0.28125 -0.15625,-0.28125 -0.65625,-0.28125 H 5.15625 l 0.921875,-3.609375 c 0.09375,-0.34375 0.09375,-0.390625 0.09375,-0.578125 0,-0.390625 -0.328125,-0.609375 -0.640625,-0.609375 -0.203125,0 -0.765625,0.07813 -0.96875,0.859375 l -0.96875,3.9375 H 1.265625 c -0.5,0 -0.71875,0 -0.71875,0.484375 0,0.234375 0.171875,0.234375 0.640625,0.234375 h 2.203125 l -1.625,6.546875 c -0.203125,0.875 -0.28125,1.125 -0.28125,1.4375 0,1.171875 0.8125,2.234375 2.203125,2.234375 2.5,0 3.84375,-3.625 3.84375,-3.796875 0,-0.140625 -0.09375,-0.21875 -0.25,-0.21875 -0.046875,0 -0.140625,0 -0.1875,0.09375 C 7.0625,-3.640625 7.03125,-3.625 6.859375,-3.21875 6.34375,-1.984375 5.203125,-0.25 3.765625,-0.25 c -0.75,0 -0.796875,-0.625 -0.796875,-1.15625 0,-0.03125 0,-0.5 0.078125,-0.796875 z m 0,0"
   id="path10" />
    </g>
  </g>
  <g
   fill="#000000"
   fill-opacity="1"
   id="g16"
   transform="matrix(0.352778,0,0,0.352778,-1.05035,-0.704673)">
    <g
   id="use7"
   transform="translate(31.518999,20.559999)">
      <path
   d="m 6.515625,-6.171875 c 0,-1.78125 -0.171875,-4.8125 -1.65625,-8 C 3.671875,-16.75 1.640625,-18.5625 1.34375,-18.5625 c -0.078125,0 -0.171875,0.03125 -0.171875,0.15625 0,0.04687 0.015625,0.0625 0.046875,0.125 1.1875,1.234375 4.203125,4.375 4.203125,12.09375 0,7.71875 -3,10.875 -4.203125,12.109375 C 1.1875,5.96875 1.171875,6 1.171875,6.046875 c 0,0.125 0.09375,0.140625 0.171875,0.140625 0.265625,0 2.375,-1.828125 3.59375,-4.546875 1.234375,-2.75 1.578125,-5.4375 1.578125,-7.8125 z m 0,0"
   id="path11" />
    </g>
  </g>
</g></g></svg>
