<?xml version="1.0" encoding="UTF-8" standalone="no"?>
<!-- Created with Inkscape (http://www.inkscape.org/) -->

<svg
   width="120.03159mm"
   height="128.69569mm"
   viewBox="0 0 120.03159 128.69569"
   version="1.1"
   id="svg1"
   xml:space="preserve"
   inkscape:version="1.3.2 (091e20e, 2023-11-25, custom)"
   sodipodi:docname="pantografico.svg"
   inkscape:export-filename="pantografico.png"
   inkscape:export-xdpi="96"
   inkscape:export-ydpi="96"
   xmlns:inkscape="http://www.inkscape.org/namespaces/inkscape"
   xmlns:sodipodi="http://sodipodi.sourceforge.net/DTD/sodipodi-0.dtd"
   xmlns="http://www.w3.org/2000/svg"
   xmlns:svg="http://www.w3.org/2000/svg"><sodipodi:namedview
     id="namedview1"
     pagecolor="#ffffff"
     bordercolor="#000000"
     borderopacity="0.25"
     inkscape:showpageshadow="2"
     inkscape:pageopacity="0.0"
     inkscape:pagecheckerboard="0"
     inkscape:deskcolor="#d1d1d1"
     inkscape:document-units="mm"
     inkscape:zoom="1.0242632"
     inkscape:cx="246.03051"
     inkscape:cy="238.70817"
     inkscape:window-width="1920"
     inkscape:window-height="1009"
     inkscape:window-x="-8"
     inkscape:window-y="-8"
     inkscape:window-maximized="1"
     inkscape:current-layer="layer1"
     inkscape:export-bgcolor="#ffffffff" /><defs
     id="defs1" /><g
     inkscape:label="Camada 1"
     inkscape:groupmode="layer"
     id="layer1"
     transform="translate(-3.9776276,-2.8089008)"><path
       style="fill:#ffffff;stroke:#ff0000;stroke-width:1;stroke-dasharray:none"
       d="m 23.140486,3.8698982 c -1.791096,-0.358677 -2.880829,-0.7378677 -4.728979,-0.473506 -0.840348,0.120212 -1.559175,0.678229 -2.364494,0.947014 -5.049348,1.685285 -0.35095,5.6771168 -2.837389,8.9966388 -0.419398,0.559924 -3.3652534,3.98259 -3.7831854,4.26157 -0.5395087,0.360134 -3.7682402,1.405553 -4.2560848,1.894026 -0.1114712,0.111615 0.0705,0.332335 0,0.473508 -0.0997,0.199647 -0.3732025,0.273862 -0.4728987,0.473506 -1.0698272,2.142412 2.0929571,7.485489 3.7831842,8.049627 2.1527677,0 0.027021,-0.223215 1.418698,0.473506 0.4458497,0.223215 1.0039327,0.196646 1.4186917,0.473508 0.131152,0.08755 -0.149549,0.423595 0,0.473511 0.44863,0.149724 0.95992,-0.114841 1.418697,0 0.216267,0.05413 0.273506,0.37368 0.472898,0.473506 1.596243,0.799147 5.452575,1.021179 7.093472,0.473506 0.14955,-0.04991 0.402402,0.141182 0.472899,0 0.472902,-0.947012 -0.236448,-0.710262 0,-1.420523 0.222325,-0.667841 2.837753,-5.68245 3.310291,-6.155596 2.532982,-2.536245 3.070606,-1.182688 5.201878,-1.894028 0.623974,-0.208257 4.152931,-2.531179 4.256087,-2.841043 0.06935,-0.208336 0.146803,-2.073568 0,-2.367539 -0.0997,-0.199649 -0.402406,-0.261747 -0.472903,-0.473506 -0.0997,-0.29947 0.0997,-0.647543 0,-0.947014 -0.302678,-0.909212 -2.898523,-4.070723 -3.783184,-4.735076 -0.281982,-0.2117578 -0.696557,-0.2239458 -0.945795,-0.4735058 -0.111472,-0.111614 0.141,-0.40292 0,-0.473506 -0.281983,-0.141182 -0.663814,0.141164 -0.945796,0 -0.140982,-0.07059 0.111471,-0.3619 0,-0.473507 -0.249242,-0.24956 -0.696561,-0.223947 -0.945799,-0.473512 -0.111472,-0.111596 0.140982,-0.40292 0,-0.473506 -0.706346,-0.353626 -1.693715,-0.07724 -2.364488,-1.42052 -0.379631,-0.760236 -0.630531,-1.578356 -0.9458,-2.367539 z"
       id="path12" /><path
       style="fill:#ffffff;stroke:#ff0000;stroke-width:1;stroke-dasharray:none"
       d="m 44.688626,61.995781 c -0.978368,-0.195672 -1.573623,-0.402534 -2.583156,-0.258315 -0.459031,0.06558 -0.851683,0.369999 -1.29158,0.516631 -2.758154,0.919385 -0.191703,3.097077 -1.549894,4.907999 -0.229092,0.305459 -1.838235,2.17265 -2.066526,2.324844 -0.294701,0.196466 -2.058362,0.766781 -2.324842,1.033261 -0.06089,0.06089 0.03851,0.181301 0,0.258316 -0.05446,0.108915 -0.203858,0.149402 -0.258316,0.258315 -0.584382,1.168765 1.143256,4.083611 2.066525,4.391369 1.175927,0 0.01476,-0.121772 0.774949,0.258315 0.243541,0.121772 0.548388,0.107278 0.774946,0.258316 0.07164,0.04776 -0.08169,0.231087 0,0.258318 0.245059,0.08168 0.524346,-0.06265 0.774948,0 0.118134,0.02953 0.1494,0.203856 0.258316,0.258315 0.871931,0.435964 2.978412,0.557091 3.874735,0.258315 0.08169,-0.02723 0.219808,0.07702 0.258316,0 0.258318,-0.51663 -0.129157,-0.387474 0,-0.774948 0.121443,-0.364332 1.550093,-3.099986 1.808212,-3.358105 1.383615,-1.383615 1.677287,-0.6452 2.841472,-1.033262 0.340839,-0.113612 2.268495,-1.380852 2.324843,-1.549894 0.03788,-0.113655 0.08019,-1.131208 0,-1.29158 -0.05446,-0.108916 -0.21981,-0.142793 -0.258318,-0.258315 -0.05446,-0.163372 0.05446,-0.353259 0,-0.516631 -0.165335,-0.496009 -1.583288,-2.22073 -2.066525,-2.583159 -0.15403,-0.115522 -0.380487,-0.122171 -0.516631,-0.258315 -0.06089,-0.06089 0.07702,-0.219808 0,-0.258315 -0.15403,-0.07702 -0.362601,0.07701 -0.516631,0 -0.07701,-0.03851 0.06089,-0.19743 0,-0.258316 -0.136146,-0.136144 -0.380489,-0.122171 -0.516633,-0.258318 -0.06089,-0.06088 0.07701,-0.219808 0,-0.258315 -0.385834,-0.192916 -0.925174,-0.04214 -1.291577,-0.774946 -0.207369,-0.414737 -0.344421,-0.861052 -0.516633,-1.29158 z"
       id="path11" /><g
       id="g1"><path
         id="path839"
         style="fill:#ffffff;stroke:#000000;stroke-width:0.700001;stroke-linejoin:bevel;stroke-miterlimit:4;stroke-dasharray:none"
         d="m 34.361384,104.03772 a 6.3412682,6.237645 0 0 0 -6.329193,6.23764 6.3412682,6.237645 0 0 0 0,0.0119 v 10.90399 h 12.682537 v -10.91588 a 6.3412682,6.237645 0 0 0 -6.341268,-6.23764 6.3412682,6.237645 0 0 0 -0.01208,0 z" /><path
         style="fill:none;stroke:#000000;stroke-width:0.700002;stroke-linecap:butt;stroke-linejoin:miter;stroke-miterlimit:4;stroke-dasharray:none;stroke-opacity:1"
         d="M 12.971679,121.19124 H 58.945876"
         id="path850" /><path
         style="fill:none;stroke:#000000;stroke-width:0.700002;stroke-linecap:butt;stroke-linejoin:miter;stroke-miterlimit:4;stroke-dasharray:none;stroke-opacity:1"
         d="m 12.971679,121.19124 5.949342,10.13618"
         id="path852" /><path
         style="fill:none;stroke:#000000;stroke-width:0.700002;stroke-linecap:butt;stroke-linejoin:miter;stroke-miterlimit:4;stroke-dasharray:none;stroke-opacity:1"
         d="m 23.434779,121.19124 5.949342,10.13618"
         id="path854" /><path
         style="fill:none;stroke:#000000;stroke-width:0.700002;stroke-linecap:butt;stroke-linejoin:miter;stroke-miterlimit:4;stroke-dasharray:none;stroke-opacity:1"
         d="m 33.580815,121.19124 5.949342,10.13618"
         id="path856" /><path
         style="fill:none;stroke:#000000;stroke-width:0.700002;stroke-linecap:butt;stroke-linejoin:miter;stroke-miterlimit:4;stroke-dasharray:none;stroke-opacity:1"
         d="m 44.043915,121.19124 5.949342,10.13618"
         id="path858" /><path
         style="fill:none;stroke:#000000;stroke-width:0.700002;stroke-linecap:butt;stroke-linejoin:miter;stroke-miterlimit:4;stroke-dasharray:none;stroke-opacity:1"
         d="m 54.507015,121.19124 5.949346,10.13618"
         id="path860" /><ellipse
         style="fill:#ffffff;stroke:#000000;stroke-width:0.700002;stroke-linejoin:bevel"
         id="path1592"
         cx="34.408249"
         cy="110.20088"
         rx="2.2165914"
         ry="2.1803699" /></g><ellipse
       style="fill:#ffffff;stroke:#000000;stroke-width:0.700002;stroke-linejoin:bevel"
       id="ellipse2"
       cx="34.408253"
       cy="110.20088"
       rx="2.2165914"
       ry="2.1803699" /><path
       style="fill:none;stroke:#000000;stroke-width:1;stroke-dasharray:none"
       d="M 33.968523,110.55914 120.37514,74.911571 33.839365,18.340419"
       id="path5" /><path
       style="fill:none;stroke:#000000;stroke-width:1;stroke-dasharray:none"
       d="M 77.171829,92.735354 50.295106,69.806898"
       id="path6" /><path
       style="fill:none;stroke:#000000;stroke-width:1;stroke-dasharray:none"
       d="M 77.107253,46.625994 50.295106,69.806896"
       id="path7" /><ellipse
       style="fill:#ffffff;stroke:#000000;stroke-width:0.700002;stroke-linejoin:bevel"
       id="ellipse1"
       cx="34.408253"
       cy="110.20088"
       rx="2.2165914"
       ry="2.1803699" /><ellipse
       style="fill:#ffffff;stroke:#000000;stroke-width:0.700002;stroke-linejoin:bevel"
       id="ellipse7"
       cx="77.496338"
       cy="93.115738"
       rx="2.2165914"
       ry="2.1803699" /><ellipse
       style="fill:#ffffff;stroke:#000000;stroke-width:0.700002;stroke-linejoin:bevel"
       id="ellipse8"
       cx="121.44262"
       cy="74.90448"
       rx="2.2165914"
       ry="2.1803699" /><ellipse
       style="fill:#ffffff;stroke:#000000;stroke-width:0.700002;stroke-linejoin:bevel"
       id="ellipse9"
       cx="77.434265"
       cy="46.247757"
       rx="2.2165914"
       ry="2.1803699" /><ellipse
       style="fill:#ffffff;stroke:#000000;stroke-width:0.700002;stroke-linejoin:bevel"
       id="ellipse10"
       cx="33.565773"
       cy="17.921913"
       rx="2.2165914"
       ry="2.1803699" /><ellipse
       style="fill:#ffffff;stroke:#000000;stroke-width:0.700002;stroke-linejoin:bevel"
       id="ellipse11"
       cx="49.9706"
       cy="69.426514"
       rx="2.2165914"
       ry="2.1803699" /></g></svg>
