<?xml version="1.0" encoding="UTF-8" standalone="no"?>
<!-- Created with Inkscape (http://www.inkscape.org/) -->

<svg
   width="157.89171mm"
   height="140.06747mm"
   viewBox="0 0 157.89171 140.06747"
   version="1.1"
   id="svg1"
   inkscape:version="1.3.2 (091e20e, 2023-11-25, custom)"
   sodipodi:docname="trig.svg"
   inkscape:export-filename="trig.png"
   inkscape:export-xdpi="300"
   inkscape:export-ydpi="300"
   xmlns:inkscape="http://www.inkscape.org/namespaces/inkscape"
   xmlns:sodipodi="http://sodipodi.sourceforge.net/DTD/sodipodi-0.dtd"
   xmlns="http://www.w3.org/2000/svg"
   xmlns:svg="http://www.w3.org/2000/svg">
  <sodipodi:namedview
     id="namedview1"
     pagecolor="#ffffff"
     bordercolor="#000000"
     borderopacity="0.25"
     inkscape:showpageshadow="2"
     inkscape:pageopacity="0.0"
     inkscape:pagecheckerboard="0"
     inkscape:deskcolor="#d1d1d1"
     inkscape:document-units="mm"
     inkscape:zoom="1.0242632"
     inkscape:cx="413.95609"
     inkscape:cy="297.28686"
     inkscape:window-width="1920"
     inkscape:window-height="1009"
     inkscape:window-x="-8"
     inkscape:window-y="-8"
     inkscape:window-maximized="1"
     inkscape:current-layer="layer1"
     inkscape:export-bgcolor="#ffffffff" />
  <defs
     id="defs1" />
  <g
     inkscape:label="Camada 1"
     inkscape:groupmode="layer"
     id="layer1"
     transform="translate(-29.448275,-46.890762)">
    <path
       style="fill:none;stroke:#000000;stroke-width:1"
       d="M 37.079335,75.071954 V 113.06457 H 98.634682 Z"
       id="path1" />
    <path
       style="fill:none;stroke:#000000;stroke-width:1"
       d="m 31.256207,174.36313 57.604413,9.816 -20.665259,-39.78063 z"
       id="path2" />
    <g
       inkscape:label=""
       transform="translate(29.448273,92.089897)"
       id="g3">
      <g
         fill="#000000"
         fill-opacity="1"
         id="g2"
         transform="matrix(0.352778,0,0,0.352778,-1.05035,-0.614583)">
        <g
           id="use1"
           transform="translate(1.993,12.664)">
          <path
             d="m 7.453125,-2.953125 c -0.125,0.421875 -0.125,0.46875 -0.46875,0.953125 -0.546875,0.6875 -1.625,1.75 -2.796875,1.75 -1.015625,0 -1.578125,-0.921875 -1.578125,-2.375 0,-1.359375 0.765625,-4.140625 1.234375,-5.1875 0.84375,-1.734375 2,-2.625 2.96875,-2.625 1.640625,0 1.953125,2.03125 1.953125,2.234375 0,0.03125 -0.0625,0.34375 -0.09375,0.390625 z m 1.59375,-6.34375 c -0.28125,-0.640625 -0.9375,-1.625 -2.234375,-1.625 -2.796875,0 -5.828125,3.609375 -5.828125,7.28125 0,2.453125 1.4375,3.890625 3.125,3.890625 1.375,0 2.53125,-1.0625 3.21875,-1.890625 C 7.578125,-0.171875 8.75,0.25 9.484375,0.25 c 0.75,0 1.34375,-0.453125 1.796875,-1.34375 0.390625,-0.84375 0.734375,-2.34375 0.734375,-2.453125 0,-0.125 -0.09375,-0.21875 -0.25,-0.21875 -0.21875,0 -0.25,0.125 -0.34375,0.5 C 11.046875,-1.8125 10.578125,-0.25 9.5625,-0.25 c -0.71875,0 -0.765625,-0.640625 -0.765625,-1.140625 0,-0.5625 0.078125,-0.84375 0.296875,-1.8125 0.171875,-0.609375 0.296875,-1.15625 0.5,-1.875 0.90625,-3.71875 1.140625,-4.609375 1.140625,-4.765625 0,-0.34375 -0.28125,-0.609375 -0.640625,-0.609375 -0.796875,0 -1,0.859375 -1.046875,1.15625 z m 0,0"
             id="path3" />
        </g>
      </g>
    </g>
    <g
       inkscape:label=""
       transform="translate(45.205534,153.82736)"
       id="g6">
      <g
         fill="#000000"
         fill-opacity="1"
         id="g5"
         transform="matrix(0.352778,0,0,0.352778,-1.05035,-0.614583)">
        <g
           id="g4"
           transform="translate(1.993,12.664)">
          <path
             d="m 7.453125,-2.953125 c -0.125,0.421875 -0.125,0.46875 -0.46875,0.953125 -0.546875,0.6875 -1.625,1.75 -2.796875,1.75 -1.015625,0 -1.578125,-0.921875 -1.578125,-2.375 0,-1.359375 0.765625,-4.140625 1.234375,-5.1875 0.84375,-1.734375 2,-2.625 2.96875,-2.625 1.640625,0 1.953125,2.03125 1.953125,2.234375 0,0.03125 -0.0625,0.34375 -0.09375,0.390625 z m 1.59375,-6.34375 c -0.28125,-0.640625 -0.9375,-1.625 -2.234375,-1.625 -2.796875,0 -5.828125,3.609375 -5.828125,7.28125 0,2.453125 1.4375,3.890625 3.125,3.890625 1.375,0 2.53125,-1.0625 3.21875,-1.890625 C 7.578125,-0.171875 8.75,0.25 9.484375,0.25 c 0.75,0 1.34375,-0.453125 1.796875,-1.34375 0.390625,-0.84375 0.734375,-2.34375 0.734375,-2.453125 0,-0.125 -0.09375,-0.21875 -0.25,-0.21875 -0.21875,0 -0.25,0.125 -0.34375,0.5 C 11.046875,-1.8125 10.578125,-0.25 9.5625,-0.25 c -0.71875,0 -0.765625,-0.640625 -0.765625,-1.140625 0,-0.5625 0.078125,-0.84375 0.296875,-1.8125 0.171875,-0.609375 0.296875,-1.15625 0.5,-1.875 0.90625,-3.71875 1.140625,-4.609375 1.140625,-4.765625 0,-0.34375 -0.28125,-0.609375 -0.640625,-0.609375 -0.796875,0 -1,0.859375 -1.046875,1.15625 z m 0,0"
             id="path4" />
        </g>
      </g>
    </g>
    <g
       inkscape:label=""
       transform="translate(59.929532,116.11326)"
       id="g9">
      <g
         fill="#000000"
         fill-opacity="1"
         id="g8"
         transform="matrix(0.352778,0,0,0.352778,-1.09445,-0.706217)">
        <g
           id="g7"
           transform="translate(1.993,19.205)">
          <path
             d="m 5.71875,-16.578125 c 0.03125,-0.09375 0.078125,-0.25 0.078125,-0.375 0,-0.25 -0.25,-0.25 -0.296875,-0.25 -0.015625,0 -0.921875,0.07813 -1.359375,0.125 C 3.71875,-17.046875 3.34375,-17 2.90625,-16.96875 c -0.609375,0.04687 -0.78125,0.0625 -0.78125,0.515625 0,0.25 0.25,0.25 0.5,0.25 1.265625,0 1.265625,0.21875 1.265625,0.46875 0,0.171875 -0.203125,0.890625 -0.296875,1.34375 L 3,-12.015625 c -0.25,0.984375 -1.65625,6.609375 -1.765625,7.0625 -0.125,0.609375 -0.125,1.03125 -0.125,1.359375 0,2.53125 1.421875,3.84375 3.03125,3.84375 2.875,0 5.84375,-3.6875 5.84375,-7.28125 0,-2.28125 -1.28125,-3.890625 -3.140625,-3.890625 -1.296875,0 -2.453125,1.0625 -2.921875,1.546875 z M 4.15625,-0.25 C 3.375,-0.25 2.5,-0.84375 2.5,-2.78125 2.5,-3.59375 2.578125,-4.0625 3.015625,-5.796875 3.09375,-6.125 3.5,-7.703125 3.59375,-8.03125 3.640625,-8.234375 5.109375,-10.4375 6.796875,-10.4375 7.875,-10.4375 8.375,-9.34375 8.375,-8.046875 8.375,-6.859375 7.6875,-4.0625 7.0625,-2.78125 6.4375,-1.4375 5.296875,-0.25 4.15625,-0.25 Z m 0,0"
             id="path6" />
        </g>
      </g>
    </g>
    <g
       inkscape:label=""
       transform="translate(80.853109,157.44378)"
       id="g12">
      <g
         fill="#000000"
         fill-opacity="1"
         id="g11"
         transform="matrix(0.352778,0,0,0.352778,-1.09445,-0.706217)">
        <g
           id="g10"
           transform="translate(1.993,19.205)">
          <path
             d="m 5.71875,-16.578125 c 0.03125,-0.09375 0.078125,-0.25 0.078125,-0.375 0,-0.25 -0.25,-0.25 -0.296875,-0.25 -0.015625,0 -0.921875,0.07813 -1.359375,0.125 C 3.71875,-17.046875 3.34375,-17 2.90625,-16.96875 c -0.609375,0.04687 -0.78125,0.0625 -0.78125,0.515625 0,0.25 0.25,0.25 0.5,0.25 1.265625,0 1.265625,0.21875 1.265625,0.46875 0,0.171875 -0.203125,0.890625 -0.296875,1.34375 L 3,-12.015625 c -0.25,0.984375 -1.65625,6.609375 -1.765625,7.0625 -0.125,0.609375 -0.125,1.03125 -0.125,1.359375 0,2.53125 1.421875,3.84375 3.03125,3.84375 2.875,0 5.84375,-3.6875 5.84375,-7.28125 0,-2.28125 -1.28125,-3.890625 -3.140625,-3.890625 -1.296875,0 -2.453125,1.0625 -2.921875,1.546875 z M 4.15625,-0.25 C 3.375,-0.25 2.5,-0.84375 2.5,-2.78125 2.5,-3.59375 2.578125,-4.0625 3.015625,-5.796875 3.09375,-6.125 3.5,-7.703125 3.59375,-8.03125 3.640625,-8.234375 5.109375,-10.4375 6.796875,-10.4375 7.875,-10.4375 8.375,-9.34375 8.375,-8.046875 8.375,-6.859375 7.6875,-4.0625 7.0625,-2.78125 6.4375,-1.4375 5.296875,-0.25 4.15625,-0.25 Z m 0,0"
             id="path9" />
        </g>
      </g>
    </g>
    <g
       inkscape:label=""
       transform="translate(58.121322,183.01705)"
       id="g15">
      <g
         fill="#000000"
         fill-opacity="1"
         id="g14"
         transform="matrix(0.352778,0,0,0.352778,-1.05035,-0.614583)">
        <g
           id="g13"
           transform="translate(1.993,12.664)">
          <path
             d="m 9.6875,-9.3125 c -0.46875,0 -0.6875,0 -1.03125,0.296875 C 8.5,-8.890625 8.234375,-8.53125 8.234375,-8.125 c 0,0.5 0.359375,0.796875 0.828125,0.796875 0.609375,0 1.265625,-0.5 1.265625,-1.5 0,-1.1875 -1.140625,-2.09375 -2.84375,-2.09375 -3.25,0 -6.5,3.53125 -6.5,7.0625 0,2.15625 1.34375,4.109375 3.875,4.109375 3.375,0 5.5,-2.625 5.5,-2.953125 0,-0.140625 -0.15625,-0.265625 -0.25,-0.265625 -0.07813,0 -0.09375,0.015625 -0.328125,0.25 C 8.203125,-0.625 5.84375,-0.25 4.90625,-0.25 c -1.703125,0 -2.25,-1.484375 -2.25,-2.71875 0,-0.875 0.421875,-3.28125 1.3125,-4.96875 0.640625,-1.15625 1.984375,-2.5 3.546875,-2.5 0.3125,0 1.671875,0.04687 2.171875,1.125 z m 0,0"
             id="path12" />
        </g>
      </g>
    </g>
    <g
       inkscape:label=""
       transform="translate(67.937321,83.306822)"
       id="g18">
      <g
         fill="#000000"
         fill-opacity="1"
         id="g17"
         transform="matrix(0.352778,0,0,0.352778,-1.18264,-0.706217)">
        <g
           id="g16"
           transform="translate(1.993,19.205)">
          <path
             d="m 6.96875,-16.578125 c 0.015625,-0.09375 0.0625,-0.25 0.0625,-0.375 0,-0.25 -0.234375,-0.25 -0.296875,-0.25 -0.015625,0 -1.234375,0.109375 -1.359375,0.125 -0.421875,0.03125 -0.796875,0.07813 -1.234375,0.109375 -0.625,0.04687 -0.796875,0.0625 -0.796875,0.515625 0,0.25 0.203125,0.25 0.546875,0.25 1.21875,0 1.234375,0.21875 1.234375,0.46875 0,0.140625 -0.046875,0.34375 -0.0625,0.421875 L 1.46875,-0.96875 c -0.109375,0.375 -0.109375,0.421875 -0.109375,0.578125 0,0.546875 0.421875,0.640625 0.671875,0.640625 0.421875,0 0.75,-0.328125 0.875,-0.59375 l 1.109375,-4.484375 c 0.125,-0.546875 0.265625,-1.0625 0.390625,-1.609375 0.28125,-1.046875 0.28125,-1.078125 0.75,-1.796875 0.46875,-0.71875 1.578125,-2.203125 3.5,-2.203125 0.984375,0 1.328125,0.75 1.328125,1.734375 0,1.390625 -0.96875,4.09375 -1.515625,5.578125 C 8.25,-2.53125 8.125,-2.203125 8.125,-1.765625 c 0,1.125 0.765625,2.015625 1.96875,2.015625 2.296875,0 3.171875,-3.640625 3.171875,-3.796875 0,-0.125 -0.109375,-0.21875 -0.25,-0.21875 -0.234375,0 -0.25,0.078125 -0.375,0.5 C 12.0625,-1.28125 11.15625,-0.25 10.15625,-0.25 c -0.25,0 -0.640625,-0.015625 -0.640625,-0.8125 0,-0.640625 0.296875,-1.4375 0.390625,-1.71875 0.453125,-1.1875 1.5625,-4.109375 1.5625,-5.546875 0,-1.484375 -0.859375,-2.59375 -2.75,-2.59375 -1.40625,0 -2.640625,0.65625 -3.65625,1.953125 z m 0,0"
             id="path15" />
        </g>
      </g>
    </g>
    <g
       id="g219"
       transform="translate(-14.999852)">
      <g
         fill="#000000"
         fill-opacity="1"
         id="g19"
         transform="matrix(0.352778,0,0,0.352778,118.67615,77.793809)">
        <g
           id="use6"
           transform="translate(1.993,22.084999)">
          <path
             d="m 6.96875,-16.578125 c 0.015625,-0.09375 0.0625,-0.25 0.0625,-0.375 0,-0.25 -0.234375,-0.25 -0.296875,-0.25 -0.015625,0 -1.234375,0.109375 -1.359375,0.125 -0.421875,0.03125 -0.796875,0.07813 -1.234375,0.109375 -0.625,0.04687 -0.796875,0.0625 -0.796875,0.515625 0,0.25 0.203125,0.25 0.546875,0.25 1.21875,0 1.234375,0.21875 1.234375,0.46875 0,0.140625 -0.046875,0.34375 -0.0625,0.421875 L 1.46875,-0.96875 c -0.109375,0.375 -0.109375,0.421875 -0.109375,0.578125 0,0.546875 0.421875,0.640625 0.671875,0.640625 0.421875,0 0.75,-0.328125 0.875,-0.59375 l 1.109375,-4.484375 c 0.125,-0.546875 0.265625,-1.0625 0.390625,-1.609375 0.28125,-1.046875 0.28125,-1.078125 0.75,-1.796875 0.46875,-0.71875 1.578125,-2.203125 3.5,-2.203125 0.984375,0 1.328125,0.75 1.328125,1.734375 0,1.390625 -0.96875,4.09375 -1.515625,5.578125 C 8.25,-2.53125 8.125,-2.203125 8.125,-1.765625 c 0,1.125 0.765625,2.015625 1.96875,2.015625 2.296875,0 3.171875,-3.640625 3.171875,-3.796875 0,-0.125 -0.109375,-0.21875 -0.25,-0.21875 -0.234375,0 -0.25,0.078125 -0.375,0.5 C 12.0625,-1.28125 11.15625,-0.25 10.15625,-0.25 c -0.25,0 -0.640625,-0.015625 -0.640625,-0.8125 0,-0.640625 0.296875,-1.4375 0.390625,-1.71875 0.453125,-1.1875 1.5625,-4.109375 1.5625,-5.546875 0,-1.484375 -0.859375,-2.59375 -2.75,-2.59375 -1.40625,0 -2.640625,0.65625 -3.65625,1.953125 z m 0,0"
             id="path14" />
        </g>
      </g>
      <g
         fill="#000000"
         fill-opacity="1"
         id="g20"
         transform="matrix(0.352778,0,0,0.352778,118.67615,77.793809)">
        <g
           id="use7"
           transform="translate(15.964,13.09)">
          <path
             d="M 7.1875,-2.671875 H 6.875 c -0.171875,1.21875 -0.3125,1.4375 -0.390625,1.53125 C 6.40625,-1 5.171875,-1 4.921875,-1 H 1.625 c 0.609375,-0.671875 1.8125,-1.890625 3.28125,-3.3125 1.046875,-0.984375 2.28125,-2.15625 2.28125,-3.859375 0,-2.03125 -1.625,-3.203125 -3.4375,-3.203125 -1.890625,0 -3.046875,1.65625 -3.046875,3.21875 0,0.671875 0.5,0.75 0.703125,0.75 0.171875,0 0.6875,-0.09375 0.6875,-0.703125 0,-0.53125 -0.4375,-0.6875 -0.6875,-0.6875 -0.09375,0 -0.203125,0.015625 -0.265625,0.046875 0.328125,-1.453125 1.328125,-2.1875 2.375,-2.1875 1.5,0 2.46875,1.1875 2.46875,2.765625 0,1.484375 -0.875,2.78125 -1.859375,3.90625 l -3.421875,3.875 V 0 h 6.0625 z m 0,0"
             id="path19" />
        </g>
      </g>
      <g
         fill="#000000"
         fill-opacity="1"
         id="g21"
         transform="matrix(0.352778,0,0,0.352778,118.67615,77.793809)">
        <g
           id="use8"
           transform="translate(31.243,22.084999)">
          <path
             d="m 15.9375,-7.953125 c 0.375,0 0.734375,0 0.734375,-0.421875 0,-0.453125 -0.421875,-0.453125 -0.84375,-0.453125 H 1.984375 c -0.421875,0 -0.84375,0 -0.84375,0.453125 0,0.421875 0.375,0.421875 0.75,0.421875 z m -0.109375,4.40625 c 0.421875,0 0.84375,0 0.84375,-0.4375 0,-0.421875 -0.359375,-0.421875 -0.734375,-0.421875 H 1.890625 c -0.375,0 -0.75,0 -0.75,0.421875 0,0.4375 0.421875,0.4375 0.84375,0.4375 z m 0,0"
             id="path16" />
        </g>
      </g>
      <g
         fill="#000000"
         fill-opacity="1"
         id="g22"
         transform="matrix(0.352778,0,0,0.352778,118.67615,77.793809)">
        <g
           id="use9"
           transform="translate(55.970001,22.084999)">
          <path
             d="m 7.453125,-2.953125 c -0.125,0.421875 -0.125,0.46875 -0.46875,0.953125 -0.546875,0.6875 -1.625,1.75 -2.796875,1.75 -1.015625,0 -1.578125,-0.921875 -1.578125,-2.375 0,-1.359375 0.765625,-4.140625 1.234375,-5.1875 0.84375,-1.734375 2,-2.625 2.96875,-2.625 1.640625,0 1.953125,2.03125 1.953125,2.234375 0,0.03125 -0.0625,0.34375 -0.09375,0.390625 z m 1.59375,-6.34375 c -0.28125,-0.640625 -0.9375,-1.625 -2.234375,-1.625 -2.796875,0 -5.828125,3.609375 -5.828125,7.28125 0,2.453125 1.4375,3.890625 3.125,3.890625 1.375,0 2.53125,-1.0625 3.21875,-1.890625 C 7.578125,-0.171875 8.75,0.25 9.484375,0.25 c 0.75,0 1.34375,-0.453125 1.796875,-1.34375 0.390625,-0.84375 0.734375,-2.34375 0.734375,-2.453125 0,-0.125 -0.09375,-0.21875 -0.25,-0.21875 -0.21875,0 -0.25,0.125 -0.34375,0.5 C 11.046875,-1.8125 10.578125,-0.25 9.5625,-0.25 c -0.71875,0 -0.765625,-0.640625 -0.765625,-1.140625 0,-0.5625 0.078125,-0.84375 0.296875,-1.8125 0.171875,-0.609375 0.296875,-1.15625 0.5,-1.875 0.90625,-3.71875 1.140625,-4.609375 1.140625,-4.765625 0,-0.34375 -0.28125,-0.609375 -0.640625,-0.609375 -0.796875,0 -1,0.859375 -1.046875,1.15625 z m 0,0"
             id="path17" />
        </g>
      </g>
      <g
         fill="#000000"
         fill-opacity="1"
         id="g23"
         transform="matrix(0.352778,0,0,0.352778,118.67615,77.793809)">
        <g
           id="use10"
           transform="translate(68.710999,13.09)">
          <path
             d="M 7.1875,-2.671875 H 6.875 c -0.171875,1.21875 -0.3125,1.4375 -0.390625,1.53125 C 6.40625,-1 5.171875,-1 4.921875,-1 H 1.625 c 0.609375,-0.671875 1.8125,-1.890625 3.28125,-3.3125 1.046875,-0.984375 2.28125,-2.15625 2.28125,-3.859375 0,-2.03125 -1.625,-3.203125 -3.4375,-3.203125 -1.890625,0 -3.046875,1.65625 -3.046875,3.21875 0,0.671875 0.5,0.75 0.703125,0.75 0.171875,0 0.6875,-0.09375 0.6875,-0.703125 0,-0.53125 -0.4375,-0.6875 -0.6875,-0.6875 -0.09375,0 -0.203125,0.015625 -0.265625,0.046875 0.328125,-1.453125 1.328125,-2.1875 2.375,-2.1875 1.5,0 2.46875,1.1875 2.46875,2.765625 0,1.484375 -0.875,2.78125 -1.859375,3.90625 l -3.421875,3.875 V 0 h 6.0625 z m 0,0"
             id="path18" />
        </g>
      </g>
      <g
         fill="#000000"
         fill-opacity="1"
         id="g24"
         transform="matrix(0.352778,0,0,0.352778,118.67615,77.793809)">
        <g
           id="use11"
           transform="translate(82.612999,22.084999)">
          <path
             d="m 9.34375,-5.75 h 6.5625 c 0.34375,0 0.765625,0 0.765625,-0.421875 0,-0.4375 -0.390625,-0.4375 -0.765625,-0.4375 H 9.34375 V -13.1875 c 0,-0.34375 0,-0.765625 -0.421875,-0.765625 -0.453125,0 -0.453125,0.390625 -0.453125,0.765625 v 6.578125 h -6.5625 c -0.34375,0 -0.765625,0 -0.765625,0.421875 0,0.4375 0.390625,0.4375 0.765625,0.4375 h 6.5625 v 6.5625 c 0,0.359375 0,0.78125 0.421875,0.78125 0.453125,0 0.453125,-0.40625 0.453125,-0.78125 z m 0,0"
             id="path23" />
        </g>
      </g>
      <g
         fill="#000000"
         fill-opacity="1"
         id="g25"
         transform="matrix(0.352778,0,0,0.352778,118.67615,77.793809)">
        <g
           id="use12"
           transform="translate(105.963,22.084999)">
          <path
             d="m 5.71875,-16.578125 c 0.03125,-0.09375 0.078125,-0.25 0.078125,-0.375 0,-0.25 -0.25,-0.25 -0.296875,-0.25 -0.015625,0 -0.921875,0.07813 -1.359375,0.125 C 3.71875,-17.046875 3.34375,-17 2.90625,-16.96875 c -0.609375,0.04687 -0.78125,0.0625 -0.78125,0.515625 0,0.25 0.25,0.25 0.5,0.25 1.265625,0 1.265625,0.21875 1.265625,0.46875 0,0.171875 -0.203125,0.890625 -0.296875,1.34375 L 3,-12.015625 c -0.25,0.984375 -1.65625,6.609375 -1.765625,7.0625 -0.125,0.609375 -0.125,1.03125 -0.125,1.359375 0,2.53125 1.421875,3.84375 3.03125,3.84375 2.875,0 5.84375,-3.6875 5.84375,-7.28125 0,-2.28125 -1.28125,-3.890625 -3.140625,-3.890625 -1.296875,0 -2.453125,1.0625 -2.921875,1.546875 z M 4.15625,-0.25 C 3.375,-0.25 2.5,-0.84375 2.5,-2.78125 2.5,-3.59375 2.578125,-4.0625 3.015625,-5.796875 3.09375,-6.125 3.5,-7.703125 3.59375,-8.03125 3.640625,-8.234375 5.109375,-10.4375 6.796875,-10.4375 7.875,-10.4375 8.375,-9.34375 8.375,-8.046875 8.375,-6.859375 7.6875,-4.0625 7.0625,-2.78125 6.4375,-1.4375 5.296875,-0.25 4.15625,-0.25 Z m 0,0"
             id="path20" />
        </g>
      </g>
      <g
         fill="#000000"
         fill-opacity="1"
         id="g26"
         transform="matrix(0.352778,0,0,0.352778,118.67615,77.793809)">
        <g
           id="use13"
           transform="translate(116.283,13.09)">
          <path
             d="M 7.1875,-2.671875 H 6.875 c -0.171875,1.21875 -0.3125,1.4375 -0.390625,1.53125 C 6.40625,-1 5.171875,-1 4.921875,-1 H 1.625 c 0.609375,-0.671875 1.8125,-1.890625 3.28125,-3.3125 1.046875,-0.984375 2.28125,-2.15625 2.28125,-3.859375 0,-2.03125 -1.625,-3.203125 -3.4375,-3.203125 -1.890625,0 -3.046875,1.65625 -3.046875,3.21875 0,0.671875 0.5,0.75 0.703125,0.75 0.171875,0 0.6875,-0.09375 0.6875,-0.703125 0,-0.53125 -0.4375,-0.6875 -0.6875,-0.6875 -0.09375,0 -0.203125,0.015625 -0.265625,0.046875 0.328125,-1.453125 1.328125,-2.1875 2.375,-2.1875 1.5,0 2.46875,1.1875 2.46875,2.765625 0,1.484375 -0.875,2.78125 -1.859375,3.90625 l -3.421875,3.875 V 0 h 6.0625 z m 0,0"
             id="path21" />
        </g>
      </g>
    </g>
    <g
       inkscape:label=""
       id="g32"
       transform="translate(42.493218,166.74282)">
      <g
         fill="#000000"
         fill-opacity="1"
         id="g31"
         transform="matrix(0.352778,0,0,0.352778,-0.953388,-0.612863)">
        <g
           id="g30"
           transform="translate(1.993,19.205999)">
          <path
             d="m 14.03125,-14.421875 c 0,-1.484375 -1.265625,-3.046875 -3.53125,-3.046875 -3.1875,0 -5.21875,3.90625 -5.859375,6.484375 L 0.71875,4.5625 c -0.046875,0.203125 0.09375,0.25 0.21875,0.25 0.171875,0 0.296875,-0.03125 0.328125,-0.15625 L 3,-2.28125 C 3.25,-0.890625 4.609375,0.25 6.078125,0.25 c 3.53125,0 6.875,-2.78125 6.875,-6.46875 0,-0.9375 -0.21875,-1.890625 -0.734375,-2.671875 -0.296875,-0.484375 -0.671875,-0.828125 -1.0625,-1.125 1.78125,-0.9375 2.875,-2.453125 2.875,-4.40625 z m -4.3125,4.390625 c -0.40625,0.140625 -0.796875,0.1875 -1.265625,0.1875 -0.34375,0 -0.671875,0.03125 -1.125,-0.125 0.25,-0.171875 0.625,-0.21875 1.140625,-0.21875 0.453125,0 0.90625,0.04687 1.25,0.15625 z m 3.015625,-4.609375 c 0,1.359375 -0.671875,3.34375 -2.28125,4.25 C 9.984375,-10.5625 9.34375,-10.6875 8.796875,-10.6875 c -0.515625,0 -2,-0.04687 -2,0.75 0,0.671875 1.359375,0.59375 1.78125,0.59375 0.640625,0 1.203125,-0.140625 1.8125,-0.328125 0.78125,0.65625 1.125,1.5 1.125,2.734375 0,1.4375 -0.390625,2.59375 -0.859375,3.671875 C 9.84375,-1.4375 7.90625,-0.25 6.1875,-0.25 c -1.796875,0 -2.75,-1.4375 -2.75,-3.125 0,-0.21875 0,-0.546875 0.109375,-0.90625 l 1.609375,-6.515625 c 0.8125,-3.25 2.890625,-6.171875 5.296875,-6.171875 1.78125,0 2.28125,1.234375 2.28125,2.328125 z m 0,0"
             id="path30" />
        </g>
      </g>
    </g>
    <g
       inkscape:label=""
       id="g35"
       transform="translate(64.062585,152.14797)">
      <g
         fill="#000000"
         fill-opacity="1"
         id="g34"
         transform="matrix(0.352778,0,0,0.352778,-0.868451,-0.614936)">
        <g
           id="g33"
           transform="translate(1.993,12.665)">
          <path
             d="m 9.375,-3.015625 c -0.0625,-1.21875 -0.109375,-3.125 -1.046875,-5.359375 -0.5,-1.234375 -1.34375,-2.546875 -3.15625,-2.546875 -3.046875,0 -4.703125,3.890625 -4.703125,4.53125 0,0.21875 0.171875,0.21875 0.25,0.21875 0.21875,0 0.21875,-0.046875 0.34375,-0.375 0.53125,-1.53125 2.109375,-2.75 3.8125,-2.75 3.453125,0 3.953125,3.84375 3.953125,6.296875 0,1.5625 -0.171875,2.078125 -0.328125,2.578125 C 8.03125,1.109375 7.21875,4.1875 7.21875,4.875 c 0,0.203125 0.0625,0.421875 0.265625,0.421875 0.375,0 0.59375,-0.8125 0.859375,-1.796875 0.609375,-2.1875 0.75,-3.28125 0.875,-4.265625 0.078125,-0.59375 1.484375,-4.6875 3.4375,-8.578125 0.1875,-0.390625 0.53125,-1.0625 0.53125,-1.140625 0,-0.01563 -0.03125,-0.203125 -0.25,-0.203125 -0.04687,0 -0.171875,0 -0.21875,0.109375 -0.0625,0.04687 -0.921875,1.734375 -1.671875,3.421875 C 10.6875,-6.3125 10.1875,-5.203125 9.375,-3.015625 Z m 0,0"
             id="path33" />
        </g>
      </g>
    </g>
    <g
       id="g244"
       transform="translate(-2.58316)">
      <g
         fill="#000000"
         fill-opacity="1"
         id="g37"
         transform="matrix(0.352778,0,0,0.352778,106.39175,146.24749)">
        <g
           id="g36"
           transform="translate(1.993,22.084999)">
          <path
             d="m 7.453125,-2.953125 c -0.125,0.421875 -0.125,0.46875 -0.46875,0.953125 -0.546875,0.6875 -1.625,1.75 -2.796875,1.75 -1.015625,0 -1.578125,-0.921875 -1.578125,-2.375 0,-1.359375 0.765625,-4.140625 1.234375,-5.1875 0.84375,-1.734375 2,-2.625 2.96875,-2.625 1.640625,0 1.953125,2.03125 1.953125,2.234375 0,0.03125 -0.0625,0.34375 -0.09375,0.390625 z m 1.59375,-6.34375 c -0.28125,-0.640625 -0.9375,-1.625 -2.234375,-1.625 -2.796875,0 -5.828125,3.609375 -5.828125,7.28125 0,2.453125 1.4375,3.890625 3.125,3.890625 1.375,0 2.53125,-1.0625 3.21875,-1.890625 C 7.578125,-0.171875 8.75,0.25 9.484375,0.25 c 0.75,0 1.34375,-0.453125 1.796875,-1.34375 0.390625,-0.84375 0.734375,-2.34375 0.734375,-2.453125 0,-0.125 -0.09375,-0.21875 -0.25,-0.21875 -0.21875,0 -0.25,0.125 -0.34375,0.5 C 11.046875,-1.8125 10.578125,-0.25 9.5625,-0.25 c -0.71875,0 -0.765625,-0.640625 -0.765625,-1.140625 0,-0.5625 0.078125,-0.84375 0.296875,-1.8125 0.171875,-0.609375 0.296875,-1.15625 0.5,-1.875 0.90625,-3.71875 1.140625,-4.609375 1.140625,-4.765625 0,-0.34375 -0.28125,-0.609375 -0.640625,-0.609375 -0.796875,0 -1,0.859375 -1.046875,1.15625 z m 0,0"
             id="path27" />
        </g>
      </g>
      <g
         fill="#000000"
         fill-opacity="1"
         id="g39"
         transform="matrix(0.352778,0,0,0.352778,106.39175,146.24749)">
        <g
           id="g38"
           transform="translate(14.733,13.09)">
          <path
             d="M 7.1875,-2.671875 H 6.875 c -0.171875,1.21875 -0.3125,1.4375 -0.390625,1.53125 C 6.40625,-1 5.171875,-1 4.921875,-1 H 1.625 c 0.609375,-0.671875 1.8125,-1.890625 3.28125,-3.3125 1.046875,-0.984375 2.28125,-2.15625 2.28125,-3.859375 0,-2.03125 -1.625,-3.203125 -3.4375,-3.203125 -1.890625,0 -3.046875,1.65625 -3.046875,3.21875 0,0.671875 0.5,0.75 0.703125,0.75 0.171875,0 0.6875,-0.09375 0.6875,-0.703125 0,-0.53125 -0.4375,-0.6875 -0.6875,-0.6875 -0.09375,0 -0.203125,0.015625 -0.265625,0.046875 0.328125,-1.453125 1.328125,-2.1875 2.375,-2.1875 1.5,0 2.46875,1.1875 2.46875,2.765625 0,1.484375 -0.875,2.78125 -1.859375,3.90625 l -3.421875,3.875 V 0 h 6.0625 z m 0,0"
             id="path28" />
        </g>
      </g>
      <g
         fill="#000000"
         fill-opacity="1"
         id="g40"
         transform="matrix(0.352778,0,0,0.352778,106.39175,146.24749)">
        <g
           id="use14"
           transform="translate(30.011999,22.084999)">
          <path
             d="m 15.9375,-7.953125 c 0.375,0 0.734375,0 0.734375,-0.421875 0,-0.453125 -0.421875,-0.453125 -0.84375,-0.453125 H 1.984375 c -0.421875,0 -0.84375,0 -0.84375,0.453125 0,0.421875 0.375,0.421875 0.75,0.421875 z m -0.109375,4.40625 c 0.421875,0 0.84375,0 0.84375,-0.4375 0,-0.421875 -0.359375,-0.421875 -0.734375,-0.421875 H 1.890625 c -0.375,0 -0.75,0 -0.75,0.421875 0,0.4375 0.421875,0.4375 0.84375,0.4375 z m 0,0"
             id="path29" />
        </g>
      </g>
      <g
         fill="#000000"
         fill-opacity="1"
         id="g41"
         transform="matrix(0.352778,0,0,0.352778,106.39175,146.24749)">
        <g
           id="use15"
           transform="translate(54.740002,22.084999)">
          <path
             d="m 5.71875,-16.578125 c 0.03125,-0.09375 0.078125,-0.25 0.078125,-0.375 0,-0.25 -0.25,-0.25 -0.296875,-0.25 -0.015625,0 -0.921875,0.07813 -1.359375,0.125 C 3.71875,-17.046875 3.34375,-17 2.90625,-16.96875 c -0.609375,0.04687 -0.78125,0.0625 -0.78125,0.515625 0,0.25 0.25,0.25 0.5,0.25 1.265625,0 1.265625,0.21875 1.265625,0.46875 0,0.171875 -0.203125,0.890625 -0.296875,1.34375 L 3,-12.015625 c -0.25,0.984375 -1.65625,6.609375 -1.765625,7.0625 -0.125,0.609375 -0.125,1.03125 -0.125,1.359375 0,2.53125 1.421875,3.84375 3.03125,3.84375 2.875,0 5.84375,-3.6875 5.84375,-7.28125 0,-2.28125 -1.28125,-3.890625 -3.140625,-3.890625 -1.296875,0 -2.453125,1.0625 -2.921875,1.546875 z M 4.15625,-0.25 C 3.375,-0.25 2.5,-0.84375 2.5,-2.78125 2.5,-3.59375 2.578125,-4.0625 3.015625,-5.796875 3.09375,-6.125 3.5,-7.703125 3.59375,-8.03125 3.640625,-8.234375 5.109375,-10.4375 6.796875,-10.4375 7.875,-10.4375 8.375,-9.34375 8.375,-8.046875 8.375,-6.859375 7.6875,-4.0625 7.0625,-2.78125 6.4375,-1.4375 5.296875,-0.25 4.15625,-0.25 Z m 0,0"
             id="path40" />
        </g>
      </g>
      <g
         fill="#000000"
         fill-opacity="1"
         id="g42"
         transform="matrix(0.352778,0,0,0.352778,106.39175,146.24749)">
        <g
           id="use16"
           transform="translate(65.058998,13.09)">
          <path
             d="M 7.1875,-2.671875 H 6.875 c -0.171875,1.21875 -0.3125,1.4375 -0.390625,1.53125 C 6.40625,-1 5.171875,-1 4.921875,-1 H 1.625 c 0.609375,-0.671875 1.8125,-1.890625 3.28125,-3.3125 1.046875,-0.984375 2.28125,-2.15625 2.28125,-3.859375 0,-2.03125 -1.625,-3.203125 -3.4375,-3.203125 -1.890625,0 -3.046875,1.65625 -3.046875,3.21875 0,0.671875 0.5,0.75 0.703125,0.75 0.171875,0 0.6875,-0.09375 0.6875,-0.703125 0,-0.53125 -0.4375,-0.6875 -0.6875,-0.6875 -0.09375,0 -0.203125,0.015625 -0.265625,0.046875 0.328125,-1.453125 1.328125,-2.1875 2.375,-2.1875 1.5,0 2.46875,1.1875 2.46875,2.765625 0,1.484375 -0.875,2.78125 -1.859375,3.90625 l -3.421875,3.875 V 0 h 6.0625 z m 0,0"
             id="path31" />
        </g>
      </g>
      <g
         fill="#000000"
         fill-opacity="1"
         id="g43"
         transform="matrix(0.352778,0,0,0.352778,106.39175,146.24749)">
        <g
           id="use17"
           transform="translate(78.960999,22.084999)">
          <path
             d="m 9.34375,-5.75 h 6.5625 c 0.34375,0 0.765625,0 0.765625,-0.421875 0,-0.4375 -0.390625,-0.4375 -0.765625,-0.4375 H 9.34375 V -13.1875 c 0,-0.34375 0,-0.765625 -0.421875,-0.765625 -0.453125,0 -0.453125,0.390625 -0.453125,0.765625 v 6.578125 h -6.5625 c -0.34375,0 -0.765625,0 -0.765625,0.421875 0,0.4375 0.390625,0.4375 0.765625,0.4375 h 6.5625 v 6.5625 c 0,0.359375 0,0.78125 0.421875,0.78125 0.453125,0 0.453125,-0.40625 0.453125,-0.78125 z m 0,0"
             id="path32" />
        </g>
      </g>
      <g
         fill="#000000"
         fill-opacity="1"
         id="g44"
         transform="matrix(0.352778,0,0,0.352778,106.39175,146.24749)">
        <g
           id="use18"
           transform="translate(102.311,22.084999)">
          <path
             d="m 9.6875,-9.3125 c -0.46875,0 -0.6875,0 -1.03125,0.296875 C 8.5,-8.890625 8.234375,-8.53125 8.234375,-8.125 c 0,0.5 0.359375,0.796875 0.828125,0.796875 0.609375,0 1.265625,-0.5 1.265625,-1.5 0,-1.1875 -1.140625,-2.09375 -2.84375,-2.09375 -3.25,0 -6.5,3.53125 -6.5,7.0625 0,2.15625 1.34375,4.109375 3.875,4.109375 3.375,0 5.5,-2.625 5.5,-2.953125 0,-0.140625 -0.15625,-0.265625 -0.25,-0.265625 -0.07813,0 -0.09375,0.015625 -0.328125,0.25 C 8.203125,-0.625 5.84375,-0.25 4.90625,-0.25 c -1.703125,0 -2.25,-1.484375 -2.25,-2.71875 0,-0.875 0.421875,-3.28125 1.3125,-4.96875 0.640625,-1.15625 1.984375,-2.5 3.546875,-2.5 0.3125,0 1.671875,0.04687 2.171875,1.125 z m 0,0"
             id="path43" />
        </g>
      </g>
      <g
         fill="#000000"
         fill-opacity="1"
         id="g45"
         transform="matrix(0.352778,0,0,0.352778,106.39175,146.24749)">
        <g
           id="use19"
           transform="translate(112.757,13.09)">
          <path
             d="M 7.1875,-2.671875 H 6.875 c -0.171875,1.21875 -0.3125,1.4375 -0.390625,1.53125 C 6.40625,-1 5.171875,-1 4.921875,-1 H 1.625 c 0.609375,-0.671875 1.8125,-1.890625 3.28125,-3.3125 1.046875,-0.984375 2.28125,-2.15625 2.28125,-3.859375 0,-2.03125 -1.625,-3.203125 -3.4375,-3.203125 -1.890625,0 -3.046875,1.65625 -3.046875,3.21875 0,0.671875 0.5,0.75 0.703125,0.75 0.171875,0 0.6875,-0.09375 0.6875,-0.703125 0,-0.53125 -0.4375,-0.6875 -0.6875,-0.6875 -0.09375,0 -0.203125,0.015625 -0.265625,0.046875 0.328125,-1.453125 1.328125,-2.1875 2.375,-2.1875 1.5,0 2.46875,1.1875 2.46875,2.765625 0,1.484375 -0.875,2.78125 -1.859375,3.90625 l -3.421875,3.875 V 0 h 6.0625 z m 0,0"
             id="path34" />
        </g>
      </g>
      <g
         id="g243">
        <g
           fill="#000000"
           fill-opacity="1"
           id="g46"
           transform="matrix(0.352778,0,0,0.352778,106.39175,146.24749)">
          <g
             id="use20"
             transform="translate(126.658,22.084999)">
            <path
               d="m 16.328125,-5.703125 c 0.421875,0 0.875,0 0.875,-0.484375 0,-0.5 -0.453125,-0.5 -0.875,-0.5 H 2.921875 c -0.421875,0 -0.859375,0 -0.859375,0.5 0,0.484375 0.4375,0.484375 0.859375,0.484375 z m 0,0"
               id="path35" />
          </g>
        </g>
      </g>
      <g
         fill="#000000"
         fill-opacity="1"
         id="g47"
         transform="matrix(0.352778,0,0,0.352778,106.39175,146.24749)">
        <g
           id="use21"
           transform="translate(151.446,22.084999)">
          <path
             d="m 10.328125,-3.84375 h -0.4375 C 9.640625,-2.078125 9.4375,-1.78125 9.34375,-1.640625 9.21875,-1.4375 7.4375,-1.4375 7.09375,-1.4375 H 2.328125 c 0.890625,-0.96875 2.625,-2.71875 4.734375,-4.75 1.515625,-1.4375 3.265625,-3.125 3.265625,-5.578125 C 10.328125,-14.6875 8,-16.375 5.40625,-16.375 c -2.734375,0 -4.390625,2.390625 -4.390625,4.625 0,0.96875 0.71875,1.09375 1.015625,1.09375 0.25,0 0.984375,-0.140625 0.984375,-1.015625 0,-0.765625 -0.640625,-0.984375 -0.984375,-0.984375 -0.140625,0 -0.296875,0.01563 -0.390625,0.0625 0.46875,-2.09375 1.90625,-3.140625 3.421875,-3.140625 2.15625,0 3.5625,1.703125 3.5625,3.96875 0,2.15625 -1.265625,4.015625 -2.671875,5.625 L 1.015625,-0.5625 V 0 h 8.71875 z m 0,0"
             id="path36" />
        </g>
      </g>
      <g
         fill="#000000"
         fill-opacity="1"
         id="g48"
         transform="matrix(0.352778,0,0,0.352778,106.39175,146.24749)">
        <g
           id="use22"
           transform="translate(162.813,22.084999)">
          <path
             d="m 5.71875,-16.578125 c 0.03125,-0.09375 0.078125,-0.25 0.078125,-0.375 0,-0.25 -0.25,-0.25 -0.296875,-0.25 -0.015625,0 -0.921875,0.07813 -1.359375,0.125 C 3.71875,-17.046875 3.34375,-17 2.90625,-16.96875 c -0.609375,0.04687 -0.78125,0.0625 -0.78125,0.515625 0,0.25 0.25,0.25 0.5,0.25 1.265625,0 1.265625,0.21875 1.265625,0.46875 0,0.171875 -0.203125,0.890625 -0.296875,1.34375 L 3,-12.015625 c -0.25,0.984375 -1.65625,6.609375 -1.765625,7.0625 -0.125,0.609375 -0.125,1.03125 -0.125,1.359375 0,2.53125 1.421875,3.84375 3.03125,3.84375 2.875,0 5.84375,-3.6875 5.84375,-7.28125 0,-2.28125 -1.28125,-3.890625 -3.140625,-3.890625 -1.296875,0 -2.453125,1.0625 -2.921875,1.546875 z M 4.15625,-0.25 C 3.375,-0.25 2.5,-0.84375 2.5,-2.78125 2.5,-3.59375 2.578125,-4.0625 3.015625,-5.796875 3.09375,-6.125 3.5,-7.703125 3.59375,-8.03125 3.640625,-8.234375 5.109375,-10.4375 6.796875,-10.4375 7.875,-10.4375 8.375,-9.34375 8.375,-8.046875 8.375,-6.859375 7.6875,-4.0625 7.0625,-2.78125 6.4375,-1.4375 5.296875,-0.25 4.15625,-0.25 Z m 0,0"
             id="path37" />
        </g>
        <g
           id="use23"
           transform="translate(173.13187,22.084999)">
          <path
             d="m 9.6875,-9.3125 c -0.46875,0 -0.6875,0 -1.03125,0.296875 C 8.5,-8.890625 8.234375,-8.53125 8.234375,-8.125 c 0,0.5 0.359375,0.796875 0.828125,0.796875 0.609375,0 1.265625,-0.5 1.265625,-1.5 0,-1.1875 -1.140625,-2.09375 -2.84375,-2.09375 -3.25,0 -6.5,3.53125 -6.5,7.0625 0,2.15625 1.34375,4.109375 3.875,4.109375 3.375,0 5.5,-2.625 5.5,-2.953125 0,-0.140625 -0.15625,-0.265625 -0.25,-0.265625 -0.07813,0 -0.09375,0.015625 -0.328125,0.25 C 8.203125,-0.625 5.84375,-0.25 4.90625,-0.25 c -1.703125,0 -2.25,-1.484375 -2.25,-2.71875 0,-0.875 0.421875,-3.28125 1.3125,-4.96875 0.640625,-1.15625 1.984375,-2.5 3.546875,-2.5 0.3125,0 1.671875,0.04687 2.171875,1.125 z m 0,0"
             id="path38" />
        </g>
      </g>
      <g
         fill="#000000"
         fill-opacity="1"
         id="g49"
         transform="matrix(0.352778,0,0,0.352778,106.39175,146.24749)">
        <g
           id="use24"
           transform="translate(187.709,22.084999)">
          <path
             d="m 8.65625,-8.671875 c -0.484375,0 -1.171875,0 -1.171875,0.859375 0,0.703125 0.5625,0.90625 0.890625,0.90625 0.171875,0 0.890625,-0.078125 0.890625,-0.953125 0,-1.75 -1.6875,-3.09375 -3.59375,-3.09375 -2.625,0 -4.859375,2.421875 -4.859375,5.59375 0,3.296875 2.328125,5.5625 4.859375,5.5625 3.078125,0 3.84375,-2.859375 3.84375,-3.125 0,-0.09375 -0.03125,-0.171875 -0.203125,-0.171875 -0.171875,0 -0.1875,0.015625 -0.296875,0.34375 -0.640625,2 -2.046875,2.5 -3.125,2.5 -1.578125,0 -3.484375,-1.453125 -3.484375,-5.125 0,-3.765625 1.828125,-5.125 3.296875,-5.125 0.96875,0 2.40625,0.46875 2.953125,1.828125 z m 0,0"
             id="path39" />
        </g>
        <g
           id="use25"
           transform="translate(197.78247,22.084999)">
          <path
             d="m 10.6875,-5.296875 c 0,-3.171875 -2.3125,-5.65625 -5.015625,-5.65625 -2.703125,0 -5,2.484375 -5,5.65625 0,3.109375 2.296875,5.5 5,5.5 2.703125,0 5.015625,-2.390625 5.015625,-5.5 z M 5.671875,-0.25 c -1.15625,0 -2.15625,-0.6875 -2.71875,-1.65625 C 2.328125,-3.015625 2.25,-4.40625 2.25,-5.5 c 0,-1.046875 0.046875,-2.328125 0.703125,-3.453125 0.484375,-0.8125 1.453125,-1.609375 2.71875,-1.609375 1.125,0 2.0625,0.625 2.65625,1.5 0.765625,1.15625 0.765625,2.796875 0.765625,3.5625 0,0.96875 -0.046875,2.453125 -0.71875,3.640625 C 7.6875,-0.71875 6.609375,-0.25 5.671875,-0.25 Z m 0,0"
             id="path48" />
        </g>
        <g
           id="use26"
           transform="translate(209.14984,22.084999)">
          <path
             d="m 7.65625,-10.453125 c 0,-0.453125 -0.03125,-0.46875 -0.171875,-0.46875 -0.09375,0 -0.125,0.01563 -0.421875,0.390625 -0.078125,0.09375 -0.296875,0.34375 -0.375,0.4375 -0.796875,-0.828125 -1.90625,-0.859375 -2.328125,-0.859375 -2.75,0 -3.734375,1.4375 -3.734375,2.875 0,2.234375 2.515625,2.75 3.234375,2.90625 1.5625,0.3125 2.109375,0.40625 2.640625,0.859375 0.3125,0.296875 0.859375,0.84375 0.859375,1.734375 0,1.046875 -0.59375,2.375 -2.875,2.375 -2.15625,0 -2.921875,-1.625 -3.375,-3.8125 -0.0625,-0.34375 -0.0625,-0.375 -0.265625,-0.375 -0.203125,0 -0.21875,0.03125 -0.21875,0.53125 v 3.5625 c 0,0.453125 0.015625,0.46875 0.171875,0.46875 0.125,0 0.140625,-0.015625 0.265625,-0.21875 0.15625,-0.21875 0.53125,-0.828125 0.671875,-1.0625 0.5,0.65625 1.359375,1.3125 2.75,1.3125 C 6.9375,0.203125 8.25,-1.140625 8.25,-3.078125 8.25,-4.34375 7.578125,-5 7.265625,-5.296875 6.515625,-6.078125 5.65625,-6.25 4.609375,-6.4375 3.25,-6.734375 1.515625,-7.09375 1.515625,-8.59375 c 0,-0.65625 0.34375,-2.015625 2.84375,-2.015625 2.65625,0 2.796875,2.484375 2.859375,3.28125 0.015625,0.109375 0.140625,0.140625 0.21875,0.140625 0.21875,0 0.21875,-0.078125 0.21875,-0.5 z m 0,0"
             id="path41" />
        </g>
      </g>
      <g
         fill="#000000"
         fill-opacity="1"
         id="g27"
         transform="matrix(0.352778,0,0,0.352778,106.39175,146.24749)">
        <g
           id="use27"
           transform="translate(222.188,22.084999)">
          <path
             d="m 11.46875,-6.265625 c 0,-2.40625 -1.359375,-4.65625 -3.984375,-4.65625 -3.25,0 -6.5,3.53125 -6.5,7.0625 0,2.15625 1.34375,4.109375 3.875,4.109375 1.53125,0 3.375,-0.59375 5.125,-2.078125 0.34375,1.375 1.125,2.078125 2.1875,2.078125 1.328125,0 2,-1.390625 2,-1.71875 0,-0.21875 -0.171875,-0.21875 -0.25,-0.21875 -0.1875,0 -0.21875,0.078125 -0.296875,0.28125 -0.21875,0.609375 -0.78125,1.15625 -1.390625,1.15625 -0.765625,0 -0.765625,-1.578125 -0.765625,-3.09375 2.53125,-3.03125 3.125,-6.140625 3.125,-6.171875 0,-0.21875 -0.203125,-0.21875 -0.265625,-0.21875 -0.234375,0 -0.25,0.0625 -0.34375,0.515625 -0.328125,1.09375 -0.96875,3.03125 -2.515625,5.0625 z m -1.5625,3.84375 c -2.171875,1.953125 -4.125,2.171875 -5,2.171875 -1.765625,0 -2.25,-1.5625 -2.25,-2.71875 0,-1.078125 0.546875,-3.59375 1.3125,-4.96875 1.015625,-1.734375 2.40625,-2.5 3.515625,-2.5 2.40625,0 2.40625,3.15625 2.40625,5.234375 0,0.625 -0.03125,1.265625 -0.03125,1.875 0,0.5 0.03125,0.625 0.046875,0.90625 z m 0,0"
             id="path42" />
        </g>
      </g>
    </g>
    <g
       inkscape:label=""
       id="g189"
       transform="translate(104.85894,159.50997)">
      <g
         fill="#000000"
         fill-opacity="1"
         id="g165"
         transform="matrix(0.352778,0,0,0.352778,-1.12448,-0.706217)">
        <g
           id="g164"
           transform="translate(23.200001,19.205)">
          <path
             d="m 7.453125,-2.953125 c -0.125,0.421875 -0.125,0.46875 -0.46875,0.953125 -0.546875,0.6875 -1.625,1.75 -2.796875,1.75 -1.015625,0 -1.578125,-0.921875 -1.578125,-2.375 0,-1.359375 0.765625,-4.140625 1.234375,-5.1875 0.84375,-1.734375 2,-2.625 2.96875,-2.625 1.640625,0 1.953125,2.03125 1.953125,2.234375 0,0.03125 -0.0625,0.34375 -0.09375,0.390625 z m 1.59375,-6.34375 c -0.28125,-0.640625 -0.9375,-1.625 -2.234375,-1.625 -2.796875,0 -5.828125,3.609375 -5.828125,7.28125 0,2.453125 1.4375,3.890625 3.125,3.890625 1.375,0 2.53125,-1.0625 3.21875,-1.890625 C 7.578125,-0.171875 8.75,0.25 9.484375,0.25 c 0.75,0 1.34375,-0.453125 1.796875,-1.34375 0.390625,-0.84375 0.734375,-2.34375 0.734375,-2.453125 0,-0.125 -0.09375,-0.21875 -0.25,-0.21875 -0.21875,0 -0.25,0.125 -0.34375,0.5 C 11.046875,-1.8125 10.578125,-0.25 9.5625,-0.25 c -0.71875,0 -0.765625,-0.640625 -0.765625,-1.140625 0,-0.5625 0.078125,-0.84375 0.296875,-1.8125 0.171875,-0.609375 0.296875,-1.15625 0.5,-1.875 0.90625,-3.71875 1.140625,-4.609375 1.140625,-4.765625 0,-0.34375 -0.28125,-0.609375 -0.640625,-0.609375 -0.796875,0 -1,0.859375 -1.046875,1.15625 z m 0,0"
             id="path26" />
        </g>
      </g>
      <path
         fill-rule="nonzero"
         fill="#000000"
         fill-opacity="1"
         d="M 0,28.295 H 52.765625 V 27.255937 H 0 Z m 0,0"
         id="path11"
         transform="scale(0.352778)" />
      <g
         fill="#000000"
         fill-opacity="1"
         id="g170"
         transform="matrix(0.352778,0,0,0.352778,-1.12448,-0.706217)">
        <g
           id="g166"
           transform="translate(3.188,52.977001)">
          <path
             d="m 5.65625,-4.953125 c 0.421875,0.078125 1.078125,0.21875 1.234375,0.25 0.328125,0.09375 1.4375,0.484375 1.4375,1.6875 C 8.328125,-2.25 7.625,-0.25 4.765625,-0.25 4.234375,-0.25 2.375,-0.328125 1.890625,-1.6875 2.875,-1.5625 3.375,-2.328125 3.375,-2.875 c 0,-0.515625 -0.359375,-0.796875 -0.84375,-0.796875 -0.546875,0 -1.265625,0.421875 -1.265625,1.546875 0,1.453125 1.484375,2.375 3.46875,2.375 3.765625,0 4.875,-2.78125 4.875,-4.0625 0,-0.375 0,-1.0625 -0.78125,-1.859375 -0.625,-0.59375 -1.21875,-0.71875 -2.5625,-1 C 5.59375,-6.8125 4.53125,-7.03125 4.53125,-8.15625 c 0,-0.5 0.453125,-2.28125 2.796875,-2.28125 1.046875,0 2.0625,0.40625 2.3125,1.296875 -1.09375,0 -1.140625,0.9375 -1.140625,0.96875 0,0.515625 0.46875,0.65625 0.6875,0.65625 0.359375,0 1.046875,-0.265625 1.046875,-1.3125 0,-1.03125 -0.9375,-2.09375 -2.875,-2.09375 -3.25,0 -4.109375,2.546875 -4.109375,3.5625 0,1.875 1.828125,2.28125 2.40625,2.40625 z m 0,0"
             id="path165" />
        </g>
        <g
           id="g167"
           transform="translate(14.619811,52.977001)">
          <path
             d="m 4.4375,-5.75 c 0.671875,0 2.359375,-0.046875 3.546875,-0.5 1.875,-0.71875 2.046875,-2.15625 2.046875,-2.59375 0,-1.09375 -0.9375,-2.078125 -2.578125,-2.078125 -2.59375,0 -6.34375,2.34375 -6.34375,6.765625 0,2.59375 1.5,4.40625 3.75,4.40625 3.375,0 5.5,-2.625 5.5,-2.953125 0,-0.140625 -0.15625,-0.265625 -0.25,-0.265625 -0.07813,0 -0.09375,0.015625 -0.328125,0.25 C 8.203125,-0.625 5.84375,-0.25 4.90625,-0.25 3.5,-0.25 2.75,-1.359375 2.75,-3.203125 2.75,-3.546875 2.75,-4.15625 3.125,-5.75 Z M 3.25,-6.25 c 1.0625,-3.8125 3.421875,-4.1875 4.203125,-4.1875 1.09375,0 1.84375,0.65625 1.84375,1.59375 0,2.59375 -3.96875,2.59375 -5.015625,2.59375 z m 0,0"
             id="path166" />
        </g>
        <g
           id="g168"
           transform="translate(25.868196,52.977001)">
          <path
             d="M 5.109375,-7.265625 C 5.15625,-7.40625 5.78125,-8.65625 6.6875,-9.4375 c 0.640625,-0.59375 1.484375,-1 2.453125,-1 1,0 1.34375,0.75 1.34375,1.734375 0,1.421875 -1.015625,4.25 -1.515625,5.578125 C 8.75,-2.53125 8.625,-2.203125 8.625,-1.765625 c 0,1.125 0.765625,2.015625 1.953125,2.015625 2.3125,0 3.171875,-3.640625 3.171875,-3.796875 0,-0.125 -0.09375,-0.21875 -0.25,-0.21875 -0.21875,0 -0.234375,0.078125 -0.359375,0.5 C 12.5625,-1.234375 11.625,-0.25 10.65625,-0.25 c -0.25,0 -0.640625,-0.015625 -0.640625,-0.8125 0,-0.625 0.265625,-1.359375 0.421875,-1.71875 0.484375,-1.359375 1.53125,-4.125 1.53125,-5.546875 0,-1.484375 -0.859375,-2.59375 -2.75,-2.59375 -2.203125,0 -3.375,1.546875 -3.8125,2.171875 -0.078125,-1.40625 -1.09375,-2.171875 -2.1875,-2.171875 -0.796875,0 -1.328125,0.46875 -1.75,1.3125 -0.453125,0.890625 -0.796875,2.375 -0.796875,2.46875 0,0.109375 0.09375,0.234375 0.265625,0.234375 0.203125,0 0.234375,-0.03125 0.375,-0.609375 0.390625,-1.5 0.84375,-2.921875 1.828125,-2.921875 0.578125,0 0.78125,0.40625 0.78125,1.140625 0,0.546875 -0.25,1.515625 -0.421875,2.28125 L 2.796875,-4.34375 c -0.09375,0.484375 -0.375,1.59375 -0.5,2.046875 C 2.125,-1.65625 1.859375,-0.5 1.859375,-0.375 1.859375,-0.03125 2.125,0.25 2.5,0.25 c 0.296875,0 0.640625,-0.15625 0.84375,-0.515625 0.046875,-0.125 0.28125,-1 0.390625,-1.5 l 0.546875,-2.21875 z m 0,0"
             id="path167" />
        </g>
        <g
           id="g169"
           transform="translate(40.356255,52.977001)">
          <path
             d="m 11.46875,-6.265625 c 0,-2.40625 -1.359375,-4.65625 -3.984375,-4.65625 -3.25,0 -6.5,3.53125 -6.5,7.0625 0,2.15625 1.34375,4.109375 3.875,4.109375 1.53125,0 3.375,-0.59375 5.125,-2.078125 0.34375,1.375 1.125,2.078125 2.1875,2.078125 1.328125,0 2,-1.390625 2,-1.71875 0,-0.21875 -0.171875,-0.21875 -0.25,-0.21875 -0.1875,0 -0.21875,0.078125 -0.296875,0.28125 -0.21875,0.609375 -0.78125,1.15625 -1.390625,1.15625 -0.765625,0 -0.765625,-1.578125 -0.765625,-3.09375 2.53125,-3.03125 3.125,-6.140625 3.125,-6.171875 0,-0.21875 -0.203125,-0.21875 -0.265625,-0.21875 -0.234375,0 -0.25,0.0625 -0.34375,0.515625 -0.328125,1.09375 -0.96875,3.03125 -2.515625,5.0625 z m -1.5625,3.84375 c -2.171875,1.953125 -4.125,2.171875 -5,2.171875 -1.765625,0 -2.25,-1.5625 -2.25,-2.71875 0,-1.078125 0.546875,-3.59375 1.3125,-4.96875 1.015625,-1.734375 2.40625,-2.5 3.515625,-2.5 2.40625,0 2.40625,3.15625 2.40625,5.234375 0,0.625 -0.03125,1.265625 -0.03125,1.875 0,0.5 0.03125,0.625 0.046875,0.90625 z m 0,0"
             id="path168" />
        </g>
      </g>
      <g
         fill="#000000"
         fill-opacity="1"
         id="g172"
         transform="matrix(0.352778,0,0,0.352778,-1.12448,-0.706217)">
        <g
           id="g171"
           transform="translate(64.032997,35.973999)">
          <path
             d="m 15.9375,-7.953125 c 0.375,0 0.734375,0 0.734375,-0.421875 0,-0.453125 -0.421875,-0.453125 -0.84375,-0.453125 H 1.984375 c -0.421875,0 -0.84375,0 -0.84375,0.453125 0,0.421875 0.375,0.421875 0.75,0.421875 z m -0.109375,4.40625 c 0.421875,0 0.84375,0 0.84375,-0.4375 0,-0.421875 -0.359375,-0.421875 -0.734375,-0.421875 H 1.890625 c -0.375,0 -0.75,0 -0.75,0.421875 0,0.4375 0.421875,0.4375 0.84375,0.4375 z m 0,0"
             id="path170" />
        </g>
      </g>
      <g
         fill="#000000"
         fill-opacity="1"
         id="g174"
         transform="matrix(0.352778,0,0,0.352778,-1.12448,-0.706217)">
        <g
           id="g173"
           transform="translate(110.919,19.205)">
          <path
             d="m 5.71875,-16.578125 c 0.03125,-0.09375 0.078125,-0.25 0.078125,-0.375 0,-0.25 -0.25,-0.25 -0.296875,-0.25 -0.015625,0 -0.921875,0.07813 -1.359375,0.125 C 3.71875,-17.046875 3.34375,-17 2.90625,-16.96875 c -0.609375,0.04687 -0.78125,0.0625 -0.78125,0.515625 0,0.25 0.25,0.25 0.5,0.25 1.265625,0 1.265625,0.21875 1.265625,0.46875 0,0.171875 -0.203125,0.890625 -0.296875,1.34375 L 3,-12.015625 c -0.25,0.984375 -1.65625,6.609375 -1.765625,7.0625 -0.125,0.609375 -0.125,1.03125 -0.125,1.359375 0,2.53125 1.421875,3.84375 3.03125,3.84375 2.875,0 5.84375,-3.6875 5.84375,-7.28125 0,-2.28125 -1.28125,-3.890625 -3.140625,-3.890625 -1.296875,0 -2.453125,1.0625 -2.921875,1.546875 z M 4.15625,-0.25 C 3.375,-0.25 2.5,-0.84375 2.5,-2.78125 2.5,-3.59375 2.578125,-4.0625 3.015625,-5.796875 3.09375,-6.125 3.5,-7.703125 3.59375,-8.03125 3.640625,-8.234375 5.109375,-10.4375 6.796875,-10.4375 7.875,-10.4375 8.375,-9.34375 8.375,-8.046875 8.375,-6.859375 7.6875,-4.0625 7.0625,-2.78125 6.4375,-1.4375 5.296875,-0.25 4.15625,-0.25 Z m 0,0"
             id="path172" />
        </g>
      </g>
      <path
         fill-rule="nonzero"
         fill="#000000"
         fill-opacity="1"
         d="M 86.769531,28.295 H 139.01172 V 27.255937 H 86.769531 Z m 0,0"
         id="path174"
         transform="scale(0.352778)" />
      <g
         fill="#000000"
         fill-opacity="1"
         id="g179"
         transform="matrix(0.352778,0,0,0.352778,-1.12448,-0.706217)">
        <g
           id="g175"
           transform="translate(89.956001,52.977001)">
          <path
             d="m 5.65625,-4.953125 c 0.421875,0.078125 1.078125,0.21875 1.234375,0.25 0.328125,0.09375 1.4375,0.484375 1.4375,1.6875 C 8.328125,-2.25 7.625,-0.25 4.765625,-0.25 4.234375,-0.25 2.375,-0.328125 1.890625,-1.6875 2.875,-1.5625 3.375,-2.328125 3.375,-2.875 c 0,-0.515625 -0.359375,-0.796875 -0.84375,-0.796875 -0.546875,0 -1.265625,0.421875 -1.265625,1.546875 0,1.453125 1.484375,2.375 3.46875,2.375 3.765625,0 4.875,-2.78125 4.875,-4.0625 0,-0.375 0,-1.0625 -0.78125,-1.859375 -0.625,-0.59375 -1.21875,-0.71875 -2.5625,-1 C 5.59375,-6.8125 4.53125,-7.03125 4.53125,-8.15625 c 0,-0.5 0.453125,-2.28125 2.796875,-2.28125 1.046875,0 2.0625,0.40625 2.3125,1.296875 -1.09375,0 -1.140625,0.9375 -1.140625,0.96875 0,0.515625 0.46875,0.65625 0.6875,0.65625 0.359375,0 1.046875,-0.265625 1.046875,-1.3125 0,-1.03125 -0.9375,-2.09375 -2.875,-2.09375 -3.25,0 -4.109375,2.546875 -4.109375,3.5625 0,1.875 1.828125,2.28125 2.40625,2.40625 z m 0,0"
             id="path175" />
        </g>
        <g
           id="g176"
           transform="translate(101.38781,52.977001)">
          <path
             d="m 4.4375,-5.75 c 0.671875,0 2.359375,-0.046875 3.546875,-0.5 1.875,-0.71875 2.046875,-2.15625 2.046875,-2.59375 0,-1.09375 -0.9375,-2.078125 -2.578125,-2.078125 -2.59375,0 -6.34375,2.34375 -6.34375,6.765625 0,2.59375 1.5,4.40625 3.75,4.40625 3.375,0 5.5,-2.625 5.5,-2.953125 0,-0.140625 -0.15625,-0.265625 -0.25,-0.265625 -0.07813,0 -0.09375,0.015625 -0.328125,0.25 C 8.203125,-0.625 5.84375,-0.25 4.90625,-0.25 3.5,-0.25 2.75,-1.359375 2.75,-3.203125 2.75,-3.546875 2.75,-4.15625 3.125,-5.75 Z M 3.25,-6.25 c 1.0625,-3.8125 3.421875,-4.1875 4.203125,-4.1875 1.09375,0 1.84375,0.65625 1.84375,1.59375 0,2.59375 -3.96875,2.59375 -5.015625,2.59375 z m 0,0"
             id="path176" />
        </g>
        <g
           id="g177"
           transform="translate(112.63619,52.977001)">
          <path
             d="M 5.109375,-7.265625 C 5.15625,-7.40625 5.78125,-8.65625 6.6875,-9.4375 c 0.640625,-0.59375 1.484375,-1 2.453125,-1 1,0 1.34375,0.75 1.34375,1.734375 0,1.421875 -1.015625,4.25 -1.515625,5.578125 C 8.75,-2.53125 8.625,-2.203125 8.625,-1.765625 c 0,1.125 0.765625,2.015625 1.953125,2.015625 2.3125,0 3.171875,-3.640625 3.171875,-3.796875 0,-0.125 -0.09375,-0.21875 -0.25,-0.21875 -0.21875,0 -0.234375,0.078125 -0.359375,0.5 C 12.5625,-1.234375 11.625,-0.25 10.65625,-0.25 c -0.25,0 -0.640625,-0.015625 -0.640625,-0.8125 0,-0.625 0.265625,-1.359375 0.421875,-1.71875 0.484375,-1.359375 1.53125,-4.125 1.53125,-5.546875 0,-1.484375 -0.859375,-2.59375 -2.75,-2.59375 -2.203125,0 -3.375,1.546875 -3.8125,2.171875 -0.078125,-1.40625 -1.09375,-2.171875 -2.1875,-2.171875 -0.796875,0 -1.328125,0.46875 -1.75,1.3125 -0.453125,0.890625 -0.796875,2.375 -0.796875,2.46875 0,0.109375 0.09375,0.234375 0.265625,0.234375 0.203125,0 0.234375,-0.03125 0.375,-0.609375 0.390625,-1.5 0.84375,-2.921875 1.828125,-2.921875 0.578125,0 0.78125,0.40625 0.78125,1.140625 0,0.546875 -0.25,1.515625 -0.421875,2.28125 L 2.796875,-4.34375 c -0.09375,0.484375 -0.375,1.59375 -0.5,2.046875 C 2.125,-1.65625 1.859375,-0.5 1.859375,-0.375 1.859375,-0.03125 2.125,0.25 2.5,0.25 c 0.296875,0 0.640625,-0.15625 0.84375,-0.515625 0.046875,-0.125 0.28125,-1 0.390625,-1.5 l 0.546875,-2.21875 z m 0,0"
             id="path177" />
        </g>
        <g
           id="g178"
           transform="translate(127.12425,52.977001)">
          <path
             d="m 14.03125,-14.421875 c 0,-1.484375 -1.265625,-3.046875 -3.53125,-3.046875 -3.1875,0 -5.21875,3.90625 -5.859375,6.484375 L 0.71875,4.5625 c -0.046875,0.203125 0.09375,0.25 0.21875,0.25 0.171875,0 0.296875,-0.03125 0.328125,-0.15625 L 3,-2.28125 C 3.25,-0.890625 4.609375,0.25 6.078125,0.25 c 3.53125,0 6.875,-2.78125 6.875,-6.46875 0,-0.9375 -0.21875,-1.890625 -0.734375,-2.671875 -0.296875,-0.484375 -0.671875,-0.828125 -1.0625,-1.125 1.78125,-0.9375 2.875,-2.453125 2.875,-4.40625 z m -4.3125,4.390625 c -0.40625,0.140625 -0.796875,0.1875 -1.265625,0.1875 -0.34375,0 -0.671875,0.03125 -1.125,-0.125 0.25,-0.171875 0.625,-0.21875 1.140625,-0.21875 0.453125,0 0.90625,0.04687 1.25,0.15625 z m 3.015625,-4.609375 c 0,1.359375 -0.671875,3.34375 -2.28125,4.25 C 9.984375,-10.5625 9.34375,-10.6875 8.796875,-10.6875 c -0.515625,0 -2,-0.04687 -2,0.75 0,0.671875 1.359375,0.59375 1.78125,0.59375 0.640625,0 1.203125,-0.140625 1.8125,-0.328125 0.78125,0.65625 1.125,1.5 1.125,2.734375 0,1.4375 -0.390625,2.59375 -0.859375,3.671875 C 9.84375,-1.4375 7.90625,-0.25 6.1875,-0.25 c -1.796875,0 -2.75,-1.4375 -2.75,-3.125 0,-0.21875 0,-0.546875 0.109375,-0.90625 l 1.609375,-6.515625 c 0.8125,-3.25 2.890625,-6.171875 5.296875,-6.171875 1.78125,0 2.28125,1.234375 2.28125,2.328125 z m 0,0"
             id="path178" />
        </g>
      </g>
      <g
         fill="#000000"
         fill-opacity="1"
         id="g181"
         transform="matrix(0.352778,0,0,0.352778,-1.12448,-0.706217)">
        <g
           id="g180"
           transform="translate(150.28101,35.973999)">
          <path
             d="m 15.9375,-7.953125 c 0.375,0 0.734375,0 0.734375,-0.421875 0,-0.453125 -0.421875,-0.453125 -0.84375,-0.453125 H 1.984375 c -0.421875,0 -0.84375,0 -0.84375,0.453125 0,0.421875 0.375,0.421875 0.75,0.421875 z m -0.109375,4.40625 c 0.421875,0 0.84375,0 0.84375,-0.4375 0,-0.421875 -0.359375,-0.421875 -0.734375,-0.421875 H 1.890625 c -0.375,0 -0.75,0 -0.75,0.421875 0,0.4375 0.421875,0.4375 0.84375,0.4375 z m 0,0"
             id="path179" />
        </g>
      </g>
      <g
         fill="#000000"
         fill-opacity="1"
         id="g183"
         transform="matrix(0.352778,0,0,0.352778,-1.12448,-0.706217)">
        <g
           id="g182"
           transform="translate(196.535,19.205)">
          <path
             d="m 9.6875,-9.3125 c -0.46875,0 -0.6875,0 -1.03125,0.296875 C 8.5,-8.890625 8.234375,-8.53125 8.234375,-8.125 c 0,0.5 0.359375,0.796875 0.828125,0.796875 0.609375,0 1.265625,-0.5 1.265625,-1.5 0,-1.1875 -1.140625,-2.09375 -2.84375,-2.09375 -3.25,0 -6.5,3.53125 -6.5,7.0625 0,2.15625 1.34375,4.109375 3.875,4.109375 3.375,0 5.5,-2.625 5.5,-2.953125 0,-0.140625 -0.15625,-0.265625 -0.25,-0.265625 -0.07813,0 -0.09375,0.015625 -0.328125,0.25 C 8.203125,-0.625 5.84375,-0.25 4.90625,-0.25 c -1.703125,0 -2.25,-1.484375 -2.25,-2.71875 0,-0.875 0.421875,-3.28125 1.3125,-4.96875 0.640625,-1.15625 1.984375,-2.5 3.546875,-2.5 0.3125,0 1.671875,0.04687 2.171875,1.125 z m 0,0"
             id="path181" />
        </g>
      </g>
      <path
         fill-rule="nonzero"
         fill="#000000"
         fill-opacity="1"
         d="M 173.01562,28.295 H 224.125 v -1.039063 h -51.10938 z m 0,0"
         id="path22"
         transform="scale(0.352778)" />
      <g
         fill="#000000"
         fill-opacity="1"
         id="g188"
         transform="matrix(0.352778,0,0,0.352778,-1.12448,-0.706217)">
        <g
           id="g184"
           transform="translate(176.205,52.977001)">
          <path
             d="m 5.65625,-4.953125 c 0.421875,0.078125 1.078125,0.21875 1.234375,0.25 0.328125,0.09375 1.4375,0.484375 1.4375,1.6875 C 8.328125,-2.25 7.625,-0.25 4.765625,-0.25 4.234375,-0.25 2.375,-0.328125 1.890625,-1.6875 2.875,-1.5625 3.375,-2.328125 3.375,-2.875 c 0,-0.515625 -0.359375,-0.796875 -0.84375,-0.796875 -0.546875,0 -1.265625,0.421875 -1.265625,1.546875 0,1.453125 1.484375,2.375 3.46875,2.375 3.765625,0 4.875,-2.78125 4.875,-4.0625 0,-0.375 0,-1.0625 -0.78125,-1.859375 -0.625,-0.59375 -1.21875,-0.71875 -2.5625,-1 C 5.59375,-6.8125 4.53125,-7.03125 4.53125,-8.15625 c 0,-0.5 0.453125,-2.28125 2.796875,-2.28125 1.046875,0 2.0625,0.40625 2.3125,1.296875 -1.09375,0 -1.140625,0.9375 -1.140625,0.96875 0,0.515625 0.46875,0.65625 0.6875,0.65625 0.359375,0 1.046875,-0.265625 1.046875,-1.3125 0,-1.03125 -0.9375,-2.09375 -2.875,-2.09375 -3.25,0 -4.109375,2.546875 -4.109375,3.5625 0,1.875 1.828125,2.28125 2.40625,2.40625 z m 0,0"
             id="path183" />
        </g>
        <g
           id="g185"
           transform="translate(187.63681,52.977001)">
          <path
             d="m 4.4375,-5.75 c 0.671875,0 2.359375,-0.046875 3.546875,-0.5 1.875,-0.71875 2.046875,-2.15625 2.046875,-2.59375 0,-1.09375 -0.9375,-2.078125 -2.578125,-2.078125 -2.59375,0 -6.34375,2.34375 -6.34375,6.765625 0,2.59375 1.5,4.40625 3.75,4.40625 3.375,0 5.5,-2.625 5.5,-2.953125 0,-0.140625 -0.15625,-0.265625 -0.25,-0.265625 -0.07813,0 -0.09375,0.015625 -0.328125,0.25 C 8.203125,-0.625 5.84375,-0.25 4.90625,-0.25 3.5,-0.25 2.75,-1.359375 2.75,-3.203125 2.75,-3.546875 2.75,-4.15625 3.125,-5.75 Z M 3.25,-6.25 c 1.0625,-3.8125 3.421875,-4.1875 4.203125,-4.1875 1.09375,0 1.84375,0.65625 1.84375,1.59375 0,2.59375 -3.96875,2.59375 -5.015625,2.59375 z m 0,0"
             id="path184" />
        </g>
        <g
           id="g186"
           transform="translate(198.88519,52.977001)">
          <path
             d="M 5.109375,-7.265625 C 5.15625,-7.40625 5.78125,-8.65625 6.6875,-9.4375 c 0.640625,-0.59375 1.484375,-1 2.453125,-1 1,0 1.34375,0.75 1.34375,1.734375 0,1.421875 -1.015625,4.25 -1.515625,5.578125 C 8.75,-2.53125 8.625,-2.203125 8.625,-1.765625 c 0,1.125 0.765625,2.015625 1.953125,2.015625 2.3125,0 3.171875,-3.640625 3.171875,-3.796875 0,-0.125 -0.09375,-0.21875 -0.25,-0.21875 -0.21875,0 -0.234375,0.078125 -0.359375,0.5 C 12.5625,-1.234375 11.625,-0.25 10.65625,-0.25 c -0.25,0 -0.640625,-0.015625 -0.640625,-0.8125 0,-0.625 0.265625,-1.359375 0.421875,-1.71875 0.484375,-1.359375 1.53125,-4.125 1.53125,-5.546875 0,-1.484375 -0.859375,-2.59375 -2.75,-2.59375 -2.203125,0 -3.375,1.546875 -3.8125,2.171875 -0.078125,-1.40625 -1.09375,-2.171875 -2.1875,-2.171875 -0.796875,0 -1.328125,0.46875 -1.75,1.3125 -0.453125,0.890625 -0.796875,2.375 -0.796875,2.46875 0,0.109375 0.09375,0.234375 0.265625,0.234375 0.203125,0 0.234375,-0.03125 0.375,-0.609375 0.390625,-1.5 0.84375,-2.921875 1.828125,-2.921875 0.578125,0 0.78125,0.40625 0.78125,1.140625 0,0.546875 -0.25,1.515625 -0.421875,2.28125 L 2.796875,-4.34375 c -0.09375,0.484375 -0.375,1.59375 -0.5,2.046875 C 2.125,-1.65625 1.859375,-0.5 1.859375,-0.375 1.859375,-0.03125 2.125,0.25 2.5,0.25 c 0.296875,0 0.640625,-0.15625 0.84375,-0.515625 0.046875,-0.125 0.28125,-1 0.390625,-1.5 l 0.546875,-2.21875 z m 0,0"
             id="path185" />
        </g>
        <g
           id="g187"
           transform="translate(213.37326,52.977001)">
          <path
             d="m 9.375,-3.015625 c -0.0625,-1.21875 -0.109375,-3.125 -1.046875,-5.359375 -0.5,-1.234375 -1.34375,-2.546875 -3.15625,-2.546875 -3.046875,0 -4.703125,3.890625 -4.703125,4.53125 0,0.21875 0.171875,0.21875 0.25,0.21875 0.21875,0 0.21875,-0.046875 0.34375,-0.375 0.53125,-1.53125 2.109375,-2.75 3.8125,-2.75 3.453125,0 3.953125,3.84375 3.953125,6.296875 0,1.5625 -0.171875,2.078125 -0.328125,2.578125 C 8.03125,1.109375 7.21875,4.1875 7.21875,4.875 c 0,0.203125 0.0625,0.421875 0.265625,0.421875 0.375,0 0.59375,-0.8125 0.859375,-1.796875 0.609375,-2.1875 0.75,-3.28125 0.875,-4.265625 0.078125,-0.59375 1.484375,-4.6875 3.4375,-8.578125 0.1875,-0.390625 0.53125,-1.0625 0.53125,-1.140625 0,-0.01563 -0.03125,-0.203125 -0.25,-0.203125 -0.04687,0 -0.171875,0 -0.21875,0.109375 -0.0625,0.04687 -0.921875,1.734375 -1.671875,3.421875 C 10.6875,-6.3125 10.1875,-5.203125 9.375,-3.015625 Z m 0,0"
             id="path186" />
        </g>
      </g>
    </g>
    <g
       inkscape:label=""
       transform="translate(76.332583,175.00892)"
       id="g190">
      <g
         fill="#000000"
         fill-opacity="1"
         id="g79"
         transform="matrix(0.352778,0,0,0.352778,-1.05035,-0.614583)">
        <g
           id="g28"
           transform="translate(1.993,12.664)">
          <path
             d="m 11.46875,-6.265625 c 0,-2.40625 -1.359375,-4.65625 -3.984375,-4.65625 -3.25,0 -6.5,3.53125 -6.5,7.0625 0,2.15625 1.34375,4.109375 3.875,4.109375 1.53125,0 3.375,-0.59375 5.125,-2.078125 0.34375,1.375 1.125,2.078125 2.1875,2.078125 1.328125,0 2,-1.390625 2,-1.71875 0,-0.21875 -0.171875,-0.21875 -0.25,-0.21875 -0.1875,0 -0.21875,0.078125 -0.296875,0.28125 -0.21875,0.609375 -0.78125,1.15625 -1.390625,1.15625 -0.765625,0 -0.765625,-1.578125 -0.765625,-3.09375 2.53125,-3.03125 3.125,-6.140625 3.125,-6.171875 0,-0.21875 -0.203125,-0.21875 -0.265625,-0.21875 -0.234375,0 -0.25,0.0625 -0.34375,0.515625 -0.328125,1.09375 -0.96875,3.03125 -2.515625,5.0625 z m -1.5625,3.84375 c -2.171875,1.953125 -4.125,2.171875 -5,2.171875 -1.765625,0 -2.25,-1.5625 -2.25,-2.71875 0,-1.078125 0.546875,-3.59375 1.3125,-4.96875 1.015625,-1.734375 2.40625,-2.5 3.515625,-2.5 2.40625,0 2.40625,3.15625 2.40625,5.234375 0,0.625 -0.03125,1.265625 -0.03125,1.875 0,0.5 0.03125,0.625 0.046875,0.90625 z m 0,0"
             id="path51" />
        </g>
      </g>
    </g>
    <g
       inkscape:label=""
       transform="translate(104.85894,94.4144)"
       id="g201">
      <g
         fill="#000000"
         fill-opacity="1"
         id="g192"
         transform="matrix(0.352778,0,0,0.352778,-1.05035,-0.706217)">
        <g
           id="g191"
           transform="translate(1.993,19.205)">
          <path
             d="m 7.453125,-2.953125 c -0.125,0.421875 -0.125,0.46875 -0.46875,0.953125 -0.546875,0.6875 -1.625,1.75 -2.796875,1.75 -1.015625,0 -1.578125,-0.921875 -1.578125,-2.375 0,-1.359375 0.765625,-4.140625 1.234375,-5.1875 0.84375,-1.734375 2,-2.625 2.96875,-2.625 1.640625,0 1.953125,2.03125 1.953125,2.234375 0,0.03125 -0.0625,0.34375 -0.09375,0.390625 z m 1.59375,-6.34375 c -0.28125,-0.640625 -0.9375,-1.625 -2.234375,-1.625 -2.796875,0 -5.828125,3.609375 -5.828125,7.28125 0,2.453125 1.4375,3.890625 3.125,3.890625 1.375,0 2.53125,-1.0625 3.21875,-1.890625 C 7.578125,-0.171875 8.75,0.25 9.484375,0.25 c 0.75,0 1.34375,-0.453125 1.796875,-1.34375 0.390625,-0.84375 0.734375,-2.34375 0.734375,-2.453125 0,-0.125 -0.09375,-0.21875 -0.25,-0.21875 -0.21875,0 -0.25,0.125 -0.34375,0.5 C 11.046875,-1.8125 10.578125,-0.25 9.5625,-0.25 c -0.71875,0 -0.765625,-0.640625 -0.765625,-1.140625 0,-0.5625 0.078125,-0.84375 0.296875,-1.8125 0.171875,-0.609375 0.296875,-1.15625 0.5,-1.875 0.90625,-3.71875 1.140625,-4.609375 1.140625,-4.765625 0,-0.34375 -0.28125,-0.609375 -0.640625,-0.609375 -0.796875,0 -1,0.859375 -1.046875,1.15625 z m 0,0"
             id="path13" />
        </g>
      </g>
      <g
         fill="#000000"
         fill-opacity="1"
         id="g194"
         transform="matrix(0.352778,0,0,0.352778,-1.05035,-0.706217)">
        <g
           id="g193"
           transform="translate(21.618,19.205)">
          <path
             d="m 15.9375,-7.953125 c 0.375,0 0.734375,0 0.734375,-0.421875 0,-0.453125 -0.421875,-0.453125 -0.84375,-0.453125 H 1.984375 c -0.421875,0 -0.84375,0 -0.84375,0.453125 0,0.421875 0.375,0.421875 0.75,0.421875 z m -0.109375,4.40625 c 0.421875,0 0.84375,0 0.84375,-0.4375 0,-0.421875 -0.359375,-0.421875 -0.734375,-0.421875 H 1.890625 c -0.375,0 -0.75,0 -0.75,0.421875 0,0.4375 0.421875,0.4375 0.84375,0.4375 z m 0,0"
             id="path192" />
        </g>
      </g>
      <g
         fill="#000000"
         fill-opacity="1"
         id="g200"
         transform="matrix(0.352778,0,0,0.352778,-1.05035,-0.706217)">
        <g
           id="g195"
           transform="translate(46.346001,19.205)">
          <path
             d="m 6.96875,-16.578125 c 0.015625,-0.09375 0.0625,-0.25 0.0625,-0.375 0,-0.25 -0.234375,-0.25 -0.296875,-0.25 -0.015625,0 -1.234375,0.109375 -1.359375,0.125 -0.421875,0.03125 -0.796875,0.07813 -1.234375,0.109375 -0.625,0.04687 -0.796875,0.0625 -0.796875,0.515625 0,0.25 0.203125,0.25 0.546875,0.25 1.21875,0 1.234375,0.21875 1.234375,0.46875 0,0.140625 -0.046875,0.34375 -0.0625,0.421875 L 1.46875,-0.96875 c -0.109375,0.375 -0.109375,0.421875 -0.109375,0.578125 0,0.546875 0.421875,0.640625 0.671875,0.640625 0.421875,0 0.75,-0.328125 0.875,-0.59375 l 1.109375,-4.484375 c 0.125,-0.546875 0.265625,-1.0625 0.390625,-1.609375 0.28125,-1.046875 0.28125,-1.078125 0.75,-1.796875 0.46875,-0.71875 1.578125,-2.203125 3.5,-2.203125 0.984375,0 1.328125,0.75 1.328125,1.734375 0,1.390625 -0.96875,4.09375 -1.515625,5.578125 C 8.25,-2.53125 8.125,-2.203125 8.125,-1.765625 c 0,1.125 0.765625,2.015625 1.96875,2.015625 2.296875,0 3.171875,-3.640625 3.171875,-3.796875 0,-0.125 -0.109375,-0.21875 -0.25,-0.21875 -0.234375,0 -0.25,0.078125 -0.375,0.5 C 12.0625,-1.28125 11.15625,-0.25 10.15625,-0.25 c -0.25,0 -0.640625,-0.015625 -0.640625,-0.8125 0,-0.640625 0.296875,-1.4375 0.390625,-1.71875 0.453125,-1.1875 1.5625,-4.109375 1.5625,-5.546875 0,-1.484375 -0.859375,-2.59375 -2.75,-2.59375 -1.40625,0 -2.640625,0.65625 -3.65625,1.953125 z m 0,0"
             id="path194" />
        </g>
        <g
           id="g196"
           transform="translate(60.318489,19.205)">
          <path
             d="m 5.65625,-4.953125 c 0.421875,0.078125 1.078125,0.21875 1.234375,0.25 0.328125,0.09375 1.4375,0.484375 1.4375,1.6875 C 8.328125,-2.25 7.625,-0.25 4.765625,-0.25 4.234375,-0.25 2.375,-0.328125 1.890625,-1.6875 2.875,-1.5625 3.375,-2.328125 3.375,-2.875 c 0,-0.515625 -0.359375,-0.796875 -0.84375,-0.796875 -0.546875,0 -1.265625,0.421875 -1.265625,1.546875 0,1.453125 1.484375,2.375 3.46875,2.375 3.765625,0 4.875,-2.78125 4.875,-4.0625 0,-0.375 0,-1.0625 -0.78125,-1.859375 -0.625,-0.59375 -1.21875,-0.71875 -2.5625,-1 C 5.59375,-6.8125 4.53125,-7.03125 4.53125,-8.15625 c 0,-0.5 0.453125,-2.28125 2.796875,-2.28125 1.046875,0 2.0625,0.40625 2.3125,1.296875 -1.09375,0 -1.140625,0.9375 -1.140625,0.96875 0,0.515625 0.46875,0.65625 0.6875,0.65625 0.359375,0 1.046875,-0.265625 1.046875,-1.3125 0,-1.03125 -0.9375,-2.09375 -2.875,-2.09375 -3.25,0 -4.109375,2.546875 -4.109375,3.5625 0,1.875 1.828125,2.28125 2.40625,2.40625 z m 0,0"
             id="path195" />
        </g>
        <g
           id="g197"
           transform="translate(71.750298,19.205)">
          <path
             d="m 4.4375,-5.75 c 0.671875,0 2.359375,-0.046875 3.546875,-0.5 1.875,-0.71875 2.046875,-2.15625 2.046875,-2.59375 0,-1.09375 -0.9375,-2.078125 -2.578125,-2.078125 -2.59375,0 -6.34375,2.34375 -6.34375,6.765625 0,2.59375 1.5,4.40625 3.75,4.40625 3.375,0 5.5,-2.625 5.5,-2.953125 0,-0.140625 -0.15625,-0.265625 -0.25,-0.265625 -0.07813,0 -0.09375,0.015625 -0.328125,0.25 C 8.203125,-0.625 5.84375,-0.25 4.90625,-0.25 3.5,-0.25 2.75,-1.359375 2.75,-3.203125 2.75,-3.546875 2.75,-4.15625 3.125,-5.75 Z M 3.25,-6.25 c 1.0625,-3.8125 3.421875,-4.1875 4.203125,-4.1875 1.09375,0 1.84375,0.65625 1.84375,1.59375 0,2.59375 -3.96875,2.59375 -5.015625,2.59375 z m 0,0"
             id="path196" />
        </g>
        <g
           id="g198"
           transform="translate(82.998688,19.205)">
          <path
             d="M 5.109375,-7.265625 C 5.15625,-7.40625 5.78125,-8.65625 6.6875,-9.4375 c 0.640625,-0.59375 1.484375,-1 2.453125,-1 1,0 1.34375,0.75 1.34375,1.734375 0,1.421875 -1.015625,4.25 -1.515625,5.578125 C 8.75,-2.53125 8.625,-2.203125 8.625,-1.765625 c 0,1.125 0.765625,2.015625 1.953125,2.015625 2.3125,0 3.171875,-3.640625 3.171875,-3.796875 0,-0.125 -0.09375,-0.21875 -0.25,-0.21875 -0.21875,0 -0.234375,0.078125 -0.359375,0.5 C 12.5625,-1.234375 11.625,-0.25 10.65625,-0.25 c -0.25,0 -0.640625,-0.015625 -0.640625,-0.8125 0,-0.625 0.265625,-1.359375 0.421875,-1.71875 0.484375,-1.359375 1.53125,-4.125 1.53125,-5.546875 0,-1.484375 -0.859375,-2.59375 -2.75,-2.59375 -2.203125,0 -3.375,1.546875 -3.8125,2.171875 -0.078125,-1.40625 -1.09375,-2.171875 -2.1875,-2.171875 -0.796875,0 -1.328125,0.46875 -1.75,1.3125 -0.453125,0.890625 -0.796875,2.375 -0.796875,2.46875 0,0.109375 0.09375,0.234375 0.265625,0.234375 0.203125,0 0.234375,-0.03125 0.375,-0.609375 0.390625,-1.5 0.84375,-2.921875 1.828125,-2.921875 0.578125,0 0.78125,0.40625 0.78125,1.140625 0,0.546875 -0.25,1.515625 -0.421875,2.28125 L 2.796875,-4.34375 c -0.09375,0.484375 -0.375,1.59375 -0.5,2.046875 C 2.125,-1.65625 1.859375,-0.5 1.859375,-0.375 1.859375,-0.03125 2.125,0.25 2.5,0.25 c 0.296875,0 0.640625,-0.15625 0.84375,-0.515625 0.046875,-0.125 0.28125,-1 0.390625,-1.5 l 0.546875,-2.21875 z m 0,0"
             id="path197" />
        </g>
        <g
           id="g199"
           transform="translate(97.486748,19.205)">
          <path
             d="m 11.46875,-6.265625 c 0,-2.40625 -1.359375,-4.65625 -3.984375,-4.65625 -3.25,0 -6.5,3.53125 -6.5,7.0625 0,2.15625 1.34375,4.109375 3.875,4.109375 1.53125,0 3.375,-0.59375 5.125,-2.078125 0.34375,1.375 1.125,2.078125 2.1875,2.078125 1.328125,0 2,-1.390625 2,-1.71875 0,-0.21875 -0.171875,-0.21875 -0.25,-0.21875 -0.1875,0 -0.21875,0.078125 -0.296875,0.28125 -0.21875,0.609375 -0.78125,1.15625 -1.390625,1.15625 -0.765625,0 -0.765625,-1.578125 -0.765625,-3.09375 2.53125,-3.03125 3.125,-6.140625 3.125,-6.171875 0,-0.21875 -0.203125,-0.21875 -0.265625,-0.21875 -0.234375,0 -0.25,0.0625 -0.34375,0.515625 -0.328125,1.09375 -0.96875,3.03125 -2.515625,5.0625 z m -1.5625,3.84375 c -2.171875,1.953125 -4.125,2.171875 -5,2.171875 -1.765625,0 -2.25,-1.5625 -2.25,-2.71875 0,-1.078125 0.546875,-3.59375 1.3125,-4.96875 1.015625,-1.734375 2.40625,-2.5 3.515625,-2.5 2.40625,0 2.40625,3.15625 2.40625,5.234375 0,0.625 -0.03125,1.265625 -0.03125,1.875 0,0.5 0.03125,0.625 0.046875,0.90625 z m 0,0"
             id="path198" />
        </g>
      </g>
    </g>
    <g
       inkscape:label=""
       transform="translate(104.85894,103.45545)"
       id="g212">
      <g
         fill="#000000"
         fill-opacity="1"
         id="g203"
         transform="matrix(0.352778,0,0,0.352778,-1.05035,-0.612863)">
        <g
           id="g202"
           transform="translate(1.993,19.205999)">
          <path
             d="m 7.453125,-2.953125 c -0.125,0.421875 -0.125,0.46875 -0.46875,0.953125 -0.546875,0.6875 -1.625,1.75 -2.796875,1.75 -1.015625,0 -1.578125,-0.921875 -1.578125,-2.375 0,-1.359375 0.765625,-4.140625 1.234375,-5.1875 0.84375,-1.734375 2,-2.625 2.96875,-2.625 1.640625,0 1.953125,2.03125 1.953125,2.234375 0,0.03125 -0.0625,0.34375 -0.09375,0.390625 z m 1.59375,-6.34375 c -0.28125,-0.640625 -0.9375,-1.625 -2.234375,-1.625 -2.796875,0 -5.828125,3.609375 -5.828125,7.28125 0,2.453125 1.4375,3.890625 3.125,3.890625 1.375,0 2.53125,-1.0625 3.21875,-1.890625 C 7.578125,-0.171875 8.75,0.25 9.484375,0.25 c 0.75,0 1.34375,-0.453125 1.796875,-1.34375 0.390625,-0.84375 0.734375,-2.34375 0.734375,-2.453125 0,-0.125 -0.09375,-0.21875 -0.25,-0.21875 -0.21875,0 -0.25,0.125 -0.34375,0.5 C 11.046875,-1.8125 10.578125,-0.25 9.5625,-0.25 c -0.71875,0 -0.765625,-0.640625 -0.765625,-1.140625 0,-0.5625 0.078125,-0.84375 0.296875,-1.8125 0.171875,-0.609375 0.296875,-1.15625 0.5,-1.875 0.90625,-3.71875 1.140625,-4.609375 1.140625,-4.765625 0,-0.34375 -0.28125,-0.609375 -0.640625,-0.609375 -0.796875,0 -1,0.859375 -1.046875,1.15625 z m 0,0"
             id="path201" />
        </g>
      </g>
      <g
         fill="#000000"
         fill-opacity="1"
         id="g205"
         transform="matrix(0.352778,0,0,0.352778,-1.05035,-0.612863)">
        <g
           id="g204"
           transform="translate(21.618,19.205999)">
          <path
             d="m 15.9375,-7.953125 c 0.375,0 0.734375,0 0.734375,-0.421875 0,-0.453125 -0.421875,-0.453125 -0.84375,-0.453125 H 1.984375 c -0.421875,0 -0.84375,0 -0.84375,0.453125 0,0.421875 0.375,0.421875 0.75,0.421875 z m -0.109375,4.40625 c 0.421875,0 0.84375,0 0.84375,-0.4375 0,-0.421875 -0.359375,-0.421875 -0.734375,-0.421875 H 1.890625 c -0.375,0 -0.75,0 -0.75,0.421875 0,0.4375 0.421875,0.4375 0.84375,0.4375 z m 0,0"
             id="path203" />
        </g>
      </g>
      <g
         fill="#000000"
         fill-opacity="1"
         id="g211"
         transform="matrix(0.352778,0,0,0.352778,-1.05035,-0.612863)">
        <g
           id="g206"
           transform="translate(46.346001,19.205999)">
          <path
             d="m 6.96875,-16.578125 c 0.015625,-0.09375 0.0625,-0.25 0.0625,-0.375 0,-0.25 -0.234375,-0.25 -0.296875,-0.25 -0.015625,0 -1.234375,0.109375 -1.359375,0.125 -0.421875,0.03125 -0.796875,0.07813 -1.234375,0.109375 -0.625,0.04687 -0.796875,0.0625 -0.796875,0.515625 0,0.25 0.203125,0.25 0.546875,0.25 1.21875,0 1.234375,0.21875 1.234375,0.46875 0,0.140625 -0.046875,0.34375 -0.0625,0.421875 L 1.46875,-0.96875 c -0.109375,0.375 -0.109375,0.421875 -0.109375,0.578125 0,0.546875 0.421875,0.640625 0.671875,0.640625 0.421875,0 0.75,-0.328125 0.875,-0.59375 l 1.109375,-4.484375 c 0.125,-0.546875 0.265625,-1.0625 0.390625,-1.609375 0.28125,-1.046875 0.28125,-1.078125 0.75,-1.796875 0.46875,-0.71875 1.578125,-2.203125 3.5,-2.203125 0.984375,0 1.328125,0.75 1.328125,1.734375 0,1.390625 -0.96875,4.09375 -1.515625,5.578125 C 8.25,-2.53125 8.125,-2.203125 8.125,-1.765625 c 0,1.125 0.765625,2.015625 1.96875,2.015625 2.296875,0 3.171875,-3.640625 3.171875,-3.796875 0,-0.125 -0.109375,-0.21875 -0.25,-0.21875 -0.234375,0 -0.25,0.078125 -0.375,0.5 C 12.0625,-1.28125 11.15625,-0.25 10.15625,-0.25 c -0.25,0 -0.640625,-0.015625 -0.640625,-0.8125 0,-0.640625 0.296875,-1.4375 0.390625,-1.71875 0.453125,-1.1875 1.5625,-4.109375 1.5625,-5.546875 0,-1.484375 -0.859375,-2.59375 -2.75,-2.59375 -1.40625,0 -2.640625,0.65625 -3.65625,1.953125 z m 0,0"
             id="path205" />
        </g>
        <g
           id="g207"
           transform="translate(60.318489,19.205999)">
          <path
             d="m 9.6875,-9.3125 c -0.46875,0 -0.6875,0 -1.03125,0.296875 C 8.5,-8.890625 8.234375,-8.53125 8.234375,-8.125 c 0,0.5 0.359375,0.796875 0.828125,0.796875 0.609375,0 1.265625,-0.5 1.265625,-1.5 0,-1.1875 -1.140625,-2.09375 -2.84375,-2.09375 -3.25,0 -6.5,3.53125 -6.5,7.0625 0,2.15625 1.34375,4.109375 3.875,4.109375 3.375,0 5.5,-2.625 5.5,-2.953125 0,-0.140625 -0.15625,-0.265625 -0.25,-0.265625 -0.07813,0 -0.09375,0.015625 -0.328125,0.25 C 8.203125,-0.625 5.84375,-0.25 4.90625,-0.25 c -1.703125,0 -2.25,-1.484375 -2.25,-2.71875 0,-0.875 0.421875,-3.28125 1.3125,-4.96875 0.640625,-1.15625 1.984375,-2.5 3.546875,-2.5 0.3125,0 1.671875,0.04687 2.171875,1.125 z m 0,0"
             id="path206" />
        </g>
        <g
           id="g208"
           transform="translate(70.763771,19.205999)">
          <path
             d="m 11.296875,-6.8125 c 0,-2.359375 -1.53125,-4.109375 -3.78125,-4.109375 -3.28125,0 -6.5,3.5625 -6.5,7.0625 0,2.34375 1.53125,4.109375 3.796875,4.109375 3.296875,0 6.484375,-3.578125 6.484375,-7.0625 z M 4.828125,-0.25 c -1.234375,0 -2.15625,-0.984375 -2.15625,-2.71875 0,-1.140625 0.59375,-3.671875 1.296875,-4.90625 1.109375,-1.90625 2.5,-2.5625 3.515625,-2.5625 1.21875,0 2.15625,1 2.15625,2.734375 0,0.984375 -0.515625,3.640625 -1.46875,5.15625 C 7.15625,-0.890625 5.796875,-0.25 4.828125,-0.25 Z m 0,0"
             id="path207" />
        </g>
        <g
           id="g209"
           transform="translate(82.431061,19.205999)">
          <path
             d="m 5.65625,-4.953125 c 0.421875,0.078125 1.078125,0.21875 1.234375,0.25 0.328125,0.09375 1.4375,0.484375 1.4375,1.6875 C 8.328125,-2.25 7.625,-0.25 4.765625,-0.25 4.234375,-0.25 2.375,-0.328125 1.890625,-1.6875 2.875,-1.5625 3.375,-2.328125 3.375,-2.875 c 0,-0.515625 -0.359375,-0.796875 -0.84375,-0.796875 -0.546875,0 -1.265625,0.421875 -1.265625,1.546875 0,1.453125 1.484375,2.375 3.46875,2.375 3.765625,0 4.875,-2.78125 4.875,-4.0625 0,-0.375 0,-1.0625 -0.78125,-1.859375 -0.625,-0.59375 -1.21875,-0.71875 -2.5625,-1 C 5.59375,-6.8125 4.53125,-7.03125 4.53125,-8.15625 c 0,-0.5 0.453125,-2.28125 2.796875,-2.28125 1.046875,0 2.0625,0.40625 2.3125,1.296875 -1.09375,0 -1.140625,0.9375 -1.140625,0.96875 0,0.515625 0.46875,0.65625 0.6875,0.65625 0.359375,0 1.046875,-0.265625 1.046875,-1.3125 0,-1.03125 -0.9375,-2.09375 -2.875,-2.09375 -3.25,0 -4.109375,2.546875 -4.109375,3.5625 0,1.875 1.828125,2.28125 2.40625,2.40625 z m 0,0"
             id="path208" />
        </g>
        <g
           id="g210"
           transform="translate(93.862869,19.205999)">
          <path
             d="m 14.03125,-14.421875 c 0,-1.484375 -1.265625,-3.046875 -3.53125,-3.046875 -3.1875,0 -5.21875,3.90625 -5.859375,6.484375 L 0.71875,4.5625 c -0.046875,0.203125 0.09375,0.25 0.21875,0.25 0.171875,0 0.296875,-0.03125 0.328125,-0.15625 L 3,-2.28125 C 3.25,-0.890625 4.609375,0.25 6.078125,0.25 c 3.53125,0 6.875,-2.78125 6.875,-6.46875 0,-0.9375 -0.21875,-1.890625 -0.734375,-2.671875 -0.296875,-0.484375 -0.671875,-0.828125 -1.0625,-1.125 1.78125,-0.9375 2.875,-2.453125 2.875,-4.40625 z m -4.3125,4.390625 c -0.40625,0.140625 -0.796875,0.1875 -1.265625,0.1875 -0.34375,0 -0.671875,0.03125 -1.125,-0.125 0.25,-0.171875 0.625,-0.21875 1.140625,-0.21875 0.453125,0 0.90625,0.04687 1.25,0.15625 z m 3.015625,-4.609375 c 0,1.359375 -0.671875,3.34375 -2.28125,4.25 C 9.984375,-10.5625 9.34375,-10.6875 8.796875,-10.6875 c -0.515625,0 -2,-0.04687 -2,0.75 0,0.671875 1.359375,0.59375 1.78125,0.59375 0.640625,0 1.203125,-0.140625 1.8125,-0.328125 0.78125,0.65625 1.125,1.5 1.125,2.734375 0,1.4375 -0.390625,2.59375 -0.859375,3.671875 C 9.84375,-1.4375 7.90625,-0.25 6.1875,-0.25 c -1.796875,0 -2.75,-1.4375 -2.75,-3.125 0,-0.21875 0,-0.546875 0.109375,-0.90625 l 1.609375,-6.515625 c 0.8125,-3.25 2.890625,-6.171875 5.296875,-6.171875 1.78125,0 2.28125,1.234375 2.28125,2.328125 z m 0,0"
             id="path209" />
        </g>
      </g>
    </g>
    <g
       inkscape:label=""
       transform="translate(78.786584,105.90946)"
       id="g215">
      <g
         fill="#000000"
         fill-opacity="1"
         id="g214"
         transform="matrix(0.352778,0,0,0.352778,-1.05035,-0.614583)">
        <g
           id="g213"
           transform="translate(1.993,12.664)">
          <path
             d="m 11.46875,-6.265625 c 0,-2.40625 -1.359375,-4.65625 -3.984375,-4.65625 -3.25,0 -6.5,3.53125 -6.5,7.0625 0,2.15625 1.34375,4.109375 3.875,4.109375 1.53125,0 3.375,-0.59375 5.125,-2.078125 0.34375,1.375 1.125,2.078125 2.1875,2.078125 1.328125,0 2,-1.390625 2,-1.71875 0,-0.21875 -0.171875,-0.21875 -0.25,-0.21875 -0.1875,0 -0.21875,0.078125 -0.296875,0.28125 -0.21875,0.609375 -0.78125,1.15625 -1.390625,1.15625 -0.765625,0 -0.765625,-1.578125 -0.765625,-3.09375 2.53125,-3.03125 3.125,-6.140625 3.125,-6.171875 0,-0.21875 -0.203125,-0.21875 -0.265625,-0.21875 -0.234375,0 -0.25,0.0625 -0.34375,0.515625 -0.328125,1.09375 -0.96875,3.03125 -2.515625,5.0625 z m -1.5625,3.84375 c -2.171875,1.953125 -4.125,2.171875 -5,2.171875 -1.765625,0 -2.25,-1.5625 -2.25,-2.71875 0,-1.078125 0.546875,-3.59375 1.3125,-4.96875 1.015625,-1.734375 2.40625,-2.5 3.515625,-2.5 2.40625,0 2.40625,3.15625 2.40625,5.234375 0,0.625 -0.03125,1.265625 -0.03125,1.875 0,0.5 0.03125,0.625 0.046875,0.90625 z m 0,0"
             id="path212" />
        </g>
      </g>
    </g>
    <g
       inkscape:label=""
       id="g218"
       transform="translate(41.847429,85.244193)">
      <g
         fill="#000000"
         fill-opacity="1"
         id="g217"
         transform="matrix(0.352778,0,0,0.352778,-2.3741247,-2.9377049)">
        <g
           id="g216"
           transform="translate(1.993,19.205999)">
          <path
             d="m 14.03125,-14.421875 c 0,-1.484375 -1.265625,-3.046875 -3.53125,-3.046875 -3.1875,0 -5.21875,3.90625 -5.859375,6.484375 L 0.71875,4.5625 c -0.046875,0.203125 0.09375,0.25 0.21875,0.25 0.171875,0 0.296875,-0.03125 0.328125,-0.15625 L 3,-2.28125 C 3.25,-0.890625 4.609375,0.25 6.078125,0.25 c 3.53125,0 6.875,-2.78125 6.875,-6.46875 0,-0.9375 -0.21875,-1.890625 -0.734375,-2.671875 -0.296875,-0.484375 -0.671875,-0.828125 -1.0625,-1.125 1.78125,-0.9375 2.875,-2.453125 2.875,-4.40625 z m -4.3125,4.390625 c -0.40625,0.140625 -0.796875,0.1875 -1.265625,0.1875 -0.34375,0 -0.671875,0.03125 -1.125,-0.125 0.25,-0.171875 0.625,-0.21875 1.140625,-0.21875 0.453125,0 0.90625,0.04687 1.25,0.15625 z m 3.015625,-4.609375 c 0,1.359375 -0.671875,3.34375 -2.28125,4.25 C 9.984375,-10.5625 9.34375,-10.6875 8.796875,-10.6875 c -0.515625,0 -2,-0.04687 -2,0.75 0,0.671875 1.359375,0.59375 1.78125,0.59375 0.640625,0 1.203125,-0.140625 1.8125,-0.328125 0.78125,0.65625 1.125,1.5 1.125,2.734375 0,1.4375 -0.390625,2.59375 -0.859375,3.671875 C 9.84375,-1.4375 7.90625,-0.25 6.1875,-0.25 c -1.796875,0 -2.75,-1.4375 -2.75,-3.125 0,-0.21875 0,-0.546875 0.109375,-0.90625 l 1.609375,-6.515625 c 0.8125,-3.25 2.890625,-6.171875 5.296875,-6.171875 1.78125,0 2.28125,1.234375 2.28125,2.328125 z m 0,0"
             id="path215" />
        </g>
      </g>
      <path
         style="fill:none;stroke:#000000;stroke-width:0.4;stroke-dasharray:none"
         id="path221"
         sodipodi:type="arc"
         sodipodi:cx="26.089613"
         sodipodi:cy="59.283466"
         sodipodi:rx="5.8121047"
         sodipodi:ry="5.8121047"
         sodipodi:start="1.0053124"
         sodipodi:end="2.4487131"
         sodipodi:arc-type="arc"
         d="M 29.203881,64.190797 A 5.8121047,5.8121047 0 0 1 21.617722,62.99598"
         sodipodi:open="true" />
      <path
         style="fill:none;stroke:#000000;stroke-width:0.4;stroke-dasharray:none"
         id="path222"
         sodipodi:type="arc"
         sodipodi:cx="-10.849538"
         sodipodi:cy="89.248108"
         sodipodi:rx="7.6203151"
         sodipodi:ry="7.6203151"
         sodipodi:start="5.624097"
         sodipodi:end="0.16529274"
         sodipodi:arc-type="arc"
         d="m -4.8252911,84.581455 a 7.6203151,7.6203151 0 0 1 1.4922052,5.920508"
         sodipodi:open="true" />
      <path
         style="fill:none;stroke:#000000;stroke-width:0.4;stroke-dasharray:none"
         id="path223"
         sodipodi:type="arc"
         sodipodi:cx="47.013191"
         sodipodi:cy="98.934937"
         sodipodi:rx="7.6203151"
         sodipodi:ry="7.6203151"
         sodipodi:start="3.3247035"
         sodipodi:end="4.2560014"
         sodipodi:arc-type="arc"
         d="m 39.520273,97.547359 a 7.6203151,7.6203151 0 0 1 4.134582,-5.452801"
         sodipodi:open="true" />
    </g>
    <path
       style="fill:none;stroke:#000000;stroke-width:0.4;stroke-dasharray:none"
       id="path219"
       sodipodi:type="arc"
       sodipodi:cx="98.418304"
       sodipodi:cy="113.40062"
       sodipodi:rx="12.528314"
       sodipodi:ry="12.528314"
       sodipodi:start="3.1556762"
       sodipodi:end="3.7295952"
       sodipodi:arc-type="arc"
       d="m 85.891233,113.22418 a 12.528314,12.528314 0 0 1 2.102884,-6.77302"
       sodipodi:open="true" />
    <path
       style="fill:none;stroke:#000000;stroke-width:0.4;stroke-dasharray:none"
       id="path220"
       sodipodi:type="arc"
       sodipodi:cx="37.326626"
       sodipodi:cy="74.911568"
       sodipodi:rx="7.361999"
       sodipodi:ry="7.361999"
       sodipodi:start="0.57743963"
       sodipodi:end="1.6307245"
       sodipodi:arc-type="arc"
       d="m 43.494973,78.930339 a 7.361999,7.361999 0 0 1 -6.609274,3.330012"
       sodipodi:open="true" />
    <text
       xml:space="preserve"
       style="font-size:7.56537px;font-family:Calibri;-inkscape-font-specification:Calibri;fill:#000000;stroke:none;stroke-width:0.4;stroke-dasharray:none"
       x="50.068371"
       y="52.06979"
       id="text223"><tspan
         sodipodi:role="line"
         id="tspan223"
         style="fill:#000000;stroke:none;stroke-width:0.4"
         x="50.068371"
         y="52.06979">Algumas Relaes Trigonomtricas</tspan></text>
    <text
       xml:space="preserve"
       style="font-size:4.9389px;font-family:Calibri;-inkscape-font-specification:Calibri;fill:#000000;stroke:none;stroke-width:0.4;stroke-dasharray:none"
       x="22.473471"
       y="201.22798"
       id="text224"><tspan
         sodipodi:role="line"
         id="tspan224"
         style="stroke-width:0.4"
         x="22.473471"
         y="201.22798" /></text>
    <g
       inkscape:label=""
       transform="translate(104.85894,132.1289)"
       id="g242">
      <g
         fill="#000000"
         fill-opacity="1"
         id="g225"
         transform="matrix(0.352778,0,0,0.352778,-1.05035,-0.612863)">
        <g
           id="g224"
           transform="translate(1.993,19.205999)">
          <path
             d="m 11.46875,-6.265625 c 0,-2.40625 -1.359375,-4.65625 -3.984375,-4.65625 -3.25,0 -6.5,3.53125 -6.5,7.0625 0,2.15625 1.34375,4.109375 3.875,4.109375 1.53125,0 3.375,-0.59375 5.125,-2.078125 0.34375,1.375 1.125,2.078125 2.1875,2.078125 1.328125,0 2,-1.390625 2,-1.71875 0,-0.21875 -0.171875,-0.21875 -0.25,-0.21875 -0.1875,0 -0.21875,0.078125 -0.296875,0.28125 -0.21875,0.609375 -0.78125,1.15625 -1.390625,1.15625 -0.765625,0 -0.765625,-1.578125 -0.765625,-3.09375 2.53125,-3.03125 3.125,-6.140625 3.125,-6.171875 0,-0.21875 -0.203125,-0.21875 -0.265625,-0.21875 -0.234375,0 -0.25,0.0625 -0.34375,0.515625 -0.328125,1.09375 -0.96875,3.03125 -2.515625,5.0625 z m -1.5625,3.84375 c -2.171875,1.953125 -4.125,2.171875 -5,2.171875 -1.765625,0 -2.25,-1.5625 -2.25,-2.71875 0,-1.078125 0.546875,-3.59375 1.3125,-4.96875 1.015625,-1.734375 2.40625,-2.5 3.515625,-2.5 2.40625,0 2.40625,3.15625 2.40625,5.234375 0,0.625 -0.03125,1.265625 -0.03125,1.875 0,0.5 0.03125,0.625 0.046875,0.90625 z m 0,0"
             id="path224" />
        </g>
      </g>
      <g
         fill="#000000"
         fill-opacity="1"
         id="g227"
         transform="matrix(0.352778,0,0,0.352778,-1.05035,-0.612863)">
        <g
           id="g226"
           transform="translate(23.096001,19.205999)">
          <path
             d="m 9.34375,-5.75 h 6.5625 c 0.34375,0 0.765625,0 0.765625,-0.421875 0,-0.4375 -0.390625,-0.4375 -0.765625,-0.4375 H 9.34375 V -13.1875 c 0,-0.34375 0,-0.765625 -0.421875,-0.765625 -0.453125,0 -0.453125,0.390625 -0.453125,0.765625 v 6.578125 h -6.5625 c -0.34375,0 -0.765625,0 -0.765625,0.421875 0,0.4375 0.390625,0.4375 0.765625,0.4375 h 6.5625 v 6.5625 c 0,0.359375 0,0.78125 0.421875,0.78125 0.453125,0 0.453125,-0.40625 0.453125,-0.78125 z m 0,0"
             id="path225" />
        </g>
      </g>
      <g
         fill="#000000"
         fill-opacity="1"
         id="g229"
         transform="matrix(0.352778,0,0,0.352778,-1.05035,-0.612863)">
        <g
           id="g228"
           transform="translate(46.446999,19.205999)">
          <path
             d="m 14.03125,-14.421875 c 0,-1.484375 -1.265625,-3.046875 -3.53125,-3.046875 -3.1875,0 -5.21875,3.90625 -5.859375,6.484375 L 0.71875,4.5625 c -0.046875,0.203125 0.09375,0.25 0.21875,0.25 0.171875,0 0.296875,-0.03125 0.328125,-0.15625 L 3,-2.28125 C 3.25,-0.890625 4.609375,0.25 6.078125,0.25 c 3.53125,0 6.875,-2.78125 6.875,-6.46875 0,-0.9375 -0.21875,-1.890625 -0.734375,-2.671875 -0.296875,-0.484375 -0.671875,-0.828125 -1.0625,-1.125 1.78125,-0.9375 2.875,-2.453125 2.875,-4.40625 z m -4.3125,4.390625 c -0.40625,0.140625 -0.796875,0.1875 -1.265625,0.1875 -0.34375,0 -0.671875,0.03125 -1.125,-0.125 0.25,-0.171875 0.625,-0.21875 1.140625,-0.21875 0.453125,0 0.90625,0.04687 1.25,0.15625 z m 3.015625,-4.609375 c 0,1.359375 -0.671875,3.34375 -2.28125,4.25 C 9.984375,-10.5625 9.34375,-10.6875 8.796875,-10.6875 c -0.515625,0 -2,-0.04687 -2,0.75 0,0.671875 1.359375,0.59375 1.78125,0.59375 0.640625,0 1.203125,-0.140625 1.8125,-0.328125 0.78125,0.65625 1.125,1.5 1.125,2.734375 0,1.4375 -0.390625,2.59375 -0.859375,3.671875 C 9.84375,-1.4375 7.90625,-0.25 6.1875,-0.25 c -1.796875,0 -2.75,-1.4375 -2.75,-3.125 0,-0.21875 0,-0.546875 0.109375,-0.90625 l 1.609375,-6.515625 c 0.8125,-3.25 2.890625,-6.171875 5.296875,-6.171875 1.78125,0 2.28125,1.234375 2.28125,2.328125 z m 0,0"
             id="path227" />
        </g>
      </g>
      <g
         fill="#000000"
         fill-opacity="1"
         id="g231"
         transform="matrix(0.352778,0,0,0.352778,-1.05035,-0.612863)">
        <g
           id="g230"
           transform="translate(67.030998,19.205999)">
          <path
             d="m 9.34375,-5.75 h 6.5625 c 0.34375,0 0.765625,0 0.765625,-0.421875 0,-0.4375 -0.390625,-0.4375 -0.765625,-0.4375 H 9.34375 V -13.1875 c 0,-0.34375 0,-0.765625 -0.421875,-0.765625 -0.453125,0 -0.453125,0.390625 -0.453125,0.765625 v 6.578125 h -6.5625 c -0.34375,0 -0.765625,0 -0.765625,0.421875 0,0.4375 0.390625,0.4375 0.765625,0.4375 h 6.5625 v 6.5625 c 0,0.359375 0,0.78125 0.421875,0.78125 0.453125,0 0.453125,-0.40625 0.453125,-0.78125 z m 0,0"
             id="path229" />
        </g>
      </g>
      <g
         fill="#000000"
         fill-opacity="1"
         id="g233"
         transform="matrix(0.352778,0,0,0.352778,-1.05035,-0.612863)">
        <g
           id="g232"
           transform="translate(90.382004,19.205999)">
          <path
             d="m 9.375,-3.015625 c -0.0625,-1.21875 -0.109375,-3.125 -1.046875,-5.359375 -0.5,-1.234375 -1.34375,-2.546875 -3.15625,-2.546875 -3.046875,0 -4.703125,3.890625 -4.703125,4.53125 0,0.21875 0.171875,0.21875 0.25,0.21875 0.21875,0 0.21875,-0.046875 0.34375,-0.375 0.53125,-1.53125 2.109375,-2.75 3.8125,-2.75 3.453125,0 3.953125,3.84375 3.953125,6.296875 0,1.5625 -0.171875,2.078125 -0.328125,2.578125 C 8.03125,1.109375 7.21875,4.1875 7.21875,4.875 c 0,0.203125 0.0625,0.421875 0.265625,0.421875 0.375,0 0.59375,-0.8125 0.859375,-1.796875 0.609375,-2.1875 0.75,-3.28125 0.875,-4.265625 0.078125,-0.59375 1.484375,-4.6875 3.4375,-8.578125 0.1875,-0.390625 0.53125,-1.0625 0.53125,-1.140625 0,-0.01563 -0.03125,-0.203125 -0.25,-0.203125 -0.04687,0 -0.171875,0 -0.21875,0.109375 -0.0625,0.04687 -0.921875,1.734375 -1.671875,3.421875 C 10.6875,-6.3125 10.1875,-5.203125 9.375,-3.015625 Z m 0,0"
             id="path231" />
        </g>
      </g>
      <g
         fill="#000000"
         fill-opacity="1"
         id="g235"
         transform="matrix(0.352778,0,0,0.352778,-1.05035,-0.612863)">
        <g
           id="g234"
           transform="translate(111.204,19.205999)">
          <path
             d="m 15.9375,-7.953125 c 0.375,0 0.734375,0 0.734375,-0.421875 0,-0.453125 -0.421875,-0.453125 -0.84375,-0.453125 H 1.984375 c -0.421875,0 -0.84375,0 -0.84375,0.453125 0,0.421875 0.375,0.421875 0.75,0.421875 z m -0.109375,4.40625 c 0.421875,0 0.84375,0 0.84375,-0.4375 0,-0.421875 -0.359375,-0.421875 -0.734375,-0.421875 H 1.890625 c -0.375,0 -0.75,0 -0.75,0.421875 0,0.4375 0.421875,0.4375 0.84375,0.4375 z m 0,0"
             id="path233" />
        </g>
      </g>
      <g
         fill="#000000"
         fill-opacity="1"
         id="g239"
         transform="matrix(0.352778,0,0,0.352778,-1.05035,-0.612863)">
        <g
           id="g236"
           transform="translate(135.93657,19.205999)">
          <path
             d="m 6.59375,-15.828125 c 0,-0.53125 -0.03125,-0.546875 -0.375,-0.546875 -0.96875,1.15625 -2.421875,1.53125 -3.8125,1.578125 -0.078125,0 -0.203125,0 -0.21875,0.04687 -0.03125,0.0625 -0.03125,0.109375 -0.03125,0.625 0.765625,0 2.0625,-0.15625 3.046875,-0.75 v 13.0625 c 0,0.875 -0.046875,1.171875 -2.1875,1.171875 H 2.28125 V 0 c 1.1875,-0.03125 2.421875,-0.046875 3.609375,-0.046875 1.203125,0 2.4375,0.015625 3.625,0.046875 v -0.640625 h -0.75 c -2.125,0 -2.171875,-0.28125 -2.171875,-1.171875 z m 0,0"
             id="path24" />
        </g>
        <g
           id="g237"
           transform="translate(147.30392,19.205999)">
          <path
             d="m 6.734375,-8.921875 c 1.5625,-0.796875 3.15625,-1.984375 3.15625,-3.890625 0,-2.25 -2.1875,-3.5625 -4.1875,-3.5625 -2.265625,0 -4.234375,1.625 -4.234375,3.890625 0,0.609375 0.140625,1.6875 1.109375,2.625 0.25,0.25 1.28125,0.984375 1.953125,1.453125 -1.109375,0.578125 -3.71875,1.9375 -3.71875,4.671875 0,2.546875 2.4375,4.125 4.84375,4.125 2.640625,0 4.875,-1.90625 4.875,-4.4375 0,-2.25 -1.515625,-3.28125 -2.5,-3.953125 z M 3.5,-11.109375 C 3.296875,-11.21875 2.296875,-12 2.296875,-13.15625 c 0,-1.515625 1.5625,-2.65625 3.359375,-2.65625 1.953125,0 3.390625,1.390625 3.390625,3 0,2.3125 -2.578125,3.625 -2.703125,3.625 -0.03125,0 -0.046875,0 -0.25,-0.15625 z m 4.546875,5.09375 c 0.375,0.265625 1.5625,1.078125 1.5625,2.59375 0,1.828125 -1.828125,3.21875 -3.90625,3.21875 -2.265625,0 -3.96875,-1.609375 -3.96875,-3.5625 0,-1.953125 1.515625,-3.59375 3.21875,-4.359375 z m 0,0"
             id="path25" />
        </g>
        <g
           id="g238"
           transform="translate(158.6713,19.205999)">
          <path
             d="m 10.40625,-7.953125 c 0,-1.515625 -0.01563,-4.09375 -1.0625,-6.078125 -0.921875,-1.734375 -2.375,-2.34375 -3.671875,-2.34375 -1.1875,0 -2.703125,0.546875 -3.640625,2.328125 -0.984375,1.859375 -1.09375,4.15625 -1.09375,6.09375 0,1.40625 0.03125,3.5625 0.796875,5.453125 1.0625,2.546875 2.96875,2.890625 3.9375,2.890625 1.140625,0 2.875,-0.46875 3.890625,-2.8125 0.75,-1.71875 0.84375,-3.71875 0.84375,-5.53125 z M 5.671875,0 C 4.09375,0 3.140625,-1.359375 2.796875,-3.25 2.53125,-4.703125 2.53125,-6.84375 2.53125,-8.234375 c 0,-1.90625 0,-3.484375 0.3125,-5 0.484375,-2.109375 1.859375,-2.75 2.828125,-2.75 1.015625,0 2.328125,0.671875 2.796875,2.703125 0.328125,1.40625 0.359375,3.078125 0.359375,5.046875 0,1.625 0,3.59375 -0.296875,5.0625 C 8,-0.46875 6.546875,0 5.671875,0 Z m 0,0"
             id="path237" />
        </g>
      </g>
      <g
         fill="#000000"
         fill-opacity="1"
         id="g241"
         transform="matrix(0.352778,0,0,0.352778,-1.05035,-0.612863)">
        <g
           id="g240"
           transform="translate(170.035,10.211)">
          <path
             d="m 7.640625,-4.3125 c 0,-1.828125 -1.53125,-3.328125 -3.328125,-3.328125 -1.875,0 -3.359375,1.53125 -3.359375,3.328125 0,1.828125 1.484375,3.34375 3.359375,3.34375 1.796875,0 3.328125,-1.5 3.328125,-3.34375 z M 4.3125,-1.65625 c -1.5,0 -2.671875,-1.203125 -2.671875,-2.65625 0,-1.4375 1.1875,-2.640625 2.671875,-2.640625 1.421875,0 2.640625,1.171875 2.640625,2.640625 0,1.484375 -1.21875,2.65625 -2.640625,2.65625 z m 0,0"
             id="path239" />
        </g>
      </g>
    </g>
  </g>
</svg>
